<?xml version="1.0" encoding="utf-8"?>
<!-- Generator: Adobe Illustrator 21.0.0, SVG Export Plug-In . SVG Version: 6.00 Build 0)  -->
<svg version="1.1" id="Layer_1" xmlns="http://www.w3.org/2000/svg" xmlns:xlink="http://www.w3.org/1999/xlink" x="0px" y="0px"
	 viewBox="0 0 2340 1560" style="enable-background:new 0 0 2340 1560;" xml:space="preserve">
<style type="text/css">
	.st0{fill-rule:evenodd;clip-rule:evenodd;fill:#C2DDF3;}
	.st1{fill-rule:evenodd;clip-rule:evenodd;fill:#FFFFFF;}
	.st2{fill-rule:evenodd;clip-rule:evenodd;fill:#FDF9FC;}
	.st3{fill-rule:evenodd;clip-rule:evenodd;fill:#84BDDD;}
	.st4{fill-rule:evenodd;clip-rule:evenodd;fill:#4E8DAA;}
	.st5{fill-rule:evenodd;clip-rule:evenodd;fill:#C3624B;}
	.st6{fill-rule:evenodd;clip-rule:evenodd;fill:#EB8970;}
	.st7{fill-rule:evenodd;clip-rule:evenodd;fill:#93C4DF;}
	.st8{fill-rule:evenodd;clip-rule:evenodd;fill:#C28ABD;}
	.st9{fill-rule:evenodd;clip-rule:evenodd;fill:#A858A2;}
	.st10{fill-rule:evenodd;clip-rule:evenodd;fill:#903895;}
	.st11{fill:#903895;}
	.st12{fill-rule:evenodd;clip-rule:evenodd;fill:#9C88C0;}
	.st13{fill-rule:evenodd;clip-rule:evenodd;fill:#7857A4;}
	.st14{fill-rule:evenodd;clip-rule:evenodd;fill:#6E3E98;}
	.st15{fill-rule:evenodd;clip-rule:evenodd;fill:#53BA65;}
	.st16{fill:#FFFFFF;}
	.st17{fill-rule:evenodd;clip-rule:evenodd;fill:#DB8169;}
	.st18{fill-rule:evenodd;clip-rule:evenodd;fill:#846FB2;}
	.st19{fill-rule:evenodd;clip-rule:evenodd;fill:#F8A38C;}
	.st20{fill-rule:evenodd;clip-rule:evenodd;fill:#CEABD1;}
	.st21{fill-rule:evenodd;clip-rule:evenodd;fill:#A492C5;}
	.st22{fill-rule:evenodd;clip-rule:evenodd;fill:#553E98;}
	.st23{fill-rule:evenodd;clip-rule:evenodd;fill:#34679A;}
	.st24{fill-rule:evenodd;clip-rule:evenodd;fill:#8584C0;}
	.st25{fill-rule:evenodd;clip-rule:evenodd;fill:#F8F2F8;}
</style>
<g>
	<path class="st0" d="M341.1,1207.7c272.5,2.1,417.8,2.2,436.2,0.1c46.1-82.8,46.8-124.4-16.1-147.8c-27.2-11.4-26.2-35-23.7-64.4
		c5.2-43.1-53.9-121.7-231.3-48.3C258.5,1051.2,244.7,1116.4,341.1,1207.7"/>
	<path class="st1" d="M456.6,1071.2c18.2,0,32.9,13.2,32.9,29.6s-14.7,29.6-32.9,29.6c-18.2,0-32.9-13.2-32.9-29.6
		S438.4,1071.2,456.6,1071.2"/>
	<path class="st2" d="M537.3,996.2c18.2,0,32.9,13.2,32.9,29.6c0,16.3-14.7,29.6-32.9,29.6c-18.2,0-32.9-13.2-32.9-29.6
		C504.4,1009.5,519.1,996.2,537.3,996.2"/>
	<path class="st2" d="M590.6,982.1c7.9,0,14.4,5.8,14.4,12.9c0,7.1-6.4,12.9-14.4,12.9c-7.9,0-14.4-5.8-14.4-12.9
		C576.3,987.9,582.7,982.1,590.6,982.1"/>
	<path class="st3" d="M363.1,1209.5c263.2,4.9,394.8,7.3,394.8,7.3c3-21.9-8.6-43.2-29.7-54.6c-21-11.4-47.5-10.6-67.6,2
		c1.5-42.3-30-79.8-75.7-90c-45.7-10.3-93.2,9.4-114.1,47.3c-28.4-19.4-68.3-17.9-94.7,3.7C349.7,1146.8,344.2,1182.3,363.1,1209.5"
		/>
	<path class="st4" d="M400.8,1214.7c195.5,2.3,293.2,3.4,293.2,3.4c-7.4-25.9-35.8-42.3-65.1-37.7c-7.2-27.5-35.7-46.2-67.1-44
		c-31.4,2.2-56.3,24.6-58.7,52.8c-16.7-10.8-38-14.2-57.9-9.2C425.2,1184.9,408.9,1197.7,400.8,1214.7"/>
	<rect x="633.2" y="1156.5" class="st5" width="8.6" height="61.7"/>
	<rect x="630.3" y="1156.5" class="st6" width="6.6" height="61.7"/>
	<rect x="477.1" y="1156.5" class="st5" width="8.6" height="61.7"/>
	<rect x="474.2" y="1156.5" class="st6" width="6.6" height="61.7"/>
	<path class="st5" d="M468.3,1149.9h182.5c1.6,0,2.8,1.1,2.8,2.5v4.5c0,1.4-1.3,2.5-2.8,2.5H468.3c-1.6,0-2.8-1.1-2.8-2.5v-4.5
		C465.5,1151.1,466.7,1149.9,468.3,1149.9"/>
	<path class="st7" d="M469,1009.4h186.1c2.6,0,4.7,1.9,4.7,4.2v89.2c0,2.3-2.1,4.2-4.7,4.2H469c-2.6,0-4.7-1.9-4.7-4.2v-89.2
		C464.3,1011.3,466.5,1009.4,469,1009.4"/>
	<rect x="479.2" y="1035.3" class="st8" width="69.7" height="55.2"/>
	<rect x="479.2" y="1035.3" class="st9" width="22.6" height="55.2"/>
	<rect x="479.2" y="1029.8" class="st10" width="69.7" height="11.1"/>
	<path class="st1" d="M484.7,1033.8h37.9c0.7,0,1.3,0.5,1.3,1.2v0c0,0.7-0.6,1.2-1.3,1.2h-37.9c-0.7,0-1.3-0.5-1.3-1.2v0
		C483.3,1034.3,483.9,1033.8,484.7,1033.8"/>
	<path class="st1" d="M534.7,1033.9c0.7,0,1.3,0.5,1.3,1.2s-0.6,1.2-1.3,1.2c-0.7,0-1.3-0.5-1.3-1.2S534,1033.9,534.7,1033.9"/>
	<path class="st1" d="M539.2,1033.9c0.7,0,1.3,0.5,1.3,1.2s-0.6,1.2-1.3,1.2c-0.7,0-1.3-0.5-1.3-1.2S538.4,1033.9,539.2,1033.9"/>
	<path class="st1" d="M544,1033.9c0.7,0,1.3,0.5,1.3,1.2s-0.6,1.2-1.3,1.2c-0.7,0-1.3-0.5-1.3-1.2S543.3,1033.9,544,1033.9"/>
	<rect x="483" y="1044.3" class="st1" width="15.5" height="1.6"/>
	<rect x="483" y="1046.9" class="st1" width="13.2" height="1.6"/>
	<rect x="483" y="1049.4" class="st1" width="8.9" height="1.6"/>
	<rect x="483" y="1055.9" class="st1" width="15.5" height="1.6"/>
	<rect x="483" y="1058.4" class="st1" width="13.2" height="1.6"/>
	<rect x="483" y="1061" class="st1" width="8.9" height="1.6"/>
	<rect x="483" y="1068.1" class="st1" width="15.5" height="1.6"/>
	<rect x="483" y="1070.6" class="st1" width="13.2" height="1.6"/>
	<rect x="483" y="1073.2" class="st1" width="8.9" height="1.6"/>
	<rect x="483" y="1078.9" class="st1" width="15.5" height="1.6"/>
	<rect x="483" y="1081.5" class="st1" width="13.2" height="1.6"/>
	<rect x="483" y="1084" class="st1" width="8.9" height="1.6"/>
	<rect x="505.7" y="1044.3" class="st1" width="8.1" height="7.3"/>
	<rect x="515.3" y="1044.8" class="st1" width="29.7" height="2.3"/>
	<rect x="515.3" y="1048.3" class="st1" width="25.6" height="2.3"/>
	<rect x="505.7" y="1056" class="st1" width="8.1" height="7.3"/>
	<rect x="515.3" y="1056.4" class="st1" width="14.5" height="2.3"/>
	<rect x="515.3" y="1059.9" class="st1" width="25.6" height="2.3"/>
	<rect x="505.7" y="1067.8" class="st1" width="8.1" height="7.3"/>
	<rect x="515.3" y="1068.3" class="st1" width="14.5" height="2.3"/>
	<rect x="515.3" y="1071.8" class="st1" width="5.8" height="2.3"/>
	<rect x="505.7" y="1078.8" class="st1" width="8.1" height="7.3"/>
	<rect x="515.3" y="1079.5" class="st1" width="24.7" height="2.3"/>
	<rect x="515.3" y="1082.8" class="st1" width="29.7" height="2.3"/>
	<path class="st1" d="M477.5,1023.3c3.6,0,6.5,2.6,6.5,5.8c0,3.2-2.9,5.8-6.5,5.8s-6.5-2.6-6.5-5.8
		C471,1025.9,473.9,1023.3,477.5,1023.3"/>
	<polygon class="st11" points="476,1032.7 476,1029.3 474.7,1029.3 477.4,1025.8 480.1,1029.3 478.7,1029.3 478.7,1032.7 	"/>
	<path class="st1" d="M472,1013.9H652c0.7,0,1.3,0.5,1.3,1.2v0c0,0.6-0.6,1.2-1.3,1.2H472c-0.7,0-1.3-0.5-1.3-1.2v0
		C470.7,1014.4,471.3,1013.9,472,1013.9"/>
	<rect x="562.7" y="1032.3" class="st12" width="82.3" height="58.2"/>
	<rect x="559.4" y="1029.8" class="st13" width="16.2" height="60.7"/>
	<rect x="559.4" y="1029.8" class="st14" width="85.6" height="11.4"/>
	<path class="st1" d="M566.1,1033.8h50c0.7,0,1.3,0.5,1.3,1.2v0c0,0.7-0.6,1.2-1.3,1.2h-50c-0.7,0-1.3-0.5-1.3-1.2v0
		C564.7,1034.3,565.3,1033.8,566.1,1033.8"/>
	<path class="st1" d="M626.9,1033.9c0.7,0,1.3,0.5,1.3,1.2s-0.6,1.2-1.3,1.2c-0.7,0-1.3-0.5-1.3-1.2S626.2,1033.9,626.9,1033.9"/>
	<path class="st1" d="M632.3,1033.9c0.7,0,1.3,0.5,1.3,1.2s-0.6,1.2-1.3,1.2c-0.7,0-1.3-0.5-1.3-1.2S631.6,1033.9,632.3,1033.9"/>
	<path class="st1" d="M637.9,1033.9c0.7,0,1.3,0.5,1.3,1.2s-0.6,1.2-1.3,1.2c-0.7,0-1.3-0.5-1.3-1.2S637.1,1033.9,637.9,1033.9"/>
	<path class="st1" d="M646.1,1023.3c3.6,0,6.5,2.6,6.5,5.8c0,3.2-2.9,5.8-6.5,5.8s-6.5-2.6-6.5-5.8
		C639.6,1025.9,642.5,1023.3,646.1,1023.3"/>
	<polygon class="st14" points="645.3,1026.2 646.8,1026.2 646.8,1028.4 649.8,1028.4 649.8,1029.7 646.8,1029.7 646.8,1032.2 
		645.3,1032.2 645.3,1029.7 642.4,1029.7 642.4,1028.4 645.3,1028.4 	"/>
	<path class="st1" d="M562.1,1046.4h10.8c0.4,0,0.8,0.3,0.8,0.7c0,0.4-0.4,0.7-0.8,0.7h-10.8c-0.4,0-0.8-0.3-0.8-0.7
		C561.3,1046.7,561.6,1046.4,562.1,1046.4"/>
	<path class="st1" d="M583.5,1046.9L583.5,1046.9c0.5,0,0.9,0.4,0.9,0.8v34.3h53.6c0.5,0,0.8,0.3,0.8,0.8v0c0,0.4-0.4,0.8-0.8,0.8
		h-54.6c-0.5,0-0.8-0.3-0.8-0.8v0c0,0,0,0,0,0c0,0,0,0,0,0v-35C582.6,1047.3,583,1046.9,583.5,1046.9"/>
	<path class="st1" d="M562.1,1048.8h8.9c0.4,0,0.8,0.3,0.8,0.7s-0.4,0.7-0.8,0.7h-8.9c-0.4,0-0.8-0.3-0.8-0.7
		S561.6,1048.8,562.1,1048.8"/>
	<path class="st1" d="M562.1,1055.3h10.8c0.4,0,0.8,0.3,0.8,0.7s-0.4,0.7-0.8,0.7h-10.8c-0.4,0-0.8-0.3-0.8-0.7
		S561.6,1055.3,562.1,1055.3"/>
	<path class="st1" d="M562.1,1057.7h8.9c0.4,0,0.8,0.3,0.8,0.7c0,0.4-0.4,0.7-0.8,0.7h-8.9c-0.4,0-0.8-0.3-0.8-0.7
		C561.3,1058,561.6,1057.7,562.1,1057.7"/>
	<path class="st1" d="M562.1,1064.6h10.8c0.4,0,0.8,0.3,0.8,0.7s-0.4,0.7-0.8,0.7h-10.8c-0.4,0-0.8-0.3-0.8-0.7
		S561.6,1064.6,562.1,1064.6"/>
	<path class="st1" d="M562.1,1066.9h8.9c0.4,0,0.8,0.3,0.8,0.7s-0.4,0.7-0.8,0.7h-8.9c-0.4,0-0.8-0.3-0.8-0.7
		S561.6,1066.9,562.1,1066.9"/>
	<path class="st1" d="M562.1,1073.8h10.8c0.4,0,0.8,0.3,0.8,0.7c0,0.4-0.4,0.7-0.8,0.7h-10.8c-0.4,0-0.8-0.3-0.8-0.7
		C561.3,1074.1,561.6,1073.8,562.1,1073.8"/>
	<path class="st1" d="M562.1,1076.2h8.9c0.4,0,0.8,0.3,0.8,0.7c0,0.4-0.4,0.7-0.8,0.7h-8.9c-0.4,0-0.8-0.3-0.8-0.7
		C561.3,1076.5,561.6,1076.2,562.1,1076.2"/>
	<path class="st1" d="M589.9,1064.3h2.7c0.5,0,0.9,0.4,0.9,0.8v13.6c0,0.4-0.4,0.8-0.9,0.8h-2.7c-0.5,0-0.9-0.4-0.9-0.8v-13.6
		C589,1064.6,589.4,1064.3,589.9,1064.3"/>
	<path class="st1" d="M597.1,1069.1h2.7c0.5,0,0.9,0.4,0.9,0.8v8.7c0,0.4-0.4,0.8-0.9,0.8h-2.7c-0.5,0-0.9-0.4-0.9-0.8v-8.7
		C596.3,1069.5,596.7,1069.1,597.1,1069.1"/>
	<path class="st1" d="M604.4,1054.7h2.7c0.5,0,0.9,0.4,0.9,0.8v23.2c0,0.4-0.4,0.8-0.9,0.8h-2.7c-0.5,0-0.9-0.4-0.9-0.8v-23.2
		C603.5,1055.1,603.9,1054.7,604.4,1054.7"/>
	<path class="st1" d="M612,1050.4h2.7c0.5,0,0.9,0.4,0.9,0.8v27.5c0,0.4-0.4,0.8-0.9,0.8H612c-0.5,0-0.9-0.4-0.9-0.8v-27.5
		C611.1,1050.8,611.5,1050.4,612,1050.4"/>
	<path class="st1" d="M619.6,1058.1h2.7c0.5,0,0.9,0.4,0.9,0.8v19.8c0,0.4-0.4,0.8-0.9,0.8h-2.7c-0.5,0-0.9-0.4-0.9-0.8v-19.8
		C618.8,1058.4,619.2,1058.1,619.6,1058.1"/>
	<path class="st1" d="M627.1,1069.1h2.7c0.5,0,0.9,0.4,0.9,0.8v8.7c0,0.4-0.4,0.8-0.9,0.8h-2.7c-0.5,0-0.9-0.4-0.9-0.8v-8.7
		C626.3,1069.5,626.7,1069.1,627.1,1069.1"/>
	<path class="st1" d="M633.2,1124.1c0.6,0.5,0.6,1.4,0.1,1.9c-0.6,0.6-1.6,0.6-2.2,0.1c-0.6-0.5-0.6-1.4-0.1-1.9
		C631.6,1123.6,632.6,1123.6,633.2,1124.1"/>
	<path class="st1" d="M674.3,1128.1h12.1c0.5,0,0.9,0.4,0.9,0.8v7.4c0,0.5-0.4,0.8-0.9,0.8h-12.1c-0.5,0-0.9-0.4-0.9-0.8v-7.4
		C673.3,1128.5,673.7,1128.1,674.3,1128.1"/>
	<path class="st1" d="M679.5,1131.7h6.1c0.5,0,1,0.4,1,0.9v0c0,0.5-0.4,0.9-1,0.9h-6.1c-0.5,0-1-0.4-1-0.9v0
		C678.5,1132.1,678.9,1131.7,679.5,1131.7"/>
	<path class="st1" d="M671.8,1041.2c2.1,0,3.7,1.5,3.7,3.4c0,1.9-1.7,3.4-3.7,3.4c-2.1,0-3.7-1.5-3.7-3.4
		C668.1,1042.7,669.8,1041.2,671.8,1041.2"/>
	<path class="st1" d="M711.6,1138.6c0.8-0.1,1.6,0.5,1.6,1.3c0.1,0.8-0.6,1.4-1.4,1.5c-0.8,0.1-1.6-0.5-1.6-1.3
		C710.2,1139.3,710.8,1138.6,711.6,1138.6"/>
	<path class="st15" d="M458.7,993c9.6,0,17.5,7,17.5,15.7c0,8.7-7.8,15.7-17.5,15.7c-9.6,0-17.5-7-17.5-15.7
		C441.2,1000.1,449,993,458.7,993"/>
	<path class="st16" d="M459.4,1010v4.7c0.8-0.1,1.4-0.4,1.9-0.9c0.4-0.4,0.7-1,0.7-1.5c0-0.6-0.2-1.1-0.6-1.5
		C460.9,1010.5,460.2,1010.3,459.4,1010 M457.9,1006.8v-4.1c-0.7,0.2-1.2,0.4-1.6,0.7c-0.4,0.3-0.6,0.7-0.6,1.3c0,0.6,0.2,1,0.5,1.3
		C456.6,1006.3,457.1,1006.6,457.9,1006.8z M459.4,999.4v1.2c0.9,0.1,1.6,0.2,2.2,0.5c0.6,0.2,1.1,0.6,1.6,1.1
		c0.4,0.4,0.6,0.7,0.8,1.1c0.2,0.4,0.3,0.7,0.3,1.1c0,0.4-0.1,0.7-0.4,0.9c-0.3,0.3-0.6,0.4-1.1,0.4c-0.8,0-1.3-0.4-1.5-1.1
		c-0.3-0.9-0.9-1.5-1.9-1.8v4.5c1,0.2,1.8,0.5,2.4,0.7c0.6,0.2,1.1,0.5,1.6,0.9c0.5,0.4,0.9,0.9,1.2,1.4c0.3,0.6,0.4,1.2,0.4,1.8
		c0,0.8-0.2,1.6-0.6,2.3c-0.4,0.7-1.1,1.3-1.9,1.8c-0.8,0.5-1.8,0.7-3,0.8v2.7c0,0.4,0,0.7-0.1,0.9c-0.1,0.2-0.3,0.3-0.6,0.3
		c-0.3,0-0.5-0.1-0.6-0.2c-0.1-0.2-0.2-0.4-0.2-0.7v-2.9c-0.9-0.1-1.8-0.3-2.5-0.6c-0.7-0.3-1.3-0.7-1.8-1.1c-0.5-0.5-0.8-0.9-1-1.4
		c-0.2-0.5-0.3-1-0.3-1.4c0-0.3,0.1-0.7,0.5-0.9c0.3-0.3,0.7-0.4,1.1-0.4c0.4,0,0.7,0.1,0.9,0.2c0.2,0.2,0.4,0.4,0.5,0.6
		c0.2,0.6,0.4,1,0.6,1.4c0.2,0.3,0.4,0.6,0.7,0.9c0.3,0.3,0.8,0.5,1.3,0.6v-5c-1.1-0.3-2-0.6-2.7-0.9c-0.7-0.3-1.3-0.8-1.8-1.4
		c-0.4-0.6-0.7-1.4-0.7-2.3c0-1.2,0.4-2.3,1.3-3c0.9-0.8,2.1-1.3,3.8-1.4v-1.1c0-0.6,0.3-0.9,0.8-0.9
		C459.1,998.5,459.4,998.8,459.4,999.4z"/>
	<path class="st17" d="M460,1146h197.2c1.2,0,2.1,0.8,2.1,1.9v4.2c0,1-0.9,1.9-2.1,1.9H460c-1.2,0-2.1-0.8-2.1-1.9v-4.2
		C457.9,1146.8,458.9,1146,460,1146"/>
	<path class="st6" d="M467.6,1146h121.9c1.2,0,2.1,0.8,2.1,1.9v4.2c0,1-0.9,1.9-2.1,1.9H467.6c-1.2,0-2.1-0.8-2.1-1.9v-4.2
		C465.5,1146.8,466.4,1146,467.6,1146"/>
	<path class="st18" d="M576.8,1143.3h6.6c0.8,0,1.5,0.6,1.5,1.3c0,0.7-0.7,1.3-1.5,1.3h-6.6c-0.8,0-1.5-0.6-1.5-1.3
		C575.3,1143.9,576,1143.3,576.8,1143.3"/>
	<path class="st18" d="M610.3,1143.3h6.6c0.8,0,1.5,0.6,1.5,1.3c0,0.7-0.7,1.3-1.5,1.3h-6.6c-0.8,0-1.5-0.6-1.5-1.3
		C608.8,1143.9,609.5,1143.3,610.3,1143.3"/>
	<path class="st18" d="M581.8,1125.8H612c2.7,0,5,2,5,4.5v0c0,2.5-2.2,4.5-5,4.5h-30.2c-2.7,0-5-2-5-4.5v0
		C576.8,1127.9,579.1,1125.8,581.8,1125.8"/>
	<path class="st8" d="M479.7,1140.2H520c1.6,0,2.8,1.1,2.8,2.5v0.7c0,1.4-1.3,2.5-2.8,2.5h-40.3c-1.6,0-2.8-1.1-2.8-2.5v-0.7
		C476.9,1141.3,478.2,1140.2,479.7,1140.2"/>
	<path class="st9" d="M495.7,1140.2H520c1.6,0,2.8,1.1,2.8,2.5v0.7c0,1.4-1.3,2.5-2.8,2.5h-24.3c-1.6,0-2.8-1.1-2.8-2.5v-0.7
		C492.9,1141.3,494.1,1140.2,495.7,1140.2"/>
	<path class="st1" d="M510.8,1110.4h54.1c1,0,1.7,0.8,1.5,1.7l-7.4,30.7c-0.2,0.9-1.3,1.7-2.3,1.7h-54.1c-1,0-1.7-0.8-1.5-1.7
		l7.4-30.7C508.7,1111.2,509.7,1110.4,510.8,1110.4"/>
	<path class="st19" d="M530.4,1146h65.1c1.2,0,2.1,0.8,2.1,1.9v4.2c0,1-0.9,1.9-2.1,1.9h-65.1c-1.2,0-2.1-0.8-2.1-1.9v-4.2
		C528.3,1146.8,529.2,1146,530.4,1146"/>
	<path class="st20" d="M512.2,1111.9h54.1c1,0,1.7,0.8,1.5,1.7l-7.4,30.7c-0.2,0.9-1.3,1.7-2.3,1.7H504c-1,0-1.7-0.8-1.5-1.7
		l7.4-30.7C510.2,1112.6,511.2,1111.9,512.2,1111.9"/>
	<path class="st1" d="M536.9,1124.8c2.5,0,4.2,1.8,3.7,4.1s-2.8,4.1-5.3,4.1s-4.2-1.8-3.7-4.1C532,1126.6,534.4,1124.8,536.9,1124.8
		"/>
	<path class="st8" d="M502.6,1145.3c0.3,0.4,0.8,0.7,1.3,0.7c0,0,18,0,54.1,0c1.1,0,2-0.7,2.3-1.7c0,0,2.4-10,7.3-30
		C552.5,1133.1,528.5,1144.5,502.6,1145.3"/>
	<path class="st21" d="M572.8,1131.2h47.5c1,0,1.9,0.8,1.9,1.7v9.1c0,0.9-0.8,1.7-1.9,1.7h-47.5c-1,0-1.9-0.8-1.9-1.7v-9.1
		C570.9,1132,571.8,1131.2,572.8,1131.2"/>
	<path class="st22" d="M577.7,1133.9h38.4c1,0,1.9,0.8,1.9,1.7v3.3c0,0.9-0.8,1.7-1.9,1.7h-38.4c-1,0-1.9-0.8-1.9-1.7v-3.3
		C575.8,1134.6,576.6,1133.9,577.7,1133.9"/>
	<rect x="580.8" y="1136" class="st1" width="5.5" height="2.2"/>
	<rect x="588.9" y="1136" class="st1" width="3.8" height="2.2"/>
	<path class="st1" d="M480.9,1142.5h1.8c0.5,0,0.8,0.3,0.8,0.7v0c0,0.4-0.4,0.7-0.8,0.7h-1.8c-0.5,0-0.8-0.3-0.8-0.7v0
		C480.1,1142.9,480.4,1142.5,480.9,1142.5"/>
	<path class="st1" d="M485.3,1142.5h1.8c0.5,0,0.8,0.3,0.8,0.7v0c0,0.4-0.4,0.7-0.8,0.7h-1.8c-0.5,0-0.8-0.3-0.8-0.7v0
		C484.5,1142.9,484.9,1142.5,485.3,1142.5"/>
	<path class="st1" d="M582.6,1138.1c0.6,0,1.7-0.1,1.7-0.1c-0.7,10.8-10.5,16.8-33.2,16.3l-57,0.1c-5.7,0-8.6-3.9-8.9-10.4
		c0.4-0.2,1.7-0.4,2.2,0c0.4,5.6,1.9,8.5,6.8,8.7c0,0,19,0,56.9,0.1C571.2,1153.1,581.7,1148.2,582.6,1138.1"/>
	<path class="st15" d="M724.9,1055.1c5.2,0,9.4,3.8,9.4,8.4c0,4.7-4.2,8.4-9.4,8.4c-5.2,0-9.4-3.8-9.4-8.4
		C715.5,1058.9,719.7,1055.1,724.9,1055.1"/>
	<path class="st16" d="M727.4,1060.7l-4.7,6.8c-0.1,0.2-0.3,0.3-0.4,0.3c-0.1,0-0.2,0-0.3-0.1c-0.1-0.1-0.1-0.1-0.1-0.2
		c0-0.1,0-0.2,0.1-0.3l4.7-6.8c0.1-0.1,0.2-0.2,0.2-0.3c0.1-0.1,0.1-0.1,0.3-0.1c0.1,0,0.2,0,0.3,0.1c0.1,0.1,0.1,0.1,0.1,0.2
		C727.6,1060.4,727.5,1060.5,727.4,1060.7 M728.4,1065.6c0-0.4-0.1-0.8-0.2-1c-0.1-0.2-0.3-0.3-0.6-0.3c-0.2,0-0.3,0-0.4,0.1
		c-0.1,0.1-0.2,0.2-0.2,0.4c0,0.2-0.1,0.4-0.1,0.7c0,0.5,0.1,0.8,0.2,1c0.1,0.2,0.3,0.3,0.6,0.3c0.3,0,0.5-0.1,0.6-0.3
		S728.4,1066,728.4,1065.6z M729.4,1065.6c0,0.6-0.2,1.1-0.5,1.4c-0.3,0.3-0.7,0.5-1.3,0.5c-0.3,0-0.6-0.1-0.9-0.2
		c-0.3-0.1-0.5-0.3-0.6-0.6c-0.2-0.3-0.2-0.6-0.2-1c0-0.7,0.1-1.1,0.4-1.5c0.3-0.3,0.7-0.5,1.3-0.5c0.3,0,0.5,0,0.8,0.1
		c0.2,0.1,0.4,0.2,0.6,0.4c0.2,0.2,0.3,0.4,0.3,0.6C729.4,1065,729.4,1065.3,729.4,1065.6z M722.6,1061.9c0-0.4-0.1-0.8-0.2-1
		c-0.1-0.2-0.3-0.3-0.6-0.3c-0.2,0-0.3,0-0.4,0.1c-0.1,0.1-0.2,0.2-0.2,0.4c0,0.2-0.1,0.4-0.1,0.7c0,0.3,0,0.5,0.1,0.7
		c0,0.2,0.1,0.3,0.2,0.4c0.1,0.1,0.2,0.1,0.4,0.1c0.3,0,0.5-0.1,0.6-0.3C722.6,1062.7,722.6,1062.4,722.6,1061.9z M723.7,1062
		c0,0.6-0.2,1.1-0.5,1.4c-0.3,0.3-0.7,0.5-1.3,0.5c-0.3,0-0.6-0.1-0.9-0.2c-0.3-0.1-0.5-0.3-0.6-0.6c-0.1-0.3-0.2-0.6-0.2-1
		c0-0.4,0.1-0.8,0.2-1.1c0.1-0.3,0.3-0.5,0.6-0.7c0.3-0.2,0.6-0.2,1-0.2c0.3,0,0.5,0,0.8,0.1c0.2,0.1,0.4,0.2,0.6,0.4
		c0.2,0.2,0.3,0.4,0.3,0.6C723.6,1061.4,723.7,1061.6,723.7,1062z"/>
	<path class="st23" d="M742.3,1185.7c-1.4,2.6-1.9,2.6-1.7,0c2.2-13.7-3.8-27.5-15.8-36.2c-0.3-0.3-0.2-0.7,0-0.9
		c0.3-0.3,0.7-0.3,1-0.1C738.6,1157.1,745,1171.5,742.3,1185.7"/>
	<path class="st19" d="M753,1185.7c-3.6,0-7.1,0-10.7,0c-3.6,0-7.1,0-10.7,0c-2.6,0-4.4,1.5-4,3.4c0.6,2.7,1.1,5.4,1.7,8.1
		c0.6,2.7,1.1,5.4,1.7,8.1c0.4,1.9,2.2,3.4,4,3.4c2.5,0,5,0,7.4,0c2.5,0,5,0,7.4,0c1.8,0,3.6-1.5,4-3.4c0.6-2.7,1.1-5.4,1.7-8.1
		c0.6-2.7,1.1-5.4,1.7-8.1C757.4,1187.2,755.6,1185.7,753,1185.7"/>
	<path class="st24" d="M727.4,1138.1c-0.9,0.2-1.1,3.3-0.3,7c0.8,3.7,2.1,6.6,3.1,6.5c0.9-0.2,1.1-3.3,0.3-7
		C729.7,1140.8,728.3,1137.9,727.4,1138.1"/>
	<path class="st24" d="M714.1,1148.7c-0.3,0.8,2.7,2.5,6.6,3.7c4,1.2,7.5,1.6,7.8,0.8c0.3-0.8-2.7-2.5-6.6-3.7
		S714.4,1147.9,714.1,1148.7"/>
	<path class="st24" d="M733.7,1140.1c-1,0-1.6,3.4-1.4,7.5c0.2,4.1,1.1,7.4,2,7.3c1,0,1.6-3.4,1.4-7.5
		C735.6,1143.4,734.7,1140.1,733.7,1140.1"/>
	<path class="st24" d="M715.1,1154.8c-0.1,0.9,3.5,2,8,2.5c4.5,0.5,8.3,0.3,8.4-0.6c0.1-0.9-3.5-2-8-2.5
		C719,1153.7,715.3,1153.9,715.1,1154.8"/>
	<path class="st24" d="M740.9,1142.2c-0.9-0.1-2.5,3.4-3.4,7.9c-0.9,4.5-0.9,8.3,0,8.4c0.9,0.1,2.5-3.4,3.4-7.9
		C741.9,1146.1,741.8,1142.4,740.9,1142.2"/>
	<path class="st24" d="M715.8,1160.1c0,0.9,4.1,1.6,9.2,1.7c5.1,0.1,9.2-0.6,9.2-1.4c0-0.9-4.1-1.6-9.2-1.7
		C719.9,1158.5,715.8,1159.2,715.8,1160.1"/>
	<path class="st24" d="M746.3,1146.6c-0.9-0.3-3.1,2.9-5,7.2c-1.9,4.3-2.7,8-1.8,8.3c0.9,0.3,3.1-2.9,5-7.2
		C746.4,1150.6,747.2,1146.9,746.3,1146.6"/>
	<path class="st24" d="M736.3,1164c0-0.9-4.2-1.4-9.3-1.3c-5.1,0.2-9.2,1-9.1,1.8c0,0.9,4.2,1.4,9.3,1.3
		C732.2,1165.6,736.3,1164.8,736.3,1164"/>
	<path class="st24" d="M752.1,1151.8c-0.8-0.5-3.9,2-7.1,5.6c-3.1,3.6-5.1,7-4.3,7.5c0.8,0.5,3.9-2,7.1-5.6
		C750.9,1155.7,752.8,1152.3,752.1,1151.8"/>
	<path class="st24" d="M737.5,1167.3c-0.1-0.9-4.3-1.2-9.4-0.8c-5.1,0.4-9.1,1.5-9,2.3c0.1,0.9,4.3,1.2,9.4,0.8
		C733.5,1169.2,737.6,1168.1,737.5,1167.3"/>
	<path class="st24" d="M755.2,1156.5c-0.7-0.6-4.1,1.6-7.7,4.9c-3.5,3.3-5.9,6.4-5.2,7c0.7,0.6,4.1-1.6,7.7-4.9
		C753.5,1160.3,755.9,1157.1,755.2,1156.5"/>
	<path class="st24" d="M738.7,1169.8c-0.3-0.8-4.5-0.5-9.4,0.7c-4.9,1.2-8.7,2.8-8.4,3.6c0.3,0.8,4.5,0.5,9.4-0.7
		C735.2,1172.3,738.9,1170.6,738.7,1169.8"/>
	<path class="st6" d="M738.1,1188.1c-1.1,0-2.1,0-3.2,0c-1.1,0-2.1,0-3.2,0c-1.2,0-2,1.1-1.7,2.5c0.4,2.2,0.9,4.4,1.3,6.6
		c0.4,2.2,0.9,4.4,1.3,6.6c0.3,1.4,1.2,2.5,2,2.5c0.7,0,1.4,0,2.2,0c0.7,0,1.4,0,2.2,0c0.8,0,1.5-1.1,1.5-2.5c0-2.2,0-4.4,0-6.6
		c0-2.2,0-4.4,0-6.6C740.3,1189.2,739.3,1188.1,738.1,1188.1"/>
	<path class="st1" d="M442.2,1073.6c-2.4,6.6-9.2,6.9-20.3,1.1c-1.3,0.7-1.9,1-1.9,1c16.4,12,24.5,11.5,24.1-1.5
		C442.8,1073.8,442.2,1073.6,442.2,1073.6"/>
	<path class="st1" d="M438.5,1046.8c0.4,0,0.8,0.2,0.8,0.6c0,0.4-0.3,0.7-0.7,0.8c-0.4,0-0.8-0.2-0.8-0.6
		C437.8,1047.1,438.1,1046.8,438.5,1046.8"/>
	<path class="st1" d="M472.2,1093c0.2-0.8,1-1.3,1.9-1.1c0.9,0.2,1.4,0.9,1.2,1.7c-0.2,0.8-1,1.3-1.9,1.1
		C472.6,1094.5,472,1093.8,472.2,1093"/>
	<path class="st1" d="M402.5,1124.5c0.9,0,1.6,0.6,1.6,1.4c0,0.8-0.7,1.4-1.6,1.4c-0.9,0-1.6-0.6-1.6-1.4
		C400.9,1125.2,401.6,1124.5,402.5,1124.5"/>
	<path class="st1" d="M431.1,1117.3c0.6,0,1.1,0.4,1.1,1c0,0.5-0.5,1-1.1,1s-1.1-0.4-1.1-1C430,1117.7,430.5,1117.3,431.1,1117.3"/>
	<path class="st23" d="M375.6,1184.2c1.4,2.6,1.9,2.6,1.7,0c-2.2-13.7,3.8-27.5,15.8-36.2c0.3-0.3,0.2-0.7,0-0.9
		c-0.3-0.3-0.7-0.3-1-0.1C379.2,1155.6,372.8,1170,375.6,1184.2"/>
	<path class="st19" d="M364.9,1184.2c3.6,0,7.1,0,10.7,0s7.1,0,10.7,0c2.6,0,4.4,1.5,4,3.4c-0.6,2.7-1.1,5.4-1.7,8.1
		c-0.6,2.7-1.1,5.4-1.7,8.1c-0.4,1.9-2.2,3.4-4,3.4c-2.5,0-5,0-7.4,0c-2.5,0-5,0-7.4,0c-1.8,0-3.6-1.5-4-3.4
		c-0.6-2.7-1.1-5.4-1.7-8.1c-0.6-2.7-1.1-5.4-1.7-8.1C360.5,1185.8,362.3,1184.2,364.9,1184.2"/>
	<path class="st24" d="M390.4,1136.6c0.9,0.2,1.1,3.3,0.3,7c-0.8,3.7-2.1,6.6-3.1,6.5c-0.9-0.2-1.1-3.3-0.3-7
		S389.5,1136.4,390.4,1136.6"/>
	<path class="st24" d="M403.7,1147.2c0.3,0.8-2.7,2.5-6.6,3.7c-4,1.2-7.5,1.6-7.8,0.8c-0.3-0.8,2.7-2.5,6.6-3.7
		C399.9,1146.8,403.4,1146.4,403.7,1147.2"/>
	<path class="st24" d="M384.1,1138.6c1,0,1.6,3.4,1.4,7.5c-0.2,4.1-1.1,7.4-2,7.3c-1,0-1.6-3.4-1.4-7.5
		C382.3,1141.9,383.2,1138.6,384.1,1138.6"/>
	<path class="st24" d="M402.7,1153.3c0.1,0.9-3.5,2-8,2.5c-4.5,0.5-8.3,0.3-8.4-0.6c-0.1-0.9,3.5-2,8-2.5
		C398.8,1152.2,402.6,1152.4,402.7,1153.3"/>
	<path class="st24" d="M376.9,1140.7c0.9-0.1,2.5,3.4,3.4,7.9c0.9,4.5,0.9,8.3,0,8.4c-0.9,0.1-2.5-3.4-3.4-7.9
		C376,1144.7,376,1140.9,376.9,1140.7"/>
	<path class="st24" d="M402,1158.6c0,0.9-4.1,1.6-9.2,1.7c-5.1,0.1-9.2-0.6-9.2-1.4c0-0.9,4.1-1.6,9.2-1.7
		C397.9,1157.1,402,1157.7,402,1158.6"/>
	<path class="st24" d="M371.6,1145.1c0.9-0.3,3.1,2.9,5,7.2c1.9,4.3,2.7,8,1.8,8.3c-0.9,0.3-3.1-2.9-5-7.2
		C371.5,1149.1,370.7,1145.4,371.6,1145.1"/>
	<path class="st24" d="M381.6,1162.5c0-0.9,4.2-1.4,9.3-1.3c5.1,0.2,9.2,1,9.1,1.8c0,0.9-4.2,1.4-9.3,1.3
		C385.6,1164.2,381.5,1163.3,381.6,1162.5"/>
	<path class="st24" d="M365.8,1150.3c0.8-0.5,3.9,2,7.1,5.6c3.1,3.6,5.1,7,4.3,7.5c-0.8,0.5-3.9-2-7.1-5.6
		C366.9,1154.2,365,1150.9,365.8,1150.3"/>
	<path class="st24" d="M380.4,1165.8c0.1-0.9,4.3-1.2,9.4-0.8c5.1,0.4,9.1,1.5,9,2.3c-0.1,0.9-4.3,1.2-9.4,0.8
		C384.3,1167.7,380.3,1166.6,380.4,1165.8"/>
	<path class="st24" d="M362.7,1155.1c0.7-0.6,4.1,1.6,7.7,4.9c3.5,3.3,5.9,6.4,5.2,7c-0.7,0.6-4.1-1.6-7.7-4.9
		C364.3,1158.8,362,1155.6,362.7,1155.1"/>
	<path class="st24" d="M379.2,1168.3c0.3-0.8,4.5-0.5,9.4,0.7c4.9,1.2,8.7,2.8,8.4,3.6c-0.3,0.8-4.5,0.5-9.4-0.7
		C382.7,1170.8,378.9,1169.2,379.2,1168.3"/>
	<path class="st6" d="M379.8,1186.6c1.1,0,2.1,0,3.2,0c1.1,0,2.1,0,3.2,0c1.2,0,2,1.1,1.7,2.5c-0.4,2.2-0.9,4.4-1.3,6.6
		c-0.4,2.2-0.9,4.4-1.3,6.6c-0.3,1.4-1.2,2.5-2,2.5c-0.7,0-1.4,0-2.2,0c-0.7,0-1.4,0-2.2,0c-0.8,0-1.5-1.1-1.5-2.5
		c0-2.2,0-4.4,0-6.6c0-2.2,0-4.4,0-6.6C377.5,1187.7,378.5,1186.6,379.8,1186.6"/>
	<path class="st1" d="M510.2,1193.4c2.9,0,5.2,2.1,5.2,4.7s-2.3,4.7-5.2,4.7c-2.9,0-5.2-2.1-5.2-4.7S507.3,1193.4,510.2,1193.4"/>
	<path class="st1" d="M534.4,1186.7c1.7,0,3.1,1.2,3.1,2.8s-1.4,2.8-3.1,2.8c-1.7,0-3.1-1.2-3.1-2.8S532.7,1186.7,534.4,1186.7"/>
	<path class="st1" d="M518.7,1179.7c1.3,0,2.4,1,2.4,2.1c0,1.2-1.1,2.1-2.4,2.1c-1.3,0-2.4-1-2.4-2.1
		C516.3,1180.7,517.4,1179.7,518.7,1179.7"/>
	<path class="st1" d="M502.9,1177.2c0.8,0,1.5,0.6,1.5,1.4c0,0.8-0.7,1.4-1.5,1.4c-0.8,0-1.5-0.6-1.5-1.4
		C501.4,1177.8,502.1,1177.2,502.9,1177.2"/>
	<path class="st1" d="M488.1,1194.6c1.3,0,2.4,1,2.4,2.1s-1.1,2.1-2.4,2.1s-2.4-1-2.4-2.1S486.8,1194.6,488.1,1194.6"/>
	<path class="st1" d="M564.8,1202.7c1.3,0,2.4,1,2.4,2.1c0,1.2-1.1,2.1-2.4,2.1c-1.3,0-2.4-1-2.4-2.1
		C562.4,1203.7,563.5,1202.7,564.8,1202.7"/>
	<path class="st1" d="M529.1,1210.8c1.1,0,2,0.8,2,1.8s-0.9,1.8-2,1.8s-2-0.8-2-1.8S528,1210.8,529.1,1210.8"/>
	<path class="st1" d="M561.5,1186.6c1.3,0,2.4,1,2.4,2.2c0,1.2-1.1,2.2-2.4,2.2c-1.3,0-2.4-1-2.4-2.2
		C559.1,1187.6,560.2,1186.6,561.5,1186.6"/>
	<path class="st1" d="M586.8,1190.4c0.9,0,1.7,0.7,1.7,1.5c0,0.8-0.8,1.5-1.7,1.5c-0.9,0-1.7-0.7-1.7-1.5
		C585.1,1191,585.9,1190.4,586.8,1190.4"/>
	<path class="st1" d="M578.6,1181c0.8,0,1.4,0.6,1.4,1.3c0,0.7-0.6,1.3-1.4,1.3c-0.8,0-1.4-0.6-1.4-1.3
		C577.2,1181.6,577.8,1181,578.6,1181"/>
	<path class="st1" d="M612.5,1202c0.8,0,1.4,0.6,1.4,1.3c0,0.7-0.6,1.3-1.4,1.3c-0.8,0-1.4-0.6-1.4-1.3
		C611.1,1202.5,611.7,1202,612.5,1202"/>
	<path class="st1" d="M622.9,1199.2c0.7,0,1.2,0.5,1.2,1.1s-0.5,1.1-1.2,1.1s-1.2-0.5-1.2-1.1S622.3,1199.2,622.9,1199.2"/>
	<path class="st1" d="M633.3,1197.6c0.5,0,0.9,0.4,0.9,0.8c0,0.5-0.4,0.8-0.9,0.8c-0.5,0-0.9-0.4-0.9-0.8
		C632.4,1198,632.8,1197.6,633.3,1197.6"/>
	<path class="st1" d="M677.2,995.4c5.2,0,9.4,3.8,9.4,8.5c0,4.7-4.2,8.5-9.4,8.5c-5.2,0-9.4-3.8-9.4-8.5
		C667.8,999.2,672,995.4,677.2,995.4"/>
	<path class="st25" d="M677.2,1000.1c2.3,0,4.2,1.7,4.2,3.8s-1.9,3.8-4.2,3.8c-2.3,0-4.2-1.7-4.2-3.8S674.9,1000.1,677.2,1000.1"/>
	<rect x="674.3" y="991.7" class="st1" width="5.5" height="5.7"/>
	<rect x="674.3" y="1010.5" class="st1" width="5.5" height="5.7"/>
	<polygon class="st1" points="680.9,1010.9 685.3,1007.9 689.2,1012.4 684.8,1015.4 	"/>
	<polygon class="st1" points="673.3,1010.9 668.9,1007.9 665,1012.4 669.4,1015.4 	"/>
	<polygon class="st1" points="680.9,996.7 685.3,999.7 689.2,995.2 684.8,992.2 	"/>
	<polygon class="st1" points="673.3,996.7 668.9,999.7 665,995.2 669.4,992.2 	"/>
	<rect x="662.6" y="1000.9" class="st1" width="6.9" height="4.7"/>
	<rect x="685.6" y="1000.9" class="st1" width="6.9" height="4.7"/>
	<path class="st1" d="M697.2,987.9c2.6,0,4.7,1.9,4.7,4.2c0,2.3-2.1,4.2-4.7,4.2c-2.6,0-4.7-1.9-4.7-4.2
		C692.5,989.8,694.6,987.9,697.2,987.9"/>
	<path class="st25" d="M697.2,990.3c1.2,0,2.1,0.8,2.1,1.9c0,1-0.9,1.9-2.1,1.9c-1.2,0-2.1-0.8-2.1-1.9
		C695.1,991.1,696,990.3,697.2,990.3"/>
	<rect x="695.7" y="986.1" class="st1" width="2.8" height="2.9"/>
	<rect x="695.7" y="995.5" class="st1" width="2.8" height="2.9"/>
	<polygon class="st1" points="699,995.6 701.2,994.1 703.1,996.4 700.9,997.9 	"/>
	<polygon class="st1" points="695.2,995.6 693,994.1 691.1,996.4 693.3,997.9 	"/>
	<polygon class="st1" points="699,988.6 701.2,990.1 703.1,987.8 700.9,986.3 	"/>
	<polygon class="st1" points="695.2,988.6 693,990.1 691.1,987.8 693.3,986.3 	"/>
	<rect x="689.9" y="990.7" class="st1" width="3.4" height="2.3"/>
	<rect x="701.3" y="990.7" class="st1" width="3.4" height="2.3"/>
	<rect x="345.8" y="1075.9" class="st1" width="35.2" height="28.5"/>
	<rect x="349.7" y="1079" class="st25" width="27.5" height="22.2"/>
	<rect x="354.9" y="1083.1" class="st1" width="17" height="2.3"/>
	<rect x="354.9" y="1087.9" class="st1" width="17" height="2.3"/>
	<rect x="354.9" y="1093.1" class="st1" width="17" height="2.3"/>
	<rect x="330.7" y="1110.9" class="st1" width="21.2" height="17.1"/>
	<rect x="333" y="1112.7" class="st25" width="16.5" height="13.4"/>
	<rect x="336.1" y="1115.2" class="st1" width="10.2" height="1.4"/>
	<rect x="336.1" y="1118.1" class="st1" width="10.2" height="1.4"/>
	<rect x="336.1" y="1121.2" class="st1" width="10.2" height="1.4"/>
	<path class="st12" d="M719.4,1016.1h39.7c1,0,1.9,0.8,1.9,1.7v15.4c0,0.9-0.8,1.7-1.9,1.7h-36.5c0,0-3.8,2.3-11.5,6.9
		c0,0,2.1-3.4,6.4-10.1v-13.9C717.5,1016.8,718.3,1016.1,719.4,1016.1"/>
	<path class="st1" d="M730,1022.7c1.5,0,2.7,1.1,2.7,2.4c0,1.3-1.2,2.4-2.7,2.4c-1.5,0-2.7-1.1-2.7-2.4
		C727.3,1023.8,728.5,1022.7,730,1022.7"/>
	<path class="st1" d="M739.3,1022.7c1.5,0,2.7,1.1,2.7,2.4c0,1.3-1.2,2.4-2.7,2.4c-1.5,0-2.7-1.1-2.7-2.4
		C736.6,1023.8,737.8,1022.7,739.3,1022.7"/>
	<path class="st1" d="M748.1,1022.7c1.5,0,2.7,1.1,2.7,2.4c0,1.3-1.2,2.4-2.7,2.4c-1.5,0-2.7-1.1-2.7-2.4
		C745.4,1023.8,746.6,1022.7,748.1,1022.7"/>
	<path class="st9" d="M391.6,1031.3h-39.7c-1,0-1.9,0.8-1.9,1.7v15.4c0,0.9,0.8,1.7,1.9,1.7h36.5c0,0,3.8,2.3,11.5,6.9
		c0,0-2.1-3.4-6.4-10.1V1033C393.5,1032,392.6,1031.3,391.6,1031.3"/>
	<path class="st1" d="M380.9,1037.9c-1.5,0-2.7,1.1-2.7,2.4s1.2,2.4,2.7,2.4c1.5,0,2.7-1.1,2.7-2.4S382.4,1037.9,380.9,1037.9"/>
	<path class="st1" d="M371.6,1037.9c-1.5,0-2.7,1.1-2.7,2.4s1.2,2.4,2.7,2.4c1.5,0,2.7-1.1,2.7-2.4S373.1,1037.9,371.6,1037.9"/>
	<path class="st1" d="M362.8,1037.9c-1.5,0-2.7,1.1-2.7,2.4s1.2,2.4,2.7,2.4c1.5,0,2.7-1.1,2.7-2.4S364.3,1037.9,362.8,1037.9"/>
</g>
</svg>
