<?xml version="1.0" encoding="utf-8"?>
<!-- Generator: Adobe Illustrator 21.0.0, SVG Export Plug-In . SVG Version: 6.00 Build 0)  -->
<svg version="1.1" id="Layer_1" xmlns="http://www.w3.org/2000/svg" xmlns:xlink="http://www.w3.org/1999/xlink" x="0px" y="0px"
	 viewBox="0 0 2340 1560" style="enable-background:new 0 0 2340 1560;" xml:space="preserve">
<style type="text/css">
	.st0{fill-rule:evenodd;clip-rule:evenodd;fill:#C2DDF3;}
	.st1{fill-rule:evenodd;clip-rule:evenodd;fill:#FFFFFF;}
	.st2{fill-rule:evenodd;clip-rule:evenodd;fill:#FDF9FC;}
	.st3{fill-rule:evenodd;clip-rule:evenodd;fill:#84BDDD;}
	.st4{fill-rule:evenodd;clip-rule:evenodd;fill:#4E8DAA;}
	.st5{fill-rule:evenodd;clip-rule:evenodd;fill:#C3624B;}
	.st6{fill-rule:evenodd;clip-rule:evenodd;fill:#EB8970;}
	.st7{fill-rule:evenodd;clip-rule:evenodd;fill:#93C4DF;}
	.st8{fill-rule:evenodd;clip-rule:evenodd;fill:#C28ABD;}
	.st9{fill-rule:evenodd;clip-rule:evenodd;fill:#A858A2;}
	.st10{fill-rule:evenodd;clip-rule:evenodd;fill:#903895;}
	.st11{fill:#903895;}
	.st12{fill-rule:evenodd;clip-rule:evenodd;fill:#9C88C0;}
	.st13{fill-rule:evenodd;clip-rule:evenodd;fill:#7857A4;}
	.st14{fill-rule:evenodd;clip-rule:evenodd;fill:#6E3E98;}
	.st15{fill-rule:evenodd;clip-rule:evenodd;fill:#53BA65;}
	.st16{fill:#FFFFFF;}
	.st17{fill-rule:evenodd;clip-rule:evenodd;fill:#DB8169;}
	.st18{fill-rule:evenodd;clip-rule:evenodd;fill:#846FB2;}
	.st19{fill-rule:evenodd;clip-rule:evenodd;fill:#F8A38C;}
	.st20{fill-rule:evenodd;clip-rule:evenodd;fill:#CEABD1;}
	.st21{fill-rule:evenodd;clip-rule:evenodd;fill:#A492C5;}
	.st22{fill-rule:evenodd;clip-rule:evenodd;fill:#553E98;}
	.st23{fill-rule:evenodd;clip-rule:evenodd;fill:#34679A;}
	.st24{fill-rule:evenodd;clip-rule:evenodd;fill:#8584C0;}
	.st25{fill-rule:evenodd;clip-rule:evenodd;fill:#F8F2F8;}
</style>
<g>
	<path class="st0" d="M465.8,1182.6c885,7.2,1357.2,7.3,1416.8,0.3c149.9-279.9,152-420.3-52.2-499.4
		c-88.3-38.6-85.1-118.2-77-217.8c16.8-145.7-174.9-411.2-751.2-163.3C197.6,653.6,152.7,874.1,465.8,1182.6"/>
	<path class="st1" d="M841.1,721.5c59,0,106.9,44.7,106.9,99.9c0,55.2-47.9,99.9-106.9,99.9c-59,0-106.9-44.7-106.9-99.9
		C734.2,766.2,782.1,721.5,841.1,721.5"/>
	<path class="st2" d="M1103.3,468c59,0,106.9,44.7,106.9,99.9c0,55.2-47.9,99.9-106.9,99.9c-59,0-106.9-44.7-106.9-99.9
		C996.4,512.7,1044.2,468,1103.3,468"/>
	<path class="st2" d="M1276.4,420.3c25.8,0,46.7,19.5,46.7,43.6c0,24.1-20.9,43.6-46.7,43.6c-25.8,0-46.7-19.5-46.7-43.6
		C1229.8,439.8,1250.7,420.3,1276.4,420.3"/>
	<path class="st3" d="M537.4,1188.8c854.9,16.4,1282.3,24.6,1282.3,24.6c9.6-73.9-28.1-146.1-96.3-184.5
		c-68.2-38.4-154.2-35.7-219.6,6.8c4.8-142.9-97.6-269.6-246-304.3c-148.4-34.8-302.7,31.8-370.6,159.9
		c-92.3-65.7-221.7-60.4-307.5,12.6C493.8,976.9,476,1096.8,537.4,1188.8"/>
	<path class="st4" d="M659.8,1206.3c634.9,7.6,952.3,11.4,952.3,11.4c-24.2-87.5-116.3-143-211.6-127.4
		c-23.5-93-116-156.2-218-148.7c-102,7.4-183,83.2-190.7,178.5c-54.4-36.5-123.6-48-188.1-31.3
		C739.1,1105.6,686.2,1148.8,659.8,1206.3"/>
	<rect x="1414.8" y="1009.8" class="st5" width="28.1" height="208.4"/>
	<rect x="1405.3" y="1009.8" class="st6" width="21.5" height="208.4"/>
	<rect x="907.7" y="1009.8" class="st5" width="28.1" height="208.4"/>
	<rect x="898.2" y="1009.8" class="st6" width="21.5" height="208.4"/>
	<path class="st5" d="M879.1,987.5h592.8c5.1,0,9.2,3.9,9.2,8.6v15.3c0,4.7-4.1,8.6-9.2,8.6H879.1c-5.1,0-9.2-3.9-9.2-8.6v-15.3
		C869.9,991.4,874,987.5,879.1,987.5"/>
	<path class="st7" d="M881.5,512.6h604.4c8.4,0,15.3,6.4,15.3,14.3v301.5c0,7.9-6.9,14.3-15.3,14.3H881.5c-8.4,0-15.3-6.4-15.3-14.3
		V526.9C866.2,519,873.1,512.6,881.5,512.6"/>
	<rect x="914.6" y="600.1" class="st8" width="226.5" height="186.5"/>
	<rect x="914.6" y="600.1" class="st9" width="73.5" height="186.5"/>
	<rect x="914.6" y="581.3" class="st10" width="226.5" height="37.5"/>
	<path class="st1" d="M932.3,594.9h123.1c2.4,0,4.4,1.8,4.4,4.1v0c0,2.2-2,4.1-4.4,4.1H932.3c-2.4,0-4.4-1.8-4.4-4.1v0
		C927.9,596.7,929.9,594.9,932.3,594.9"/>
	<path class="st1" d="M1094.8,595.3c2.3,0,4.2,1.8,4.2,4c0,2.2-1.9,4-4.2,4c-2.3,0-4.2-1.8-4.2-4
		C1090.6,597.1,1092.5,595.3,1094.8,595.3"/>
	<path class="st1" d="M1109.3,595.3c2.3,0,4.2,1.8,4.2,4c0,2.2-1.9,4-4.2,4c-2.3,0-4.2-1.8-4.2-4
		C1105,597.1,1106.9,595.3,1109.3,595.3"/>
	<path class="st1" d="M1125.1,595.3c2.3,0,4.2,1.8,4.2,4c0,2.2-1.9,4-4.2,4c-2.3,0-4.2-1.8-4.2-4
		C1120.9,597.1,1122.8,595.3,1125.1,595.3"/>
	<rect x="926.8" y="630.6" class="st1" width="50.2" height="5.3"/>
	<rect x="926.8" y="639.2" class="st1" width="42.8" height="5.3"/>
	<rect x="926.8" y="647.8" class="st1" width="28.9" height="5.3"/>
	<rect x="926.8" y="669.6" class="st1" width="50.2" height="5.3"/>
	<rect x="926.8" y="678.2" class="st1" width="42.8" height="5.3"/>
	<rect x="926.8" y="686.9" class="st1" width="28.9" height="5.3"/>
	<rect x="926.8" y="710.7" class="st1" width="50.2" height="5.3"/>
	<rect x="926.8" y="719.4" class="st1" width="42.8" height="5.3"/>
	<rect x="926.8" y="728" class="st1" width="28.9" height="5.3"/>
	<rect x="926.8" y="747.5" class="st1" width="50.2" height="5.3"/>
	<rect x="926.8" y="756.1" class="st1" width="42.8" height="5.3"/>
	<rect x="926.8" y="764.7" class="st1" width="28.9" height="5.3"/>
	<rect x="1000.5" y="630.5" class="st1" width="26.3" height="24.5"/>
	<rect x="1031.9" y="632" class="st1" width="96.3" height="7.9"/>
	<rect x="1031.9" y="643.9" class="st1" width="83.1" height="7.9"/>
	<rect x="1000.5" y="669.8" class="st1" width="26.3" height="24.5"/>
	<rect x="1031.9" y="671.3" class="st1" width="47.2" height="7.9"/>
	<rect x="1031.9" y="683.2" class="st1" width="83.1" height="7.9"/>
	<rect x="1000.5" y="709.9" class="st1" width="26.3" height="24.5"/>
	<rect x="1031.9" y="711.4" class="st1" width="47.2" height="7.9"/>
	<rect x="1031.9" y="723.3" class="st1" width="18.8" height="7.9"/>
	<rect x="1000.5" y="747.1" class="st1" width="26.3" height="24.5"/>
	<rect x="1031.9" y="749.3" class="st1" width="80.2" height="7.9"/>
	<rect x="1031.9" y="760.7" class="st1" width="96.3" height="7.9"/>
	<path class="st1" d="M909,559.5c11.7,0,21.2,8.9,21.2,19.8c0,10.9-9.5,19.8-21.2,19.8s-21.2-8.9-21.2-19.8
		C887.8,568.3,897.3,559.5,909,559.5"/>
	<polygon class="st11" points="904.2,591.2 904.2,579.6 899.8,579.6 908.6,567.9 917.4,579.6 913,579.6 913,591.2 	"/>
	<path class="st1" d="M891.2,527.5h584.4c2.3,0,4.2,1.8,4.2,3.9v0c0,2.2-1.9,3.9-4.2,3.9H891.2c-2.3,0-4.2-1.8-4.2-3.9v0
		C887,529.3,888.9,527.5,891.2,527.5"/>
	<rect x="1185.7" y="589.8" class="st12" width="267.2" height="196.6"/>
	<rect x="1175" y="581.3" class="st13" width="52.5" height="205.1"/>
	<rect x="1175" y="581.3" class="st14" width="278" height="38.4"/>
	<path class="st1" d="M1196.7,594.9H1359c2.4,0,4.4,1.8,4.4,4.1v0c0,2.2-2,4.1-4.4,4.1h-162.3c-2.4,0-4.4-1.8-4.4-4.1v0
		C1192.3,596.7,1194.3,594.9,1196.7,594.9"/>
	<path class="st1" d="M1394.2,595.3c2.3,0,4.2,1.8,4.2,4c0,2.2-1.9,4-4.2,4s-4.2-1.8-4.2-4C1389.9,597.1,1391.8,595.3,1394.2,595.3"
		/>
	<path class="st1" d="M1411.8,595.3c2.3,0,4.2,1.8,4.2,4c0,2.2-1.9,4-4.2,4c-2.3,0-4.2-1.8-4.2-4
		C1407.6,597.1,1409.5,595.3,1411.8,595.3"/>
	<path class="st1" d="M1429.9,595.3c2.3,0,4.2,1.8,4.2,4c0,2.2-1.9,4-4.2,4s-4.2-1.8-4.2-4C1425.6,597.1,1427.5,595.3,1429.9,595.3"
		/>
	<path class="st1" d="M1456.6,559.5c11.7,0,21.2,8.9,21.2,19.8c0,10.9-9.5,19.8-21.2,19.8c-11.7,0-21.2-8.9-21.2-19.8
		C1435.4,568.3,1444.9,559.5,1456.6,559.5"/>
	<polygon class="st14" points="1454,569.3 1458.8,569.3 1458.8,576.8 1468.5,576.8 1468.5,581.1 1458.8,581.1 1458.8,589.6 
		1454,589.6 1454,581.1 1444.6,581.1 1444.6,576.8 1454,576.8 	"/>
	<path class="st1" d="M1183.7,637.5h35c1.4,0,2.6,1.1,2.6,2.4c0,1.3-1.1,2.4-2.6,2.4h-35c-1.4,0-2.6-1.1-2.6-2.4
		C1181.1,638.6,1182.3,637.5,1183.7,637.5"/>
	<path class="st1" d="M1253.4,639.1L1253.4,639.1c1.6,0,3,1.3,3,2.8V758h174.3c1.5,0,2.8,1.2,2.8,2.6v0c0,1.4-1.2,2.6-2.8,2.6
		h-177.5c-1.5,0-2.8-1.2-2.8-2.6v0c0-0.1,0-0.1,0-0.2c0-0.1,0-0.1,0-0.2V641.9C1250.4,640.4,1251.7,639.1,1253.4,639.1"/>
	<path class="st1" d="M1183.7,645.6h28.8c1.4,0,2.6,1.1,2.6,2.4c0,1.3-1.1,2.4-2.6,2.4h-28.8c-1.4,0-2.6-1.1-2.6-2.4
		C1181.1,646.6,1182.3,645.6,1183.7,645.6"/>
	<path class="st1" d="M1183.7,667.8h35c1.4,0,2.6,1.1,2.6,2.4c0,1.3-1.1,2.4-2.6,2.4h-35c-1.4,0-2.6-1.1-2.6-2.4
		C1181.1,668.8,1182.3,667.8,1183.7,667.8"/>
	<path class="st1" d="M1183.7,675.8h28.8c1.4,0,2.6,1.1,2.6,2.4c0,1.3-1.1,2.4-2.6,2.4h-28.8c-1.4,0-2.6-1.1-2.6-2.4
		C1181.1,676.9,1182.3,675.8,1183.7,675.8"/>
	<path class="st1" d="M1183.7,698.9h35c1.4,0,2.6,1.1,2.6,2.4c0,1.3-1.1,2.4-2.6,2.4h-35c-1.4,0-2.6-1.1-2.6-2.4
		C1181.1,700,1182.3,698.9,1183.7,698.9"/>
	<path class="st1" d="M1183.7,707h28.8c1.4,0,2.6,1.1,2.6,2.4c0,1.3-1.1,2.4-2.6,2.4h-28.8c-1.4,0-2.6-1.1-2.6-2.4
		C1181.1,708.1,1182.3,707,1183.7,707"/>
	<path class="st1" d="M1183.7,730.2h35c1.4,0,2.6,1.1,2.6,2.4c0,1.3-1.1,2.4-2.6,2.4h-35c-1.4,0-2.6-1.1-2.6-2.4
		C1181.1,731.3,1182.3,730.2,1183.7,730.2"/>
	<path class="st1" d="M1183.7,738.3h28.8c1.4,0,2.6,1.1,2.6,2.4c0,1.3-1.1,2.4-2.6,2.4h-28.8c-1.4,0-2.6-1.1-2.6-2.4
		C1181.1,739.4,1182.3,738.3,1183.7,738.3"/>
	<path class="st1" d="M1274,698h8.9c1.6,0,2.8,1.2,2.8,2.7v45.9c0,1.5-1.3,2.7-2.8,2.7h-8.9c-1.6,0-2.8-1.2-2.8-2.7v-45.9
		C1271.1,699.2,1272.4,698,1274,698"/>
	<path class="st1" d="M1297.6,714.4h8.9c1.6,0,2.8,1.2,2.8,2.7v29.5c0,1.5-1.3,2.7-2.8,2.7h-8.9c-1.6,0-2.8-1.2-2.8-2.7v-29.5
		C1294.7,715.6,1296,714.4,1297.6,714.4"/>
	<path class="st1" d="M1321.2,665.7h8.9c1.6,0,2.8,1.2,2.8,2.7v78.3c0,1.5-1.3,2.7-2.8,2.7h-8.9c-1.6,0-2.8-1.2-2.8-2.7v-78.3
		C1318.3,666.8,1319.6,665.7,1321.2,665.7"/>
	<path class="st1" d="M1345.8,651.1h8.9c1.6,0,2.8,1.2,2.8,2.7v92.8c0,1.5-1.3,2.7-2.8,2.7h-8.9c-1.6,0-2.8-1.2-2.8-2.7v-92.8
		C1342.9,652.3,1344.2,651.1,1345.8,651.1"/>
	<path class="st1" d="M1370.7,677h8.9c1.6,0,2.8,1.2,2.8,2.7v66.9c0,1.5-1.3,2.7-2.8,2.7h-8.9c-1.6,0-2.8-1.2-2.8-2.7v-66.9
		C1367.8,678.2,1369.1,677,1370.7,677"/>
	<path class="st1" d="M1395.1,714.4h8.9c1.6,0,2.8,1.2,2.8,2.7v29.5c0,1.5-1.3,2.7-2.8,2.7h-8.9c-1.6,0-2.8-1.2-2.8-2.7v-29.5
		C1392.2,715.6,1393.5,714.4,1395.1,714.4"/>
	<path class="st1" d="M1414.8,900.2c2,1.7,2.1,4.7,0.2,6.6c-1.9,1.9-5.1,2.1-7.1,0.3c-2-1.7-2.1-4.7-0.2-6.6
		C1409.7,898.6,1412.8,898.5,1414.8,900.2"/>
	<path class="st1" d="M1548.1,913.8h39.3c1.7,0,3,1.3,3,2.8v25c0,1.6-1.4,2.8-3,2.8h-39.3c-1.7,0-3-1.3-3-2.8v-25
		C1545,915.1,1546.4,913.8,1548.1,913.8"/>
	<path class="st1" d="M1565,925.8h19.9c1.7,0,3.2,1.3,3.2,3v0c0,1.6-1.4,3-3.2,3H1565c-1.7,0-3.2-1.3-3.2-3v0
		C1561.8,927.1,1563.2,925.8,1565,925.8"/>
	<path class="st1" d="M1540.2,619.8c6.7,0,12.1,5.1,12.1,11.3c0,6.3-5.4,11.3-12.1,11.3c-6.7,0-12.1-5.1-12.1-11.3
		C1528,624.9,1533.5,619.8,1540.2,619.8"/>
	<path class="st1" d="M1669.5,949c2.7-0.2,5.1,1.8,5.2,4.4c0.2,2.6-1.9,4.9-4.6,5c-2.7,0.2-5.1-1.8-5.2-4.4
		C1664.7,951.5,1666.8,949.2,1669.5,949"/>
	<path class="st15" d="M847.8,457.2c31.3,0,56.7,23.7,56.7,53c0,29.3-25.4,53-56.7,53c-31.3,0-56.7-23.7-56.7-53
		C791.1,480.9,816.5,457.2,847.8,457.2"/>
	<path class="st16" d="M850.2,514.6v16c2.6-0.5,4.7-1.5,6.1-3c1.4-1.5,2.1-3.2,2.1-5.2c0-2.1-0.7-3.8-2.1-4.9
		C854.9,516.3,852.9,515.4,850.2,514.6 M845.2,503.7v-14c-2.2,0.6-3.9,1.4-5.1,2.4c-1.2,1-1.8,2.5-1.8,4.5c0,1.9,0.6,3.4,1.7,4.4
		C841.1,502,842.9,502.9,845.2,503.7z M850.2,478.7v4c2.8,0.3,5.2,0.8,7.2,1.6c2,0.8,3.7,2,5.2,3.7c1.2,1.2,2.1,2.5,2.7,3.8
		c0.6,1.3,1,2.5,1,3.6c0,1.2-0.5,2.3-1.4,3.2c-1,0.9-2.1,1.3-3.5,1.3c-2.6,0-4.2-1.3-5-3.9c-0.9-3-2.9-5.1-6.2-6.1v15.2
		c3.2,0.8,5.8,1.6,7.7,2.3c1.9,0.7,3.6,1.7,5.1,3c1.6,1.3,2.9,2.9,3.7,4.8c0.9,1.9,1.3,3.9,1.3,6.1c0,2.8-0.7,5.4-2.1,7.8
		c-1.4,2.4-3.5,4.4-6.2,5.9c-2.7,1.5-5.9,2.4-9.7,2.7v9.1c0,1.4-0.1,2.5-0.5,3.1c-0.3,0.7-0.9,1-2,1c-0.9,0-1.6-0.3-2-0.8
		c-0.4-0.5-0.6-1.4-0.6-2.5v-9.9c-3-0.3-5.7-1-8-2c-2.3-1-4.2-2.3-5.7-3.8c-1.5-1.5-2.7-3.1-3.4-4.7c-0.7-1.6-1.1-3.3-1.1-4.8
		c0-1.2,0.5-2.2,1.5-3.2c1-0.9,2.2-1.4,3.6-1.4c1.2,0,2.2,0.2,3,0.8c0.8,0.5,1.4,1.2,1.7,2.2c0.7,2,1.3,3.5,1.8,4.6
		c0.5,1.1,1.3,2,2.4,2.9c1.1,0.9,2.5,1.5,4.2,2v-17c-3.5-0.9-6.4-1.9-8.8-3c-2.3-1.1-4.3-2.7-5.7-4.7c-1.5-2-2.2-4.7-2.2-7.9
		c0-4.2,1.4-7.6,4.3-10.3c2.9-2.7,7-4.2,12.4-4.7v-3.9c0-2,0.8-3.1,2.5-3.1C849.3,475.7,850.2,476.7,850.2,478.7z"/>
	<path class="st17" d="M852.2,974.1h640.6c3.7,0,6.8,2.9,6.8,6.4v14.2c0,3.5-3.1,6.4-6.8,6.4H852.2c-3.7,0-6.8-2.9-6.8-6.4v-14.2
		C845.4,976.9,848.4,974.1,852.2,974.1"/>
	<path class="st6" d="M876.7,974.1h395.9c3.7,0,6.8,2.9,6.8,6.4v14.2c0,3.5-3.1,6.4-6.8,6.4H876.7c-3.7,0-6.8-2.9-6.8-6.4v-14.2
		C869.9,976.9,873,974.1,876.7,974.1"/>
	<path class="st18" d="M1231.5,965.1h21.5c2.6,0,4.8,2,4.8,4.5c0,2.5-2.2,4.5-4.8,4.5h-21.5c-2.6,0-4.8-2-4.8-4.5
		C1226.7,967.1,1228.8,965.1,1231.5,965.1"/>
	<path class="st18" d="M1340.3,965.1h21.5c2.6,0,4.8,2,4.8,4.5c0,2.5-2.2,4.5-4.8,4.5h-21.5c-2.6,0-4.8-2-4.8-4.5
		C1335.5,967.1,1337.7,965.1,1340.3,965.1"/>
	<path class="st18" d="M1247.8,906.1h98.1c8.9,0,16.2,6.8,16.2,15.2v0c0,8.3-7.3,15.2-16.2,15.2h-98.1c-8.9,0-16.2-6.8-16.2-15.2v0
		C1231.6,912.9,1238.9,906.1,1247.8,906.1"/>
	<path class="st8" d="M916.3,954.5H1047c5.1,0,9.2,3.9,9.2,8.6v2.4c0,4.7-4.1,8.6-9.2,8.6H916.3c-5.1,0-9.2-3.9-9.2-8.6v-2.4
		C907.1,958.4,911.2,954.5,916.3,954.5"/>
	<path class="st9" d="M968.1,954.5h79c5.1,0,9.2,3.9,9.2,8.6v2.4c0,4.7-4.1,8.6-9.2,8.6h-79c-5.1,0-9.2-3.9-9.2-8.6v-2.4
		C958.9,958.4,963,954.5,968.1,954.5"/>
	<path class="st1" d="M1017,853.8h175.7c3.4,0,5.5,2.6,4.8,5.7l-24.2,103.8c-0.7,3.1-4.1,5.7-7.5,5.7H990.2c-3.4,0-5.5-2.6-4.8-5.7
		l24.2-103.8C1010.3,856.4,1013.6,853.8,1017,853.8"/>
	<path class="st19" d="M1080.8,974.1h211.4c3.7,0,6.8,2.9,6.8,6.4v14.2c0,3.5-3.1,6.4-6.8,6.4h-211.4c-3.7,0-6.8-2.9-6.8-6.4v-14.2
		C1074,976.9,1077.1,974.1,1080.8,974.1"/>
	<path class="st20" d="M1021.8,858.8h175.7c3.4,0,5.5,2.6,4.8,5.7l-24.2,103.8c-0.7,3.1-4.1,5.7-7.5,5.7H994.9
		c-3.4,0-5.5-2.6-4.8-5.7l24.2-103.8C1015.1,861.4,1018.4,858.8,1021.8,858.8"/>
	<path class="st1" d="M1102,902.6c8.1,0,13.6,6.2,12.1,13.8c-1.4,7.6-9.2,13.8-17.3,13.8c-8.1,0-13.6-6.2-12.1-13.8
		C1086.1,908.8,1093.9,902.6,1102,902.6"/>
	<path class="st8" d="M990.6,971.8c0.9,1.5,2.6,2.4,4.4,2.3c0,0,58.6,0,175.7,0c3.6-0.1,6.6-2.5,7.5-5.7c0,0,7.9-33.8,23.6-101.4
		C1152.5,930.5,1074.5,969.2,990.6,971.8"/>
	<path class="st21" d="M1218.6,924.1h154.4c3.4,0,6.1,2.6,6.1,5.7v30.7c0,3.1-2.8,5.7-6.1,5.7h-154.4c-3.4,0-6.1-2.6-6.1-5.7v-30.7
		C1212.5,926.7,1215.3,924.1,1218.6,924.1"/>
	<path class="st22" d="M1234.3,933.2h124.9c3.4,0,6.1,2.6,6.1,5.7v11.3c0,3.1-2.8,5.7-6.1,5.7h-124.9c-3.4,0-6.1-2.6-6.1-5.7v-11.3
		C1228.2,935.7,1231,933.2,1234.3,933.2"/>
	<rect x="1244.6" y="940.5" class="st1" width="17.7" height="7.5"/>
	<rect x="1270.8" y="940.5" class="st1" width="12.2" height="7.5"/>
	<path class="st1" d="M920,962.5h5.8c1.5,0,2.7,1.1,2.7,2.5v0c0,1.4-1.2,2.5-2.7,2.5H920c-1.5,0-2.7-1.1-2.7-2.5v0
		C917.3,963.6,918.5,962.5,920,962.5"/>
	<path class="st1" d="M934.5,962.5h5.8c1.5,0,2.7,1.1,2.7,2.5v0c0,1.4-1.2,2.5-2.7,2.5h-5.8c-1.5,0-2.7-1.1-2.7-2.5v0
		C931.8,963.6,933,962.5,934.5,962.5"/>
	<path class="st1" d="M1250.3,947.5c2.1,0,5.6-0.4,5.6-0.4c-2.2,36.4-34,56.6-108,55.1l-185.2,0.4c-18.5-0.1-28-13.3-28.9-35.1
		c1.1-0.8,5.5-1.5,7.3-0.1c1.3,18.9,6.1,28.8,22,29.4c0,0,61.6,0.1,184.9,0.3C1213.3,998.2,1247.3,981.7,1250.3,947.5"/>
	<path class="st15" d="M1712.5,667c16.9,0,30.5,12.8,30.5,28.5c0,15.8-13.7,28.5-30.5,28.5c-16.9,0-30.5-12.8-30.5-28.5
		C1682,679.8,1695.6,667,1712.5,667"/>
	<path class="st16" d="M1720.7,685.8l-15.2,22.9c-0.4,0.6-0.8,0.9-1.3,0.9c-0.3,0-0.6-0.1-0.8-0.3c-0.3-0.2-0.4-0.5-0.4-0.8
		c0-0.2,0.1-0.5,0.4-0.9l15.3-23.1c0.3-0.4,0.5-0.7,0.7-0.9c0.2-0.2,0.5-0.3,0.9-0.3c0.4,0,0.7,0.1,0.9,0.3c0.2,0.2,0.3,0.5,0.3,0.8
		C1721.4,684.7,1721.2,685.1,1720.7,685.8 M1723.8,702.3c0-1.5-0.2-2.5-0.5-3.2c-0.3-0.7-0.9-1-1.8-1c-0.6,0-1.1,0.2-1.4,0.5
		c-0.3,0.3-0.6,0.8-0.7,1.4c-0.1,0.6-0.2,1.4-0.2,2.4c0,1.5,0.2,2.6,0.5,3.3c0.3,0.7,1,1.1,1.8,1.1c0.9,0,1.5-0.4,1.8-1.1
		C1723.7,705,1723.8,703.8,1723.8,702.3z M1727.2,702.5c0,2.2-0.5,3.8-1.5,4.8c-1,1.1-2.4,1.6-4.2,1.6c-1.1,0-2.1-0.2-3-0.7
		c-0.9-0.5-1.6-1.2-2-2.1c-0.5-0.9-0.7-2.1-0.7-3.5c0-2.2,0.5-3.9,1.4-5c0.9-1.1,2.3-1.7,4.3-1.7c0.9,0,1.8,0.1,2.5,0.4
		c0.7,0.3,1.3,0.7,1.8,1.2c0.5,0.5,0.9,1.2,1.1,2C1727.1,700.4,1727.2,701.4,1727.2,702.5z M1705.1,690c0-1.5-0.2-2.6-0.5-3.2
		c-0.3-0.7-0.9-1-1.8-1c-0.6,0-1.1,0.2-1.4,0.5c-0.3,0.3-0.6,0.8-0.7,1.4c-0.1,0.6-0.2,1.4-0.2,2.4c0,1,0.1,1.8,0.2,2.5
		c0.1,0.6,0.4,1.1,0.7,1.4c0.3,0.3,0.8,0.5,1.4,0.5c0.9,0,1.5-0.4,1.8-1.1C1705,692.6,1705.1,691.5,1705.1,690z M1708.5,690.1
		c0,2.2-0.5,3.8-1.5,4.8c-1,1.1-2.4,1.6-4.2,1.6c-1.1,0-2.1-0.2-2.9-0.7c-0.9-0.4-1.6-1.1-2-2.1c-0.5-1-0.7-2.1-0.7-3.5
		c0-1.5,0.2-2.7,0.6-3.7c0.4-1,1-1.7,1.8-2.2c0.8-0.5,1.9-0.8,3.2-0.8c0.9,0,1.8,0.1,2.5,0.4c0.7,0.3,1.3,0.7,1.8,1.3
		c0.5,0.6,0.9,1.2,1.1,2.1C1708.4,688.1,1708.5,689,1708.5,690.1z"/>
	<path class="st23" d="M1769,1108.4c-4.4,8.8-6.3,8.8-5.7,0c7.1-46.4-12.4-93-51.5-122.4c-0.8-0.9-0.8-2.2,0.1-3.1
		c0.9-0.9,2.3-0.9,3.3-0.2C1757.2,1011.7,1778,1060.3,1769,1108.4"/>
	<path class="st19" d="M1803.8,1108.4c-11.6,0-23.2,0-34.8,0c-11.6,0-23.2,0-34.8,0c-8.4,0-14.3,5.2-13,11.5
		c1.8,9.2,3.6,18.3,5.4,27.5c1.8,9.2,3.6,18.3,5.4,27.5c1.2,6.3,7,11.5,12.9,11.5c8.1,0,16.1,0,24.2,0c8,0,16.1,0,24.2,0
		c5.8,0,11.6-5.2,12.9-11.5c1.8-9.2,3.6-18.3,5.4-27.5c1.8-9.2,3.6-18.3,5.4-27.5C1818.1,1113.6,1812.2,1108.4,1803.8,1108.4"/>
	<path class="st24" d="M1720.7,947.4c-3.1,0.5-3.5,11.1-1.1,23.7c2.5,12.6,6.9,22.4,10,21.8c3.1-0.5,3.5-11.1,1.1-23.7
		C1728.2,956.7,1723.7,946.9,1720.7,947.4"/>
	<path class="st24" d="M1677.5,983.3c-1,2.7,8.6,8.4,21.6,12.6c12.9,4.2,24.2,5.4,25.3,2.7c1-2.7-8.6-8.4-21.6-12.6
		C1689.8,981.8,1678.5,980.6,1677.5,983.3"/>
	<path class="st24" d="M1741.2,954.2c-3.1,0.1-5.2,11.4-4.7,25.3c0.5,13.8,3.5,25,6.6,24.8c3.1-0.1,5.2-11.4,4.7-25.3
		C1747.2,965.2,1744.3,954.1,1741.2,954.2"/>
	<path class="st24" d="M1680.9,1003.8c-0.4,2.9,11.2,6.7,25.9,8.5c14.7,1.8,26.9,0.9,27.3-1.9c0.4-2.9-11.2-6.7-25.9-8.5
		C1693.5,1000.1,1681.3,1001,1680.9,1003.8"/>
	<path class="st24" d="M1764.6,961.4c-3.1-0.5-8,11.5-10.9,26.7c-3,15.2-2.9,28,0.2,28.4c3.1,0.5,8-11.5,10.9-26.7
		C1767.7,974.6,1767.6,961.9,1764.6,961.4"/>
	<path class="st24" d="M1683.1,1021.7c0,2.9,13.4,5.4,30,5.6c16.6,0.2,30-2,30-4.9c0-2.9-13.4-5.4-30-5.6
		C1696.5,1016.6,1683,1018.8,1683.1,1021.7"/>
	<path class="st24" d="M1782,976.3c-2.9-1-10.2,9.8-16.3,24.2c-6.1,14.4-8.7,26.9-5.8,27.9c2.9,1,10.2-9.8,16.3-24.2
		C1782.3,989.8,1784.9,977.3,1782,976.3"/>
	<path class="st24" d="M1749.5,1034.9c-0.2-2.9-13.7-4.8-30.3-4.3c-16.6,0.5-29.9,3.3-29.7,6.2c0.2,2.9,13.7,4.8,30.3,4.3
		C1736.4,1040.6,1749.7,1037.8,1749.5,1034.9"/>
	<path class="st24" d="M1800.8,993.8c-2.5-1.8-12.7,6.7-22.9,18.9c-10.2,12.2-16.4,23.5-13.9,25.3c2.5,1.8,12.7-6.7,22.9-18.9
		C1797,1006.9,1803.3,995.6,1800.8,993.8"/>
	<path class="st24" d="M1753.4,1046c-0.3-2.9-14-4-30.5-2.5c-16.5,1.5-29.6,5-29.2,7.9c0.3,2.9,14,4,30.5,2.5
		C1740.6,1052.5,1753.7,1048.9,1753.4,1046"/>
	<path class="st24" d="M1810.9,1009.8c-2.3-2-13.4,5.4-25,16.6c-11.5,11.1-19,21.8-16.7,23.7c2.3,2,13.4-5.4,25-16.6
		C1805.6,1022.4,1813.1,1011.8,1810.9,1009.8"/>
	<path class="st24" d="M1757.3,1054.7c-0.9-2.8-14.5-1.8-30.5,2.2c-16,4-28.3,9.5-27.4,12.3c0.9,2.8,14.5,1.8,30.5-2.2
		C1745.9,1063,1758.2,1057.5,1757.3,1054.7"/>
	<path class="st6" d="M1755.4,1116.4c-3.5,0-7,0-10.5,0c-3.5,0-7,0-10.5,0c-4,0-6.5,3.9-5.6,8.6c1.4,7.4,2.8,14.8,4.2,22.2
		c1.4,7.4,2.8,14.8,4.2,22.2c0.9,4.7,3.8,8.6,6.5,8.6c2.3,0,4.7,0,7,0c2.3,0,4.7,0,7,0c2.7,0,4.9-3.9,4.9-8.6c0-7.4,0-14.8,0-22.2
		c0-7.4,0-14.8,0-22.2C1762.6,1120.2,1759.4,1116.4,1755.4,1116.4"/>
	<path class="st1" d="M794.4,729.5c-7.9,22.2-30,23.4-66,3.7c-4.1,2.2-6.2,3.4-6.2,3.4c53.4,40.4,79.5,38.7,78.2-5.1
		C796.4,730.2,794.4,729.5,794.4,729.5"/>
	<path class="st1" d="M782.3,638.7c1.4-0.1,2.6,0.8,2.7,2.1c0.1,1.3-0.8,2.4-2.2,2.6c-1.4,0.1-2.6-0.8-2.7-2.1
		C779.9,640,780.9,638.9,782.3,638.7"/>
	<path class="st1" d="M891.8,795.1c0.6-2.6,3.4-4.3,6.1-3.7c2.8,0.6,4.6,3.1,4,5.7c-0.6,2.6-3.4,4.3-6.1,3.7
		C893,800.2,891.2,797.7,891.8,795.1"/>
	<path class="st1" d="M665.2,901.6c2.9,0,5.2,2.2,5.2,4.8c0,2.7-2.3,4.8-5.2,4.8c-2.9,0-5.2-2.2-5.2-4.8
		C660,903.8,662.4,901.6,665.2,901.6"/>
	<path class="st1" d="M758.1,877c2,0,3.5,1.5,3.5,3.3c0,1.8-1.6,3.3-3.5,3.3c-2,0-3.5-1.5-3.5-3.3C754.6,878.5,756.2,877,758.1,877"
		/>
	<path class="st23" d="M577.9,1103.4c4.4,8.8,6.3,8.8,5.7,0c-7.1-46.4,12.4-93,51.5-122.4c0.8-0.9,0.8-2.2-0.1-3.1
		c-0.9-0.9-2.3-0.9-3.3-0.2C589.7,1006.7,568.9,1055.3,577.9,1103.4"/>
	<path class="st19" d="M543.1,1103.4c11.6,0,23.2,0,34.8,0c11.6,0,23.2,0,34.8,0c8.4,0,14.3,5.2,13,11.5c-1.8,9.2-3.6,18.3-5.4,27.5
		c-1.8,9.2-3.6,18.3-5.4,27.5c-1.2,6.3-7,11.5-12.9,11.5c-8.1,0-16.1,0-24.2,0c-8,0-16.1,0-24.2,0c-5.8,0-11.6-5.2-12.9-11.5
		c-1.8-9.2-3.6-18.3-5.4-27.5c-1.8-9.2-3.6-18.3-5.4-27.5C528.8,1108.6,534.7,1103.4,543.1,1103.4"/>
	<path class="st24" d="M626.2,942.4c3.1,0.5,3.5,11.1,1.1,23.7c-2.5,12.6-6.9,22.4-10,21.8c-3.1-0.5-3.5-11.1-1.1-23.7
		C618.7,951.7,623.1,941.9,626.2,942.4"/>
	<path class="st24" d="M669.4,978.3c1,2.7-8.6,8.4-21.6,12.6c-12.9,4.2-24.2,5.4-25.3,2.7c-1-2.7,8.6-8.4,21.6-12.6
		C657.1,976.8,668.4,975.6,669.4,978.3"/>
	<path class="st24" d="M605.7,949.2c3.1,0.1,5.2,11.4,4.7,25.3c-0.5,13.8-3.5,25-6.6,24.8c-3.1-0.1-5.2-11.4-4.7-25.3
		C599.7,960.2,602.6,949.1,605.7,949.2"/>
	<path class="st24" d="M666,998.9c0.4,2.9-11.2,6.7-25.9,8.5c-14.7,1.8-26.9,0.9-27.3-1.9c-0.4-2.9,11.2-6.7,25.9-8.5
		C653.4,995.1,665.6,996,666,998.9"/>
	<path class="st24" d="M582.3,956.4c3.1-0.5,8,11.5,10.9,26.7c3,15.2,2.9,28-0.2,28.4c-3.1,0.5-8-11.5-10.9-26.7
		C579.2,969.6,579.3,956.9,582.3,956.4"/>
	<path class="st24" d="M663.8,1016.7c0,2.9-13.4,5.4-30,5.6c-16.6,0.2-30-2-30-4.9c0-2.9,13.4-5.4,30-5.6
		C650.4,1011.6,663.8,1013.8,663.8,1016.7"/>
	<path class="st24" d="M564.9,971.3c2.9-1,10.2,9.8,16.3,24.2c6.1,14.4,8.7,26.9,5.8,27.9c-2.9,1-10.2-9.8-16.3-24.2
		C564.6,984.8,562,972.3,564.9,971.3"/>
	<path class="st24" d="M597.4,1029.9c0.2-2.9,13.7-4.8,30.3-4.3c16.6,0.5,29.9,3.3,29.7,6.2c-0.2,2.9-13.7,4.8-30.3,4.3
		C610.5,1035.6,597.2,1032.8,597.4,1029.9"/>
	<path class="st24" d="M546.1,988.9c2.5-1.8,12.7,6.7,22.9,18.9c10.2,12.2,16.4,23.5,13.9,25.3c-2.5,1.8-12.7-6.7-22.9-18.9
		C549.9,1001.9,543.6,990.6,546.1,988.9"/>
	<path class="st24" d="M593.5,1041c0.3-2.9,14-4,30.5-2.5c16.5,1.5,29.6,5,29.2,7.9c-0.3,2.9-14,4-30.5,2.5
		C606.2,1047.5,593.2,1043.9,593.5,1041"/>
	<path class="st24" d="M536,1004.8c2.3-2,13.4,5.4,25,16.6c11.5,11.1,19,21.8,16.7,23.7c-2.3,2-13.4-5.4-25-16.6
		C541.3,1017.4,533.8,1006.8,536,1004.8"/>
	<path class="st24" d="M589.6,1049.7c0.9-2.8,14.5-1.8,30.5,2.2c16,4,28.3,9.5,27.4,12.3c-0.9,2.8-14.5,1.8-30.5-2.2
		C601,1058,588.7,1052.5,589.6,1049.7"/>
	<path class="st6" d="M591.5,1111.4c3.5,0,7,0,10.5,0c3.5,0,7,0,10.5,0c4,0,6.5,3.9,5.6,8.6c-1.4,7.4-2.8,14.8-4.2,22.2
		c-1.4,7.4-2.8,14.8-4.2,22.2c-0.9,4.7-3.8,8.6-6.5,8.6c-2.3,0-4.7,0-7,0c-2.3,0-4.7,0-7,0c-2.7,0-4.9-3.9-4.9-8.6
		c0-7.4,0-14.8,0-22.2c0-7.4,0-14.8,0-22.2C584.3,1115.2,587.5,1111.4,591.5,1111.4"/>
	<path class="st1" d="M1015.2,1134.4c9.4,0,17,7.1,17,15.9c0,8.8-7.6,15.9-17,15.9c-9.4,0-17-7.1-17-15.9
		C998.2,1141.6,1005.8,1134.4,1015.2,1134.4"/>
	<path class="st1" d="M1093.7,1111.8c5.5,0,10,4.2,10,9.4c0,5.2-4.5,9.4-10,9.4c-5.5,0-10-4.2-10-9.4
		C1083.7,1116,1088.2,1111.8,1093.7,1111.8"/>
	<path class="st1" d="M1042.9,1088.1c4.3,0,7.8,3.2,7.8,7.3c0,4-3.5,7.3-7.8,7.3c-4.3,0-7.8-3.2-7.8-7.3
		C1035.1,1091.4,1038.6,1088.1,1042.9,1088.1"/>
	<path class="st1" d="M991.5,1079.5c2.7,0,4.9,2.1,4.9,4.6c0,2.5-2.2,4.6-4.9,4.6c-2.7,0-4.9-2.1-4.9-4.6
		C986.5,1081.6,988.7,1079.5,991.5,1079.5"/>
	<path class="st1" d="M943.6,1138.6c4.3,0,7.8,3.2,7.8,7.3s-3.5,7.3-7.8,7.3c-4.3,0-7.8-3.2-7.8-7.3S939.3,1138.6,943.6,1138.6"/>
	<path class="st1" d="M1192.5,1165.9c4.3,0,7.8,3.2,7.8,7.3c0,4-3.5,7.3-7.8,7.3s-7.8-3.2-7.8-7.3
		C1184.8,1169.1,1188.2,1165.9,1192.5,1165.9"/>
	<path class="st1" d="M1076.5,1193.2c3.5,0,6.4,2.7,6.4,6c0,3.3-2.9,6-6.4,6s-6.4-2.7-6.4-6
		C1070.1,1195.9,1073,1193.2,1076.5,1193.2"/>
	<path class="st1" d="M1181.9,1111.4c4.3,0,7.8,3.3,7.8,7.3c0,4-3.5,7.3-7.8,7.3s-7.8-3.3-7.8-7.3
		C1174,1114.6,1177.5,1111.4,1181.9,1111.4"/>
	<path class="st1" d="M1264.1,1124.1c3.1,0,5.5,2.3,5.5,5.2c0,2.9-2.5,5.2-5.5,5.2c-3.1,0-5.5-2.3-5.5-5.2
		C1258.6,1126.4,1261.1,1124.1,1264.1,1124.1"/>
	<path class="st1" d="M1237.3,1092.4c2.6,0,4.6,1.9,4.6,4.3c0,2.4-2.1,4.3-4.6,4.3s-4.6-1.9-4.6-4.3
		C1232.7,1094.4,1234.7,1092.4,1237.3,1092.4"/>
	<path class="st1" d="M1347.6,1163.3c2.6,0,4.6,1.9,4.6,4.3c0,2.4-2.1,4.3-4.6,4.3c-2.6,0-4.6-1.9-4.6-4.3
		C1343,1165.3,1345,1163.3,1347.6,1163.3"/>
	<path class="st1" d="M1381.3,1153.9c2.1,0,3.9,1.6,3.9,3.6s-1.7,3.6-3.9,3.6c-2.1,0-3.9-1.6-3.9-3.6S1379.2,1153.9,1381.3,1153.9"
		/>
	<path class="st1" d="M1415.1,1148.6c1.7,0,3,1.3,3,2.8c0,1.5-1.3,2.8-3,2.8c-1.7,0-3-1.3-3-2.8
		C1412.1,1149.8,1413.4,1148.6,1415.1,1148.6"/>
	<path class="st1" d="M1557.7,465.1c17,0,30.7,12.8,30.7,28.7c0,15.8-13.7,28.7-30.7,28.7c-17,0-30.7-12.8-30.7-28.7
		C1527,478,1540.7,465.1,1557.7,465.1"/>
	<path class="st25" d="M1557.7,481c7.6,0,13.7,5.7,13.7,12.8c0,7.1-6.1,12.8-13.7,12.8c-7.6,0-13.7-5.7-13.7-12.8
		C1544,486.7,1550.1,481,1557.7,481"/>
	<rect x="1548.4" y="452.5" class="st1" width="18" height="19.4"/>
	<rect x="1548.4" y="516.3" class="st1" width="18" height="19.4"/>
	<polygon class="st1" points="1569.6,517.5 1583.8,507.3 1596.5,522.7 1582.2,532.9 	"/>
	<polygon class="st1" points="1545.1,517.5 1530.8,507.3 1518.2,522.7 1532.4,532.9 	"/>
	<polygon class="st1" points="1569.6,469.5 1583.8,479.8 1596.5,464.4 1582.2,454.2 	"/>
	<polygon class="st1" points="1545.1,469.5 1530.8,479.8 1518.2,464.4 1532.4,454.2 	"/>
	<rect x="1510.2" y="483.8" class="st1" width="22.4" height="15.8"/>
	<rect x="1585" y="483.8" class="st1" width="22.4" height="15.8"/>
	<path class="st1" d="M1622.5,439.9c8.4,0,15.3,6.4,15.3,14.3c0,7.9-6.8,14.3-15.3,14.3c-8.4,0-15.3-6.4-15.3-14.3
		C1607.2,446.3,1614,439.9,1622.5,439.9"/>
	<path class="st25" d="M1622.5,447.8c3.8,0,6.8,2.8,6.8,6.4c0,3.5-3,6.4-6.8,6.4c-3.8,0-6.8-2.8-6.8-6.4
		C1615.6,450.6,1618.7,447.8,1622.5,447.8"/>
	<rect x="1617.8" y="433.6" class="st1" width="8.9" height="9.6"/>
	<rect x="1617.8" y="465.3" class="st1" width="8.9" height="9.6"/>
	<polygon class="st1" points="1628.4,465.9 1635.4,460.8 1641.7,468.5 1634.7,473.6 	"/>
	<polygon class="st1" points="1616.2,465.9 1609.1,460.8 1602.8,468.5 1609.9,473.6 	"/>
	<polygon class="st1" points="1628.4,442.1 1635.4,447.2 1641.7,439.5 1634.7,434.4 	"/>
	<polygon class="st1" points="1616.2,442.1 1609.1,447.2 1602.8,439.5 1609.9,434.4 	"/>
	<rect x="1598.9" y="449.2" class="st1" width="11.2" height="7.9"/>
	<rect x="1636.1" y="449.2" class="st1" width="11.2" height="7.9"/>
	<rect x="481.3" y="737.1" class="st1" width="114.4" height="96.3"/>
	<rect x="493.8" y="747.7" class="st25" width="89.3" height="75.1"/>
	<rect x="510.6" y="761.5" class="st1" width="55.2" height="7.9"/>
	<rect x="510.6" y="777.7" class="st1" width="55.2" height="7.9"/>
	<rect x="510.6" y="795.3" class="st1" width="55.2" height="7.9"/>
	<rect x="432.1" y="855.4" class="st1" width="68.7" height="57.8"/>
	<rect x="439.6" y="861.8" class="st25" width="53.6" height="45.1"/>
	<rect x="449.7" y="870.1" class="st1" width="33.2" height="4.8"/>
	<rect x="449.7" y="879.8" class="st1" width="33.2" height="4.8"/>
	<rect x="449.7" y="890.3" class="st1" width="33.2" height="4.8"/>
	<path class="st12" d="M1694.6,535h129.1c3.4,0,6.1,2.6,6.1,5.7v52c0,3.1-2.8,5.7-6.1,5.7H1705c0,0-12.4,7.8-37.3,23.3
		c0,0,6.9-11.4,20.7-34.1v-47C1688.5,537.5,1691.2,535,1694.6,535"/>
	<path class="st1" d="M1729.2,557.5c4.8,0,8.8,3.7,8.8,8.2c0,4.5-3.9,8.2-8.8,8.2c-4.8,0-8.8-3.7-8.8-8.2
		C1720.4,561.1,1724.3,557.5,1729.2,557.5"/>
	<path class="st1" d="M1759.4,557.5c4.8,0,8.8,3.7,8.8,8.2c0,4.5-3.9,8.2-8.8,8.2c-4.8,0-8.8-3.7-8.8-8.2
		C1750.7,561.1,1754.6,557.5,1759.4,557.5"/>
	<path class="st1" d="M1788.1,557.5c4.8,0,8.8,3.7,8.8,8.2c0,4.5-3.9,8.2-8.8,8.2c-4.8,0-8.8-3.7-8.8-8.2
		C1779.3,561.1,1783.2,557.5,1788.1,557.5"/>
	<path class="st9" d="M630,586.4H500.9c-3.4,0-6.1,2.6-6.1,5.7v52c0,3.1,2.8,5.7,6.1,5.7h118.6c0,0,12.4,7.8,37.3,23.3
		c0,0-6.9-11.4-20.7-34.1v-47C636.1,589,633.3,586.4,630,586.4"/>
	<path class="st1" d="M595.4,608.9c-4.8,0-8.8,3.7-8.8,8.2c0,4.5,3.9,8.2,8.8,8.2c4.8,0,8.8-3.7,8.8-8.2
		C604.1,612.6,600.2,608.9,595.4,608.9"/>
	<path class="st1" d="M565.1,608.9c-4.8,0-8.8,3.7-8.8,8.2c0,4.5,3.9,8.2,8.8,8.2c4.8,0,8.8-3.7,8.8-8.2
		C573.9,612.6,570,608.9,565.1,608.9"/>
	<path class="st1" d="M536.5,608.9c-4.8,0-8.8,3.7-8.8,8.2c0,4.5,3.9,8.2,8.8,8.2c4.8,0,8.8-3.7,8.8-8.2
		C545.3,612.6,541.3,608.9,536.5,608.9"/>
</g>
</svg>
