<?xml version="1.0" encoding="utf-8"?>
<!-- Generator: Adobe Illustrator 21.0.0, SVG Export Plug-In . SVG Version: 6.00 Build 0)  -->
<svg version="1.1" id="Layer_1" xmlns="http://www.w3.org/2000/svg" xmlns:xlink="http://www.w3.org/1999/xlink" x="0px" y="0px"
	 viewBox="0 0 2340 1560" style="enable-background:new 0 0 2340 1560;" xml:space="preserve">
<style type="text/css">
	.st0{fill-rule:evenodd;clip-rule:evenodd;fill:#C2DDF3;}
	.st1{fill-rule:evenodd;clip-rule:evenodd;fill:#FFFFFF;}
	.st2{fill-rule:evenodd;clip-rule:evenodd;fill:#FDF9FC;}
	.st3{fill-rule:evenodd;clip-rule:evenodd;fill:#84BDDD;}
	.st4{fill-rule:evenodd;clip-rule:evenodd;fill:#4E8DAA;}
	.st5{fill-rule:evenodd;clip-rule:evenodd;fill:#C3624B;}
	.st6{fill-rule:evenodd;clip-rule:evenodd;fill:#EB8970;}
	.st7{fill-rule:evenodd;clip-rule:evenodd;fill:#93C4DF;}
	.st8{fill-rule:evenodd;clip-rule:evenodd;fill:#C28ABD;}
	.st9{fill-rule:evenodd;clip-rule:evenodd;fill:#A858A2;}
	.st10{fill-rule:evenodd;clip-rule:evenodd;fill:#903895;}
	.st11{fill:#903895;}
	.st12{fill-rule:evenodd;clip-rule:evenodd;fill:#9C88C0;}
	.st13{fill-rule:evenodd;clip-rule:evenodd;fill:#7857A4;}
	.st14{fill-rule:evenodd;clip-rule:evenodd;fill:#6E3E98;}
	.st15{fill-rule:evenodd;clip-rule:evenodd;fill:#53BA65;}
	.st16{fill:#FFFFFF;}
	.st17{fill-rule:evenodd;clip-rule:evenodd;fill:#DB8169;}
	.st18{fill-rule:evenodd;clip-rule:evenodd;fill:#846FB2;}
	.st19{fill-rule:evenodd;clip-rule:evenodd;fill:#F8A38C;}
	.st20{fill-rule:evenodd;clip-rule:evenodd;fill:#CEABD1;}
	.st21{fill-rule:evenodd;clip-rule:evenodd;fill:#A492C5;}
	.st22{fill-rule:evenodd;clip-rule:evenodd;fill:#553E98;}
	.st23{fill-rule:evenodd;clip-rule:evenodd;fill:#34679A;}
	.st24{fill-rule:evenodd;clip-rule:evenodd;fill:#8584C0;}
	.st25{fill-rule:evenodd;clip-rule:evenodd;fill:#F8F2F8;}
</style>
<g>
	<path class="st0" d="M218.1,1505.4c1028.8,11,1577.8,11.2,1647,0.5c174.2-429.2,176.7-644.5-60.7-765.8
		c-102.7-59.1-98.9-181.3-89.5-333.9c19.5-223.4-203.3-630.5-873.3-250.4C-93.7,694.2-145.8,1032.4,218.1,1505.4"/>
	<path class="st1" d="M654.4,798.4c68.6,0,124.3,68.6,124.3,153.2c0,84.6-55.6,153.2-124.3,153.2c-68.6,0-124.3-68.6-124.3-153.2
		C530.1,866.9,585.8,798.4,654.4,798.4"/>
	<path class="st2" d="M959.2,409.7c68.6,0,124.3,68.6,124.3,153.2c0,84.6-55.6,153.2-124.3,153.2c-68.6,0-124.3-68.6-124.3-153.2
		C834.9,478.2,890.5,409.7,959.2,409.7"/>
	<path class="st2" d="M1160.5,336.6c30,0,54.2,29.9,54.2,66.8c0,36.9-24.3,66.8-54.2,66.8c-30,0-54.2-29.9-54.2-66.8
		C1106.3,366.5,1130.5,336.6,1160.5,336.6"/>
	<path class="st3" d="M301.4,1514.9c993.8,25.2,1490.7,37.8,1490.7,37.8c11.2-113.3-32.7-224.1-112-282.9
		c-79.3-58.9-179.3-54.8-255.3,10.4c5.6-219.1-113.5-413.4-286-466.7c-172.5-53.3-351.9,48.8-430.8,245.2
		c-107.3-100.7-257.8-92.6-357.5,19.3C250.7,1190,230,1373.8,301.4,1514.9"/>
	<path class="st4" d="M443.6,1541.8c738.1,11.7,1107.1,17.5,1107.1,17.5c-28.1-134.2-135.2-219.3-246-195.3
		c-27.3-142.7-134.9-239.5-253.5-228.1c-118.6,11.4-212.7,127.6-221.7,273.8c-63.2-56-143.6-73.6-218.7-47.9
		C535.8,1387.4,474.3,1453.6,443.6,1541.8"/>
	<rect x="1321.4" y="1240.4" class="st5" width="32.6" height="319.6"/>
	<rect x="1310.3" y="1240.4" class="st6" width="25" height="319.6"/>
	<rect x="731.9" y="1240.4" class="st5" width="32.6" height="319.6"/>
	<rect x="720.8" y="1240.4" class="st6" width="25" height="319.6"/>
	<path class="st5" d="M698.6,1206.3h689.1c5.9,0,10.7,5.9,10.7,13.2v23.5c0,7.2-4.8,13.2-10.7,13.2H698.6c-5.9,0-10.7-5.9-10.7-13.2
		v-23.5C687.9,1212.2,692.7,1206.3,698.6,1206.3"/>
	<path class="st7" d="M701.4,478.1H1404c9.8,0,17.8,9.9,17.8,21.9v462.3c0,12.1-8,21.9-17.8,21.9H701.4c-9.8,0-17.8-9.9-17.8-21.9
		V500C683.6,487.9,691.6,478.1,701.4,478.1"/>
	<rect x="739.9" y="612.2" class="st8" width="263.3" height="285.9"/>
	<rect x="739.9" y="612.2" class="st9" width="85.5" height="285.9"/>
	<rect x="739.9" y="583.4" class="st10" width="263.3" height="57.5"/>
	<path class="st1" d="M760.4,604.3h143.1c2.8,0,5.1,2.8,5.1,6.3v0c0,3.4-2.3,6.3-5.1,6.3H760.4c-2.8,0-5.1-2.8-5.1-6.3v0
		C755.3,607.1,757.6,604.3,760.4,604.3"/>
	<path class="st1" d="M949.3,604.9c2.7,0,4.9,2.7,4.9,6.1c0,3.4-2.2,6.1-4.9,6.1c-2.7,0-4.9-2.7-4.9-6.1
		C944.4,607.6,946.6,604.9,949.3,604.9"/>
	<path class="st1" d="M966.2,604.9c2.7,0,4.9,2.7,4.9,6.1c0,3.4-2.2,6.1-4.9,6.1c-2.7,0-4.9-2.7-4.9-6.1
		C961.2,607.6,963.4,604.9,966.2,604.9"/>
	<path class="st1" d="M984.6,604.9c2.7,0,4.9,2.7,4.9,6.1c0,3.4-2.2,6.1-4.9,6.1c-2.7,0-4.9-2.7-4.9-6.1
		C979.7,607.6,981.9,604.9,984.6,604.9"/>
	<rect x="754" y="658.9" class="st1" width="58.4" height="8.2"/>
	<rect x="754" y="672.2" class="st1" width="49.8" height="8.2"/>
	<rect x="754" y="685.4" class="st1" width="33.6" height="8.2"/>
	<rect x="754" y="718.8" class="st1" width="58.4" height="8.2"/>
	<rect x="754" y="732" class="st1" width="49.8" height="8.2"/>
	<rect x="754" y="745.3" class="st1" width="33.6" height="8.2"/>
	<rect x="754" y="781.9" class="st1" width="58.4" height="8.2"/>
	<rect x="754" y="795.1" class="st1" width="49.8" height="8.2"/>
	<rect x="754" y="808.4" class="st1" width="33.6" height="8.2"/>
	<rect x="754" y="838.2" class="st1" width="58.4" height="8.2"/>
	<rect x="754" y="851.4" class="st1" width="49.8" height="8.2"/>
	<rect x="754" y="864.7" class="st1" width="33.6" height="8.2"/>
	<rect x="839.7" y="658.8" class="st1" width="30.5" height="37.6"/>
	<rect x="876.2" y="661.1" class="st1" width="112" height="12.1"/>
	<rect x="876.2" y="679.3" class="st1" width="96.7" height="12.1"/>
	<rect x="839.7" y="719.2" class="st1" width="30.5" height="37.6"/>
	<rect x="876.2" y="721.4" class="st1" width="54.9" height="12.1"/>
	<rect x="876.2" y="739.7" class="st1" width="96.7" height="12.1"/>
	<rect x="839.7" y="780.6" class="st1" width="30.5" height="37.6"/>
	<rect x="876.2" y="782.9" class="st1" width="54.9" height="12.1"/>
	<rect x="876.2" y="801.1" class="st1" width="21.9" height="12.1"/>
	<rect x="839.7" y="837.6" class="st1" width="30.5" height="37.6"/>
	<rect x="876.2" y="841" class="st1" width="93.3" height="12.1"/>
	<rect x="876.2" y="858.5" class="st1" width="112" height="12.1"/>
	<path class="st1" d="M733.3,549.9c13.6,0,24.6,13.6,24.6,30.3c0,16.7-11,30.3-24.6,30.3s-24.6-13.6-24.6-30.3
		C708.7,563.5,719.7,549.9,733.3,549.9"/>
	<polygon class="st11" points="727.8,598.6 727.8,580.8 722.7,580.8 732.9,562.9 743.1,580.8 738,580.8 738,598.6 	"/>
	<path class="st1" d="M712.6,500.9h679.4c2.7,0,4.9,2.7,4.9,6v0c0,3.3-2.2,6-4.9,6H712.6c-2.7,0-4.9-2.7-4.9-6v0
		C707.8,503.6,710,500.9,712.6,500.9"/>
	<rect x="1055" y="596.4" class="st12" width="310.6" height="301.5"/>
	<rect x="1042.5" y="583.4" class="st13" width="61" height="314.5"/>
	<rect x="1042.5" y="583.4" class="st14" width="323.1" height="58.9"/>
	<path class="st1" d="M1067.8,604.3h188.7c2.8,0,5.1,2.8,5.1,6.3v0c0,3.4-2.3,6.3-5.1,6.3h-188.7c-2.8,0-5.1-2.8-5.1-6.3v0
		C1062.7,607.1,1065,604.3,1067.8,604.3"/>
	<path class="st1" d="M1297.3,604.9c2.7,0,4.9,2.7,4.9,6.1c0,3.4-2.2,6.1-4.9,6.1c-2.7,0-4.9-2.7-4.9-6.1
		C1292.4,607.6,1294.6,604.9,1297.3,604.9"/>
	<path class="st1" d="M1317.9,604.9c2.7,0,4.9,2.7,4.9,6.1c0,3.4-2.2,6.1-4.9,6.1c-2.7,0-4.9-2.7-4.9-6.1
		C1312.9,607.6,1315.1,604.9,1317.9,604.9"/>
	<path class="st1" d="M1338.8,604.9c2.7,0,4.9,2.7,4.9,6.1c0,3.4-2.2,6.1-4.9,6.1s-4.9-2.7-4.9-6.1
		C1333.9,607.6,1336.1,604.9,1338.8,604.9"/>
	<path class="st1" d="M1369.9,549.9c13.6,0,24.6,13.6,24.6,30.3c0,16.7-11,30.3-24.6,30.3c-13.6,0-24.6-13.6-24.6-30.3
		C1345.3,563.5,1356.3,549.9,1369.9,549.9"/>
	<polygon class="st14" points="1366.9,565 1372.4,565 1372.4,576.4 1383.8,576.4 1383.8,583.1 1372.4,583.1 1372.4,596.2 
		1366.9,596.2 1366.9,583.1 1356,583.1 1356,576.4 1366.9,576.4 	"/>
	<path class="st1" d="M1052.7,669.6h40.7c1.6,0,3,1.6,3,3.7c0,2-1.3,3.7-3,3.7h-40.7c-1.6,0-3-1.6-3-3.7
		C1049.7,671.2,1051,669.6,1052.7,669.6"/>
	<path class="st1" d="M1133.7,672.1L1133.7,672.1c1.9,0,3.5,1.9,3.5,4.3v178h202.6c1.8,0,3.2,1.8,3.2,4v0c0,2.2-1.4,4-3.2,4h-206.3
		c-1.8,0-3.2-1.8-3.2-4v0c0-0.1,0-0.2,0-0.2c0-0.1,0-0.2,0-0.2V676.4C1130.2,674,1131.8,672.1,1133.7,672.1"/>
	<path class="st1" d="M1052.7,681.9h33.5c1.6,0,3,1.6,3,3.7c0,2-1.3,3.7-3,3.7h-33.5c-1.6,0-3-1.6-3-3.7
		C1049.7,683.6,1051,681.9,1052.7,681.9"/>
	<path class="st1" d="M1052.7,716h40.7c1.6,0,3,1.6,3,3.7c0,2-1.3,3.7-3,3.7h-40.7c-1.6,0-3-1.6-3-3.7
		C1049.7,717.6,1051,716,1052.7,716"/>
	<path class="st1" d="M1052.7,728.3h33.5c1.6,0,3,1.6,3,3.7c0,2-1.3,3.7-3,3.7h-33.5c-1.6,0-3-1.6-3-3.7
		C1049.7,730,1051,728.3,1052.7,728.3"/>
	<path class="st1" d="M1052.7,763.8h40.7c1.6,0,3,1.6,3,3.7c0,2-1.3,3.7-3,3.7h-40.7c-1.6,0-3-1.6-3-3.7
		C1049.7,765.4,1051,763.8,1052.7,763.8"/>
	<path class="st1" d="M1052.7,776.1h33.5c1.6,0,3,1.6,3,3.7c0,2-1.3,3.7-3,3.7h-33.5c-1.6,0-3-1.6-3-3.7
		C1049.7,777.8,1051,776.1,1052.7,776.1"/>
	<path class="st1" d="M1052.7,811.7h40.7c1.6,0,3,1.6,3,3.7c0,2-1.3,3.7-3,3.7h-40.7c-1.6,0-3-1.6-3-3.7
		C1049.7,813.4,1051,811.7,1052.7,811.7"/>
	<path class="st1" d="M1052.7,824.1h33.5c1.6,0,3,1.6,3,3.7c0,2-1.3,3.7-3,3.7h-33.5c-1.6,0-3-1.6-3-3.7
		C1049.7,825.8,1051,824.1,1052.7,824.1"/>
	<path class="st1" d="M1157.6,762.4h10.3c1.8,0,3.3,1.8,3.3,4.1v70.4c0,2.2-1.5,4.1-3.3,4.1h-10.3c-1.8,0-3.3-1.8-3.3-4.1v-70.4
		C1154.3,764.2,1155.8,762.4,1157.6,762.4"/>
	<path class="st1" d="M1185.1,787.5h10.3c1.8,0,3.3,1.8,3.3,4.1v45.3c0,2.2-1.5,4.1-3.3,4.1h-10.3c-1.8,0-3.3-1.8-3.3-4.1v-45.3
		C1181.7,789.4,1183.2,787.5,1185.1,787.5"/>
	<path class="st1" d="M1212.5,712.7h10.3c1.8,0,3.3,1.8,3.3,4.1v120c0,2.2-1.5,4.1-3.3,4.1h-10.3c-1.8,0-3.3-1.8-3.3-4.1v-120
		C1209.2,714.6,1210.7,712.7,1212.5,712.7"/>
	<path class="st1" d="M1241.1,690.5h10.3c1.8,0,3.3,1.8,3.3,4.1v142.3c0,2.2-1.5,4.1-3.3,4.1h-10.3c-1.8,0-3.3-1.8-3.3-4.1V694.5
		C1237.8,692.3,1239.3,690.5,1241.1,690.5"/>
	<path class="st1" d="M1270,730.1h10.3c1.8,0,3.3,1.8,3.3,4.1v102.6c0,2.2-1.5,4.1-3.3,4.1H1270c-1.8,0-3.3-1.8-3.3-4.1V734.2
		C1266.7,732,1268.2,730.1,1270,730.1"/>
	<path class="st1" d="M1298.4,787.5h10.3c1.8,0,3.3,1.8,3.3,4.1v45.3c0,2.2-1.5,4.1-3.3,4.1h-10.3c-1.8,0-3.3-1.8-3.3-4.1v-45.3
		C1295.1,789.4,1296.6,787.5,1298.4,787.5"/>
	<path class="st1" d="M1321.4,1072.4c2.3,2.6,2.4,7.2,0.2,10.1c-2.2,2.9-5.9,3.2-8.2,0.5c-2.3-2.6-2.4-7.2-0.2-10.1
		C1315.4,1070,1319,1069.7,1321.4,1072.4"/>
	<path class="st1" d="M1476.3,1093.2h45.7c1.9,0,3.5,2,3.5,4.4v38.3c0,2.4-1.6,4.4-3.5,4.4h-45.7c-1.9,0-3.5-2-3.5-4.4v-38.3
		C1472.7,1095.2,1474.3,1093.2,1476.3,1093.2"/>
	<path class="st1" d="M1495.9,1111.6h23.1c2,0,3.7,2,3.7,4.5v0c0,2.5-1.7,4.5-3.7,4.5h-23.1c-2,0-3.7-2-3.7-4.5v0
		C1492.2,1113.7,1493.9,1111.6,1495.9,1111.6"/>
	<path class="st1" d="M1467.1,642.5c7.8,0,14.1,7.8,14.1,17.4c0,9.6-6.3,17.4-14.1,17.4c-7.8,0-14.1-7.8-14.1-17.4
		C1453,650.3,1459.3,642.5,1467.1,642.5"/>
	<path class="st1" d="M1617.4,1147.3c3.2-0.3,5.9,2.8,6.1,6.8c0.2,4-2.2,7.4-5.3,7.7c-3.2,0.3-5.9-2.8-6.1-6.8
		C1611.9,1151,1614.3,1147.6,1617.4,1147.3"/>
	<path class="st15" d="M662.2,393c36.4,0,65.9,36.4,65.9,81.3c0,44.9-29.5,81.3-65.9,81.3c-36.4,0-65.9-36.4-65.9-81.3
		C596.2,429.4,625.8,393,662.2,393"/>
	<path class="st16" d="M664.9,481.1v24.5c3.1-0.7,5.4-2.3,7.1-4.5c1.7-2.3,2.5-4.9,2.5-8c0-3.2-0.8-5.8-2.4-7.5
		C670.5,483.8,668.1,482.3,664.9,481.1 M659.2,464.4V443c-2.5,0.9-4.5,2.2-6,3.7c-1.4,1.5-2.1,3.9-2.1,7c0,2.9,0.7,5.2,2,6.7
		C654.4,461.8,656.4,463.2,659.2,464.4z M664.9,426v6.1c3.2,0.4,6,1.2,8.3,2.5c2.3,1.2,4.3,3.1,6.1,5.6c1.4,1.9,2.4,3.9,3.2,5.9
		c0.7,2,1.1,3.9,1.1,5.5c0,1.9-0.6,3.5-1.7,4.9c-1.1,1.4-2.5,2-4,2c-3,0-4.9-2-5.8-5.9c-1-4.7-3.4-7.8-7.2-9.3v23.3
		c3.8,1.3,6.8,2.4,9,3.5c2.2,1,4.2,2.5,6,4.5c1.9,2,3.3,4.5,4.4,7.4c1,2.9,1.5,6,1.5,9.4c0,4.3-0.8,8.2-2.4,11.9
		c-1.6,3.7-4,6.7-7.2,9.1c-3.2,2.3-6.9,3.7-11.2,4.2v13.9c0,2.2-0.2,3.8-0.5,4.8c-0.3,1-1.1,1.5-2.3,1.5c-1.1,0-1.8-0.4-2.3-1.2
		c-0.4-0.8-0.7-2.1-0.7-3.8v-15.1c-3.5-0.5-6.6-1.5-9.3-3.1c-2.7-1.6-4.9-3.5-6.6-5.8c-1.8-2.3-3.1-4.8-3.9-7.3
		c-0.9-2.5-1.3-5-1.3-7.4c0-1.8,0.6-3.4,1.7-4.8c1.1-1.4,2.5-2.2,4.2-2.2c1.4,0,2.5,0.4,3.5,1.2c0.9,0.8,1.6,1.9,2,3.3
		c0.8,3.1,1.5,5.4,2.1,7c0.6,1.6,1.5,3.1,2.8,4.5c1.2,1.3,2.9,2.4,4.9,3.1v-26c-4.1-1.4-7.4-2.9-10.2-4.6c-2.7-1.7-4.9-4.1-6.6-7.2
		c-1.7-3.1-2.5-7.2-2.5-12.1c0-6.4,1.7-11.7,5-15.8c3.3-4.1,8.1-6.5,14.4-7.2v-5.9c0-3.1,1-4.7,2.9-4.7
		C664,421.4,664.9,423,664.9,426z"/>
	<path class="st17" d="M667.3,1185.7H1412c4.4,0,7.9,4.4,7.9,9.8v21.7c0,5.4-3.6,9.8-7.9,9.8H667.3c-4.4,0-7.9-4.4-7.9-9.8v-21.7
		C659.3,1190,662.9,1185.7,667.3,1185.7"/>
	<path class="st6" d="M695.8,1185.7H1156c4.4,0,7.9,4.4,7.9,9.8v21.7c0,5.4-3.6,9.8-7.9,9.8H695.8c-4.4,0-7.9-4.4-7.9-9.8v-21.7
		C687.9,1190,691.5,1185.7,695.8,1185.7"/>
	<path class="st18" d="M1108.2,1172h25c3.1,0,5.6,3.1,5.6,6.8c0,3.8-2.5,6.8-5.6,6.8h-25c-3.1,0-5.6-3.1-5.6-6.8
		C1102.7,1175,1105.2,1172,1108.2,1172"/>
	<path class="st18" d="M1234.7,1172h25c3.1,0,5.6,3.1,5.6,6.8c0,3.8-2.5,6.8-5.6,6.8h-25c-3.1,0-5.6-3.1-5.6-6.8
		C1229.2,1175,1231.7,1172,1234.7,1172"/>
	<path class="st18" d="M1127.2,1081.4h114c10.4,0,18.9,10.5,18.9,23.2v0c0,12.8-8.5,23.2-18.9,23.2h-114
		c-10.4,0-18.9-10.5-18.9-23.2v0C1108.4,1091.9,1116.9,1081.4,1127.2,1081.4"/>
	<path class="st8" d="M741.8,1155.7h152c5.9,0,10.7,5.9,10.7,13.2v3.7c0,7.2-4.8,13.2-10.7,13.2h-152c-5.9,0-10.7-5.9-10.7-13.2
		v-3.7C731.1,1161.6,735.9,1155.7,741.8,1155.7"/>
	<path class="st9" d="M802,1155.7h91.8c5.9,0,10.7,5.9,10.7,13.2v3.7c0,7.2-4.8,13.2-10.7,13.2H802c-5.9,0-10.7-5.9-10.7-13.2v-3.7
		C791.4,1161.6,796.2,1155.7,802,1155.7"/>
	<path class="st1" d="M858.9,1001.3h204.2c3.9,0,6.4,3.9,5.6,8.8l-28.1,159.2c-0.9,4.8-4.8,8.8-8.7,8.8H827.7
		c-3.9,0-6.4-3.9-5.6-8.8l28.1-159.2C851.1,1005.2,855,1001.3,858.9,1001.3"/>
	<path class="st19" d="M933.1,1185.7h245.7c4.4,0,7.9,4.4,7.9,9.8v21.7c0,5.4-3.6,9.8-7.9,9.8H933.1c-4.4,0-7.9-4.4-7.9-9.8v-21.7
		C925.1,1190,928.7,1185.7,933.1,1185.7"/>
	<path class="st20" d="M864.4,1008.9h204.2c3.9,0,6.4,3.9,5.6,8.8l-28.1,159.2c-0.9,4.8-4.8,8.8-8.7,8.8H833.2
		c-3.9,0-6.4-3.9-5.6-8.8l28.1-159.2C856.6,1012.8,860.5,1008.9,864.4,1008.9"/>
	<path class="st1" d="M957.7,1076.1c9.5,0,15.8,9.4,14.1,21.1c-1.7,11.7-10.7,21.1-20.2,21.1c-9.5,0-15.8-9.4-14.1-21.1
		C939.2,1085.5,948.2,1076.1,957.7,1076.1"/>
	<path class="st8" d="M828.2,1182.1c1,2.3,3,3.6,5.1,3.5c0,0,68.1,0,204.2,0c4.2-0.2,7.7-3.8,8.7-8.8c0,0,9.2-51.8,27.5-155.5
		C1016.4,1118.9,925.7,1178.2,828.2,1182.1"/>
	<path class="st21" d="M1093.3,1109.1h179.5c3.9,0,7.1,3.9,7.1,8.8v47.1c0,4.8-3.2,8.8-7.1,8.8h-179.5c-3.9,0-7.1-3.9-7.1-8.8v-47.1
		C1086.2,1113.1,1089.4,1109.1,1093.3,1109.1"/>
	<path class="st22" d="M1111.5,1122.9h145.2c3.9,0,7.1,3.9,7.1,8.8v17.3c0,4.8-3.2,8.8-7.1,8.8h-145.2c-3.9,0-7.1-3.9-7.1-8.8v-17.3
		C1104.4,1126.9,1107.6,1122.9,1111.5,1122.9"/>
	<rect x="1123.4" y="1134.2" class="st1" width="20.6" height="11.6"/>
	<rect x="1154" y="1134.2" class="st1" width="14.2" height="11.6"/>
	<path class="st1" d="M746.1,1167.9h6.8c1.7,0,3.1,1.7,3.1,3.9v0c0,2.1-1.4,3.9-3.1,3.9h-6.8c-1.7,0-3.1-1.7-3.1-3.9v0
		C743,1169.6,744.4,1167.9,746.1,1167.9"/>
	<path class="st1" d="M762.9,1167.9h6.8c1.7,0,3.1,1.7,3.1,3.9v0c0,2.1-1.4,3.9-3.1,3.9h-6.8c-1.7,0-3.1-1.7-3.1-3.9v0
		C759.8,1169.6,761.2,1167.9,762.9,1167.9"/>
	<path class="st1" d="M1130.1,1144.9c2.4,0,6.6-0.6,6.6-0.6c-2.6,55.8-39.6,86.9-125.5,84.4l-215.3,0.6
		c-21.5-0.1-32.5-20.4-33.6-53.8c1.3-1.2,6.4-2.2,8.5-0.2c1.5,29,7,44.2,25.5,45.1c0,0,71.6,0.1,214.9,0.4
		C1087,1222.7,1126.7,1197.4,1130.1,1144.9"/>
	<path class="st15" d="M1667.4,714.8c19.6,0,35.5,19.6,35.5,43.8c0,24.2-15.9,43.8-35.5,43.8c-19.6,0-35.5-19.6-35.5-43.8
		C1631.9,734.4,1647.8,714.8,1667.4,714.8"/>
	<path class="st16" d="M1677,743.7l-17.7,35.1c-0.4,1-1,1.4-1.5,1.4c-0.3,0-0.7-0.2-1-0.5c-0.3-0.3-0.5-0.7-0.5-1.2
		c0-0.4,0.1-0.8,0.4-1.3l17.8-35.4c0.3-0.6,0.6-1.1,0.8-1.4c0.2-0.3,0.6-0.5,1-0.5c0.4,0,0.8,0.2,1,0.5c0.3,0.3,0.4,0.7,0.4,1.2
		C1677.7,741.9,1677.5,742.6,1677,743.7 M1680.6,768.9c0-2.2-0.2-3.9-0.6-4.9c-0.4-1-1.1-1.6-2.1-1.6c-0.7,0-1.3,0.2-1.7,0.7
		c-0.4,0.5-0.7,1.2-0.8,2.2c-0.2,0.9-0.2,2.2-0.2,3.7c0,2.3,0.2,4,0.6,5.1c0.4,1.1,1.1,1.6,2.1,1.6c1,0,1.7-0.6,2.1-1.7
		C1680.4,773,1680.6,771.3,1680.6,768.9z M1684.5,769.2c0,3.3-0.6,5.8-1.8,7.4c-1.2,1.6-2.8,2.4-4.9,2.4c-1.3,0-2.4-0.3-3.4-1
		c-1-0.7-1.8-1.8-2.4-3.2c-0.6-1.5-0.9-3.2-0.9-5.4c0-3.4,0.5-6,1.6-7.7c1.1-1.7,2.7-2.6,5-2.6c1.1,0,2.1,0.2,2.9,0.6
		c0.8,0.4,1.5,1,2.1,1.9c0.6,0.8,1,1.9,1.3,3.1C1684.4,766.1,1684.5,767.5,1684.5,769.2z M1658.8,750c0-2.3-0.2-3.9-0.6-5
		c-0.4-1-1.1-1.6-2.1-1.6c-0.7,0-1.2,0.2-1.6,0.7c-0.4,0.5-0.7,1.2-0.8,2.2c-0.2,1-0.2,2.2-0.2,3.7c0,1.6,0.1,2.8,0.2,3.8
		c0.1,1,0.4,1.7,0.8,2.2c0.4,0.5,0.9,0.7,1.6,0.7c1,0,1.8-0.6,2.1-1.7C1658.6,754.1,1658.8,752.4,1658.8,750z M1662.8,750.3
		c0,3.3-0.6,5.8-1.8,7.4c-1.2,1.6-2.8,2.4-4.9,2.4c-1.3,0-2.4-0.3-3.4-1c-1-0.7-1.8-1.8-2.4-3.2c-0.6-1.5-0.8-3.3-0.8-5.4
		c0-2.3,0.2-4.2,0.7-5.7c0.4-1.5,1.1-2.7,2.1-3.4c1-0.8,2.2-1.2,3.8-1.2c1.1,0,2.1,0.2,2.9,0.6s1.5,1.1,2.1,1.9
		c0.6,0.9,1,1.9,1.3,3.2C1662.6,747.2,1662.8,748.6,1662.8,750.3z"/>
	<path class="st23" d="M1733.1,1391.6c-5.1,13.5-7.3,13.5-6.6,0c8.3-71.2-14.4-142.5-59.8-187.7c-1-1.4-0.9-3.4,0.1-4.7
		c1-1.3,2.7-1.4,3.8-0.3C1719.3,1243.3,1743.5,1317.9,1733.1,1391.6"/>
	<path class="st19" d="M1773.5,1391.6c-13.5,0-27,0-40.5,0c-13.5,0-27,0-40.5,0c-9.8,0-16.6,8-15.2,17.7c2.1,14,4.2,28.1,6.3,42.1
		c2.1,14,4.2,28.1,6.3,42.1c1.4,9.7,8.2,17.6,15,17.6c9.4,0,18.7,0,28.1,0c9.4,0,18.7,0,28.1,0c6.8,0,13.5-7.9,15-17.6
		c2.1-14,4.2-28.1,6.3-42.1c2.1-14,4.2-28.1,6.3-42.1C1790.2,1399.6,1783.3,1391.6,1773.5,1391.6"/>
	<path class="st24" d="M1676.9,1144.8c-3.6,0.8-4.1,17.1-1.3,36.4c2.9,19.3,8.1,34.3,11.6,33.5c3.6-0.8,4.1-17.1,1.3-36.4
		C1685.7,1159,1680.5,1144,1676.9,1144.8"/>
	<path class="st24" d="M1626.7,1199.9c-1.2,4.2,10,12.8,25.1,19.3c15,6.5,28.2,8.3,29.4,4.1c1.2-4.2-10-12.8-25.1-19.3
		C1641,1197.5,1627.9,1195.7,1626.7,1199.9"/>
	<path class="st24" d="M1700.7,1155.3c-3.6,0.2-6,17.6-5.4,38.8c0.6,21.2,4.1,38.3,7.7,38.1c3.6-0.2,6-17.6,5.4-38.8
		C1707.8,1172.1,1704.4,1155.1,1700.7,1155.3"/>
	<path class="st24" d="M1630.7,1231.3c-0.4,4.4,13,10.2,30.1,13c17.1,2.8,31.3,1.4,31.8-3c0.4-4.4-13-10.2-30.1-13
		C1645.4,1225.6,1631.1,1226.9,1630.7,1231.3"/>
	<path class="st24" d="M1727.9,1166.3c-3.6-0.7-9.3,17.6-12.7,40.9c-3.5,23.3-3.4,42.9,0.2,43.6c3.6,0.7,9.3-17.6,12.7-40.9
		C1731.6,1186.5,1731.5,1167,1727.9,1166.3"/>
	<path class="st24" d="M1633.2,1258.7c0,4.5,15.6,8.3,34.9,8.6c19.3,0.3,34.9-3,34.9-7.5c0-4.5-15.6-8.3-34.9-8.6
		C1648.8,1250.9,1633.2,1254.2,1633.2,1258.7"/>
	<path class="st24" d="M1748.2,1189c-3.4-1.6-11.9,15-18.9,37.1c-7.1,22.1-10.1,41.2-6.7,42.8c3.4,1.6,11.9-15,18.9-37.1
		C1748.5,1209.8,1751.5,1190.6,1748.2,1189"/>
	<path class="st24" d="M1710.4,1278.9c-0.2-4.4-15.9-7.4-35.2-6.6c-19.2,0.8-34.7,5.1-34.5,9.6c0.2,4.4,15.9,7.4,35.2,6.6
		C1695.1,1287.6,1710.6,1283.4,1710.4,1278.9"/>
	<path class="st24" d="M1770,1216c-2.9-2.7-14.8,10.3-26.7,29c-11.8,18.7-19.1,36.1-16.2,38.8c2.9,2.7,14.8-10.3,26.7-29
		C1765.7,1236,1772.9,1218.7,1770,1216"/>
	<path class="st24" d="M1714.9,1296c-0.4-4.4-16.3-6.2-35.4-3.9c-19.2,2.3-34.4,7.7-34,12.1c0.4,4.4,16.3,6.2,35.4,3.9
		C1700.1,1305.9,1715.3,1300.4,1714.9,1296"/>
	<path class="st24" d="M1781.8,1240.4c-2.6-3-15.6,8.3-29,25.4c-13.4,17.1-22.1,33.4-19.5,36.4c2.6,3,15.6-8.3,29-25.4
		C1775.7,1259.8,1784.4,1243.5,1781.8,1240.4"/>
	<path class="st24" d="M1719.5,1309.3c-1-4.3-16.9-2.8-35.5,3.4c-18.6,6.2-32.9,14.6-31.9,18.9c1,4.3,16.9,2.8,35.5-3.4
		C1706.2,1322,1720.5,1313.6,1719.5,1309.3"/>
	<path class="st6" d="M1717.2,1403.9c-4.1,0-8.1,0-12.2,0c-4.1,0-8.1,0-12.2,0c-4.6,0-7.6,5.9-6.6,13.2c1.6,11.3,3.2,22.7,4.9,34
		c1.6,11.3,3.2,22.7,4.9,34c1,7.2,4.4,13.1,7.6,13.1c2.7,0,5.5,0,8.2,0c2.7,0,5.5,0,8.2,0c3.1,0,5.7-5.9,5.7-13.1
		c0-11.3,0-22.7,0-34c0-11.3,0-22.7,0-34C1725.7,1409.8,1721.9,1403.9,1717.2,1403.9"/>
	<path class="st1" d="M600.1,810.7c-9.2,34.1-34.8,35.9-76.8,5.7c-4.8,3.4-7.2,5.2-7.2,5.2c62.1,62,92.4,59.4,90.9-7.9
		C602.4,811.7,600.1,810.7,600.1,810.7"/>
	<path class="st1" d="M586,671.5c1.6-0.2,3,1.2,3.2,3.2c0.2,2-1,3.7-2.6,3.9c-1.6,0.2-3-1.2-3.2-3.2
		C583.3,673.4,584.4,671.7,586,671.5"/>
	<path class="st1" d="M713.4,911.2c0.7-4,3.9-6.5,7.1-5.7c3.2,0.9,5.3,4.8,4.6,8.8c-0.7,4-3.9,6.5-7.1,5.7
		C714.8,919.1,712.7,915.2,713.4,911.2"/>
	<path class="st1" d="M449.9,1074.6c3.3,0,6,3.3,6,7.4c0,4.1-2.7,7.4-6,7.4c-3.3,0-6-3.3-6-7.4
		C443.9,1077.9,446.6,1074.6,449.9,1074.6"/>
	<path class="st1" d="M557.9,1036.9c2.3,0,4.1,2.3,4.1,5.1c0,2.8-1.8,5.1-4.1,5.1c-2.3,0-4.1-2.3-4.1-5.1
		C553.8,1039.1,555.7,1036.9,557.9,1036.9"/>
	<path class="st23" d="M348.4,1384c5.1,13.5,7.3,13.5,6.6,0c-8.3-71.2,14.4-142.5,59.8-187.7c1-1.4,0.9-3.4-0.1-4.7
		c-1-1.3-2.7-1.4-3.8-0.3C362.2,1235.7,338,1310.3,348.4,1384"/>
	<path class="st19" d="M308,1384c13.5,0,27,0,40.5,0c13.5,0,27,0,40.5,0c9.8,0,16.6,8,15.2,17.7c-2.1,14-4.2,28.1-6.3,42.1
		c-2.1,14-4.2,28.1-6.3,42.1c-1.4,9.7-8.2,17.6-15,17.6c-9.4,0-18.7,0-28.1,0c-9.4,0-18.7,0-28.1,0c-6.8,0-13.5-7.9-15-17.6
		c-2.1-14-4.2-28.1-6.3-42.1c-2.1-14-4.2-28.1-6.3-42.1C291.4,1391.9,298.2,1384,308,1384"/>
	<path class="st24" d="M404.6,1137.1c3.6,0.8,4.1,17.1,1.3,36.4c-2.9,19.3-8.1,34.3-11.6,33.5c-3.6-0.8-4.1-17.1-1.3-36.4
		C395.8,1151.3,401,1136.3,404.6,1137.1"/>
	<path class="st24" d="M454.8,1192.2c1.2,4.2-10,12.8-25.1,19.3c-15,6.5-28.2,8.3-29.4,4.1c-1.2-4.2,10-12.8,25.1-19.3
		C440.5,1189.8,453.6,1188,454.8,1192.2"/>
	<path class="st24" d="M380.8,1147.6c3.6,0.2,6,17.6,5.4,38.8c-0.6,21.2-4.1,38.3-7.7,38.1c-3.6-0.2-6-17.6-5.4-38.8
		C373.7,1164.5,377.2,1147.4,380.8,1147.6"/>
	<path class="st24" d="M450.8,1223.7c0.4,4.4-13,10.2-30.1,13c-17.1,2.8-31.3,1.4-31.8-3c-0.4-4.4,13-10.2,30.1-13
		C436.2,1217.9,450.4,1219.3,450.8,1223.7"/>
	<path class="st24" d="M353.6,1158.6c3.6-0.7,9.3,17.6,12.7,40.9c3.5,23.3,3.4,42.9-0.2,43.6c-3.6,0.7-9.3-17.6-12.7-40.9
		C349.9,1178.9,350,1159.3,353.6,1158.6"/>
	<path class="st24" d="M448.3,1251c0,4.5-15.6,8.3-34.9,8.6c-19.3,0.3-34.9-3-34.9-7.5c0-4.5,15.6-8.3,34.9-8.6
		C432.7,1243.2,448.3,1246.6,448.3,1251"/>
	<path class="st24" d="M333.3,1181.4c3.4-1.6,11.9,15,18.9,37.1c7.1,22.1,10.1,41.2,6.7,42.8c-3.4,1.6-11.9-15-18.9-37.1
		C333,1202.1,330,1182.9,333.3,1181.4"/>
	<path class="st24" d="M371.1,1271.3c0.2-4.4,15.9-7.4,35.2-6.6c19.2,0.8,34.7,5.1,34.5,9.6c-0.2,4.4-15.9,7.4-35.2,6.6
		C386.4,1280,370.9,1275.7,371.1,1271.3"/>
	<path class="st24" d="M311.5,1208.3c2.9-2.7,14.8,10.3,26.7,29c11.8,18.7,19.1,36.1,16.2,38.8c-2.9,2.7-14.8-10.3-26.7-29
		C315.8,1228.4,308.6,1211,311.5,1208.3"/>
	<path class="st24" d="M366.6,1288.4c0.4-4.4,16.3-6.2,35.4-3.9c19.2,2.3,34.4,7.7,34,12.1c-0.4,4.4-16.3,6.2-35.4,3.9
		C381.4,1298.2,366.2,1292.8,366.6,1288.4"/>
	<path class="st24" d="M299.8,1232.8c2.6-3,15.6,8.3,29,25.4c13.4,17.1,22.1,33.4,19.5,36.4c-2.6,3-15.6-8.3-29-25.4
		C305.8,1252.1,297.1,1235.8,299.8,1232.8"/>
	<path class="st24" d="M362,1301.6c1-4.3,16.9-2.8,35.5,3.4c18.6,6.2,32.9,14.6,31.9,18.9c-1,4.3-16.9,2.8-35.5-3.4
		C375.3,1314.4,361,1305.9,362,1301.6"/>
	<path class="st6" d="M364.3,1396.2c4,0,8.1,0,12.2,0c4.1,0,8.1,0,12.2,0c4.6,0,7.6,5.9,6.6,13.2c-1.6,11.3-3.2,22.7-4.9,34
		c-1.6,11.3-3.2,22.7-4.9,34c-1,7.2-4.4,13.1-7.6,13.1c-2.7,0-5.5,0-8.2,0c-2.7,0-5.5,0-8.2,0c-3.1,0-5.7-5.9-5.7-13.1
		c0-11.3,0-22.7,0-34c0-11.3,0-22.7,0-34C355.8,1402.1,359.6,1396.2,364.3,1396.2"/>
	<path class="st1" d="M856.8,1431.6c10.9,0,19.7,10.9,19.7,24.3c0,13.4-8.8,24.3-19.7,24.3c-10.9,0-19.7-10.9-19.7-24.3
		C837.1,1442.5,845.9,1431.6,856.8,1431.6"/>
	<path class="st1" d="M948.1,1396.9c6.4,0,11.6,6.4,11.6,14.3c0,7.9-5.2,14.3-11.6,14.3c-6.4,0-11.6-6.4-11.6-14.3
		C936.4,1403.3,941.6,1396.9,948.1,1396.9"/>
	<path class="st1" d="M889,1360.6c5,0,9,5,9,11.1c0,6.1-4,11.1-9,11.1s-9-5-9-11.1C880,1365.5,884,1360.6,889,1360.6"/>
	<path class="st1" d="M829.2,1347.4c3.2,0,5.7,3.2,5.7,7.1c0,3.9-2.6,7.1-5.7,7.1c-3.2,0-5.7-3.2-5.7-7.1
		C823.5,1350.6,826,1347.4,829.2,1347.4"/>
	<path class="st1" d="M773.5,1438c5,0,9,5,9,11.1c0,6.1-4,11.1-9,11.1s-9-5-9-11.1C764.5,1443,768.5,1438,773.5,1438"/>
	<path class="st1" d="M1062.9,1479.8c5,0,9,5,9,11.1c0,6.1-4,11.1-9,11.1s-9-5-9-11.1C1053.9,1484.7,1058,1479.8,1062.9,1479.8"/>
	<path class="st1" d="M928.1,1521.6c4.1,0,7.5,4.1,7.5,9.2c0,5.1-3.3,9.2-7.5,9.2s-7.5-4.1-7.5-9.2
		C920.6,1525.7,924,1521.6,928.1,1521.6"/>
	<path class="st1" d="M1050.5,1396.2c5,0,9.1,5,9.1,11.2c0,6.2-4.1,11.2-9.1,11.2s-9.1-5-9.1-11.2
		C1041.4,1401.2,1045.5,1396.2,1050.5,1396.2"/>
	<path class="st1" d="M1146.2,1415.8c3.6,0,6.4,3.6,6.4,7.9c0,4.4-2.9,7.9-6.4,7.9c-3.6,0-6.4-3.6-6.4-7.9
		C1139.7,1419.3,1142.6,1415.8,1146.2,1415.8"/>
	<path class="st1" d="M1115,1367.2c3,0,5.4,3,5.4,6.6c0,3.7-2.4,6.6-5.4,6.6s-5.4-3-5.4-6.6C1109.6,1370.1,1112,1367.2,1115,1367.2"
		/>
	<path class="st1" d="M1243.2,1475.9c3,0,5.4,3,5.4,6.6c0,3.7-2.4,6.6-5.4,6.6c-3,0-5.4-3-5.4-6.6
		C1237.8,1478.8,1240.2,1475.9,1243.2,1475.9"/>
	<path class="st1" d="M1282.4,1461.4c2.5,0,4.5,2.5,4.5,5.5c0,3-2,5.5-4.5,5.5c-2.5,0-4.5-2.5-4.5-5.5
		C1277.9,1463.9,1279.9,1461.4,1282.4,1461.4"/>
	<path class="st1" d="M1321.7,1453.2c1.9,0,3.5,1.9,3.5,4.3c0,2.4-1.6,4.3-3.5,4.3c-1.9,0-3.5-1.9-3.5-4.3
		C1318.2,1455.1,1319.7,1453.2,1321.7,1453.2"/>
	<path class="st1" d="M1487.4,405.3c19.7,0,35.7,19.7,35.7,44c0,24.3-16,44-35.7,44c-19.7,0-35.7-19.7-35.7-44
		C1451.7,425,1467.7,405.3,1487.4,405.3"/>
	<path class="st25" d="M1487.4,429.6c8.8,0,15.9,8.8,15.9,19.6c0,10.8-7.1,19.6-15.9,19.6c-8.8,0-15.9-8.8-15.9-19.6
		C1471.5,438.4,1478.6,429.6,1487.4,429.6"/>
	<rect x="1476.6" y="386" class="st1" width="20.9" height="29.8"/>
	<rect x="1476.6" y="483.7" class="st1" width="20.9" height="29.8"/>
	<polygon class="st1" points="1501.3,485.6 1517.8,469.9 1532.5,493.5 1516,509.2 	"/>
	<polygon class="st1" points="1472.8,485.6 1456.2,469.9 1441.5,493.5 1458.1,509.2 	"/>
	<polygon class="st1" points="1501.3,412 1517.8,427.7 1532.5,404.1 1516,388.4 	"/>
	<polygon class="st1" points="1472.8,412 1456.2,427.7 1441.5,404.1 1458.1,388.4 	"/>
	<rect x="1432.2" y="433.9" class="st1" width="26.1" height="24.3"/>
	<rect x="1519.2" y="433.9" class="st1" width="26.1" height="24.3"/>
	<path class="st1" d="M1562.7,366.6c9.8,0,17.7,9.8,17.7,21.9c0,12.1-7.9,21.9-17.7,21.9c-9.8,0-17.7-9.8-17.7-21.9
		C1545,376.4,1552.9,366.6,1562.7,366.6"/>
	<path class="st25" d="M1562.7,378.7c4.4,0,7.9,4.4,7.9,9.8c0,5.4-3.5,9.8-7.9,9.8c-4.4,0-7.9-4.4-7.9-9.8
		C1554.8,383,1558.4,378.7,1562.7,378.7"/>
	<rect x="1557.4" y="357" class="st1" width="10.4" height="14.8"/>
	<rect x="1557.4" y="405.5" class="st1" width="10.4" height="14.8"/>
	<polygon class="st1" points="1569.6,406.5 1577.8,398.7 1585.1,410.4 1576.9,418.2 	"/>
	<polygon class="st1" points="1555.5,406.5 1547.2,398.7 1539.9,410.4 1548.1,418.2 	"/>
	<polygon class="st1" points="1569.6,369.9 1577.8,377.7 1585.1,366 1576.9,358.2 	"/>
	<polygon class="st1" points="1555.5,369.9 1547.2,377.7 1539.9,366 1548.1,358.2 	"/>
	<rect x="1535.3" y="380.8" class="st1" width="13" height="12.1"/>
	<rect x="1578.5" y="380.8" class="st1" width="13" height="12.1"/>
	<rect x="236.1" y="822.3" class="st1" width="133" height="147.6"/>
	<rect x="250.7" y="838.6" class="st25" width="103.8" height="115.2"/>
	<rect x="270.2" y="859.8" class="st1" width="64.2" height="12.2"/>
	<rect x="270.2" y="884.6" class="st1" width="64.2" height="12.2"/>
	<rect x="270.2" y="911.5" class="st1" width="64.2" height="12.2"/>
	<rect x="178.9" y="1003.7" class="st1" width="79.9" height="88.7"/>
	<rect x="187.7" y="1013.5" class="st25" width="62.3" height="69.2"/>
	<rect x="199.4" y="1026.2" class="st1" width="38.5" height="7.3"/>
	<rect x="199.4" y="1041.1" class="st1" width="38.5" height="7.3"/>
	<rect x="199.4" y="1057.3" class="st1" width="38.5" height="7.3"/>
	<path class="st12" d="M1646.6,512.3h150.1c3.9,0,7.1,3.9,7.1,8.8v79.8c0,4.8-3.2,8.8-7.1,8.8h-137.9c0,0-14.4,11.9-43.3,35.7
		c0,0,8-17.4,24.1-52.2v-72C1639.5,516.3,1642.7,512.3,1646.6,512.3"/>
	<path class="st1" d="M1686.8,546.9c5.6,0,10.2,5.6,10.2,12.6c0,6.9-4.6,12.6-10.2,12.6c-5.6,0-10.2-5.6-10.2-12.6
		C1676.6,552.5,1681.2,546.9,1686.8,546.9"/>
	<path class="st1" d="M1722,546.9c5.6,0,10.2,5.6,10.2,12.6c0,6.9-4.6,12.6-10.2,12.6c-5.6,0-10.2-5.6-10.2-12.6
		C1711.8,552.5,1716.3,546.9,1722,546.9"/>
	<path class="st1" d="M1755.2,546.9c5.6,0,10.2,5.6,10.2,12.6c0,6.9-4.6,12.6-10.2,12.6c-5.6,0-10.2-5.6-10.2-12.6
		C1745,552.5,1749.6,546.9,1755.2,546.9"/>
	<path class="st9" d="M408.9,591.2H258.9c-3.9,0-7.1,3.9-7.1,8.8v79.8c0,4.8,3.2,8.8,7.1,8.8h137.9c0,0,14.4,11.9,43.3,35.7
		c0,0-8-17.4-24.1-52.2v-72C416.1,595.2,412.9,591.2,408.9,591.2"/>
	<path class="st1" d="M368.7,625.8c-5.6,0-10.2,5.6-10.2,12.6c0,6.9,4.6,12.6,10.2,12.6c5.6,0,10.2-5.6,10.2-12.6
		C378.9,631.4,374.3,625.8,368.7,625.8"/>
	<path class="st1" d="M333.6,625.8c-5.6,0-10.2,5.6-10.2,12.6c0,6.9,4.6,12.6,10.2,12.6c5.6,0,10.2-5.6,10.2-12.6
		C343.8,631.4,339.2,625.8,333.6,625.8"/>
	<path class="st1" d="M300.3,625.8c-5.6,0-10.2,5.6-10.2,12.6c0,6.9,4.6,12.6,10.2,12.6c5.6,0,10.2-5.6,10.2-12.6
		C310.5,631.4,305.9,625.8,300.3,625.8"/>
</g>
</svg>
