<?xml version="1.0" encoding="utf-8"?>
<!-- Generator: Adobe Illustrator 21.0.0, SVG Export Plug-In . SVG Version: 6.00 Build 0)  -->
<svg version="1.1" id="Layer_1" xmlns="http://www.w3.org/2000/svg" xmlns:xlink="http://www.w3.org/1999/xlink" x="0px" y="0px"
	 viewBox="0 0 2340 1560" style="enable-background:new 0 0 2340 1560;" xml:space="preserve">
<style type="text/css">
	.st0{fill-rule:evenodd;clip-rule:evenodd;fill:#C2DDF3;}
	.st1{fill-rule:evenodd;clip-rule:evenodd;fill:#FFFFFF;}
	.st2{fill-rule:evenodd;clip-rule:evenodd;fill:#FDF9FC;}
	.st3{fill-rule:evenodd;clip-rule:evenodd;fill:#84BDDD;}
	.st4{fill-rule:evenodd;clip-rule:evenodd;fill:#4E8DAA;}
	.st5{fill-rule:evenodd;clip-rule:evenodd;fill:#C3624B;}
	.st6{fill-rule:evenodd;clip-rule:evenodd;fill:#EB8970;}
	.st7{fill-rule:evenodd;clip-rule:evenodd;fill:#93C4DF;}
	.st8{fill-rule:evenodd;clip-rule:evenodd;fill:#C28ABD;}
	.st9{fill-rule:evenodd;clip-rule:evenodd;fill:#A858A2;}
	.st10{fill-rule:evenodd;clip-rule:evenodd;fill:#903895;}
	.st11{fill:#903895;}
	.st12{fill-rule:evenodd;clip-rule:evenodd;fill:#9C88C0;}
	.st13{fill-rule:evenodd;clip-rule:evenodd;fill:#7857A4;}
	.st14{fill-rule:evenodd;clip-rule:evenodd;fill:#6E3E98;}
	.st15{fill-rule:evenodd;clip-rule:evenodd;fill:#53BA65;}
	.st16{fill:#FFFFFF;}
	.st17{fill-rule:evenodd;clip-rule:evenodd;fill:#DB8169;}
	.st18{fill-rule:evenodd;clip-rule:evenodd;fill:#846FB2;}
	.st19{fill-rule:evenodd;clip-rule:evenodd;fill:#F8A38C;}
	.st20{fill-rule:evenodd;clip-rule:evenodd;fill:#CEABD1;}
	.st21{fill-rule:evenodd;clip-rule:evenodd;fill:#A492C5;}
	.st22{fill-rule:evenodd;clip-rule:evenodd;fill:#553E98;}
	.st23{fill-rule:evenodd;clip-rule:evenodd;fill:#34679A;}
	.st24{fill-rule:evenodd;clip-rule:evenodd;fill:#8584C0;}
	.st25{fill-rule:evenodd;clip-rule:evenodd;fill:#F8F2F8;}
</style>
<g>
	<path class="st0" d="M366.2,1202.4c395.7,3.2,606.8,3.2,633.4,0.2c67-124.2,68-186.4-23.4-221.5c-39.5-17.1-38.1-52.4-34.4-96.6
		c7.5-64.6-78.2-182.4-335.9-72.4C246.2,967.8,226.2,1065.6,366.2,1202.4"/>
	<path class="st1" d="M533.9,997.9c26.4,0,47.8,19.8,47.8,44.3c0,24.5-21.4,44.3-47.8,44.3c-26.4,0-47.8-19.8-47.8-44.3
		C486.1,1017.7,507.5,997.9,533.9,997.9"/>
	<path class="st2" d="M651.2,885.4c26.4,0,47.8,19.8,47.8,44.3c0,24.5-21.4,44.3-47.8,44.3c-26.4,0-47.8-19.8-47.8-44.3
		C603.4,905.3,624.8,885.4,651.2,885.4"/>
	<path class="st2" d="M728.6,864.3c11.5,0,20.9,8.7,20.9,19.3c0,10.7-9.3,19.3-20.9,19.3c-11.5,0-20.9-8.7-20.9-19.3
		C707.7,872.9,717.1,864.3,728.6,864.3"/>
	<path class="st3" d="M398.2,1205.1c382.2,7.3,573.3,10.9,573.3,10.9c4.3-32.8-12.6-64.8-43.1-81.8c-30.5-17-69-15.8-98.2,3
		c2.2-63.4-43.6-119.6-110-135c-66.4-15.4-135.3,14.1-165.7,70.9c-41.3-29.1-99.1-26.8-137.5,5.6
		C378.7,1111.2,370.7,1164.3,398.2,1205.1"/>
	<path class="st4" d="M452.9,1212.9c283.8,3.4,425.8,5.1,425.8,5.1c-10.8-38.8-52-63.4-94.6-56.5c-10.5-41.3-51.9-69.3-97.5-66
		c-45.6,3.3-81.8,36.9-85.3,79.2c-24.3-16.2-55.2-21.3-84.1-13.9C488.3,1168.3,464.7,1187.4,452.9,1212.9"/>
	<rect x="790.4" y="1125.7" class="st5" width="12.6" height="92.4"/>
	<rect x="786.2" y="1125.7" class="st6" width="9.6" height="92.4"/>
	<rect x="563.7" y="1125.7" class="st5" width="12.6" height="92.4"/>
	<rect x="559.5" y="1125.7" class="st6" width="9.6" height="92.4"/>
	<path class="st5" d="M550.9,1115.9h265c2.3,0,4.1,1.7,4.1,3.8v6.8c0,2.1-1.8,3.8-4.1,3.8h-265c-2.3,0-4.1-1.7-4.1-3.8v-6.8
		C546.8,1117.6,548.7,1115.9,550.9,1115.9"/>
	<path class="st7" d="M552,905.2h270.2c3.8,0,6.8,2.9,6.8,6.3v133.7c0,3.5-3.1,6.3-6.8,6.3H552c-3.8,0-6.8-2.9-6.8-6.3V911.6
		C545.2,908.1,548.2,905.2,552,905.2"/>
	<rect x="566.8" y="944" class="st8" width="101.3" height="82.7"/>
	<rect x="566.8" y="944" class="st9" width="32.9" height="82.7"/>
	<rect x="566.8" y="935.7" class="st10" width="101.3" height="16.6"/>
	<path class="st1" d="M574.7,941.7h55c1.1,0,2,0.8,2,1.8v0c0,1-0.9,1.8-2,1.8h-55c-1.1,0-2-0.8-2-1.8v0
		C572.8,942.5,573.6,941.7,574.7,941.7"/>
	<path class="st1" d="M647.4,941.9c1,0,1.9,0.8,1.9,1.8s-0.8,1.8-1.9,1.8c-1,0-1.9-0.8-1.9-1.8S646.3,941.9,647.4,941.9"/>
	<path class="st1" d="M653.8,941.9c1,0,1.9,0.8,1.9,1.8s-0.8,1.8-1.9,1.8s-1.9-0.8-1.9-1.8S652.8,941.9,653.8,941.9"/>
	<path class="st1" d="M660.9,941.9c1,0,1.9,0.8,1.9,1.8s-0.8,1.8-1.9,1.8c-1,0-1.9-0.8-1.9-1.8S659.9,941.9,660.9,941.9"/>
	<rect x="572.3" y="957.5" class="st1" width="22.5" height="2.4"/>
	<rect x="572.3" y="961.4" class="st1" width="19.1" height="2.4"/>
	<rect x="572.3" y="965.2" class="st1" width="12.9" height="2.4"/>
	<rect x="572.3" y="974.9" class="st1" width="22.5" height="2.4"/>
	<rect x="572.3" y="978.7" class="st1" width="19.1" height="2.4"/>
	<rect x="572.3" y="982.5" class="st1" width="12.9" height="2.4"/>
	<rect x="572.3" y="993.1" class="st1" width="22.5" height="2.4"/>
	<rect x="572.3" y="996.9" class="st1" width="19.1" height="2.4"/>
	<rect x="572.3" y="1000.8" class="st1" width="12.9" height="2.4"/>
	<rect x="572.3" y="1009.4" class="st1" width="22.5" height="2.4"/>
	<rect x="572.3" y="1013.2" class="st1" width="19.1" height="2.4"/>
	<rect x="572.3" y="1017.1" class="st1" width="12.9" height="2.4"/>
	<rect x="605.2" y="957.5" class="st1" width="11.7" height="10.9"/>
	<rect x="619.2" y="958.2" class="st1" width="43.1" height="3.5"/>
	<rect x="619.2" y="963.4" class="st1" width="37.2" height="3.5"/>
	<rect x="605.2" y="975" class="st1" width="11.7" height="10.9"/>
	<rect x="619.2" y="975.6" class="st1" width="21.1" height="3.5"/>
	<rect x="619.2" y="980.9" class="st1" width="37.2" height="3.5"/>
	<rect x="605.2" y="992.7" class="st1" width="11.7" height="10.9"/>
	<rect x="619.2" y="993.4" class="st1" width="21.1" height="3.5"/>
	<rect x="619.2" y="998.7" class="st1" width="8.4" height="3.5"/>
	<rect x="605.2" y="1009.2" class="st1" width="11.7" height="10.9"/>
	<rect x="619.2" y="1010.2" class="st1" width="35.9" height="3.5"/>
	<rect x="619.2" y="1015.3" class="st1" width="43.1" height="3.5"/>
	<path class="st1" d="M564.3,926c5.2,0,9.5,3.9,9.5,8.8c0,4.8-4.2,8.8-9.5,8.8s-9.5-3.9-9.5-8.8C554.8,929.9,559.1,926,564.3,926"/>
	<polygon class="st11" points="562.2,940.1 562.2,934.9 560.2,934.9 564.1,929.8 568.1,934.9 566.1,934.9 566.1,940.1 	"/>
	<path class="st1" d="M556.3,911.8h261.3c1,0,1.9,0.8,1.9,1.7v0c0,1-0.8,1.7-1.9,1.7H556.3c-1,0-1.9-0.8-1.9-1.7v0
		C554.5,912.6,555.3,911.8,556.3,911.8"/>
	<rect x="688" y="939.5" class="st12" width="119.5" height="87.2"/>
	<rect x="683.2" y="935.7" class="st13" width="23.5" height="91"/>
	<rect x="683.2" y="935.7" class="st14" width="124.3" height="17"/>
	<path class="st1" d="M692.9,941.7h72.6c1.1,0,2,0.8,2,1.8v0c0,1-0.9,1.8-2,1.8h-72.6c-1.1,0-2-0.8-2-1.8v0
		C691,942.5,691.8,941.7,692.9,941.7"/>
	<path class="st1" d="M781.2,941.9c1,0,1.9,0.8,1.9,1.8s-0.8,1.8-1.9,1.8s-1.9-0.8-1.9-1.8S780.2,941.9,781.2,941.9"/>
	<path class="st1" d="M789.1,941.9c1,0,1.9,0.8,1.9,1.8s-0.8,1.8-1.9,1.8c-1,0-1.9-0.8-1.9-1.8S788.1,941.9,789.1,941.9"/>
	<path class="st1" d="M797.2,941.9c1,0,1.9,0.8,1.9,1.8s-0.8,1.8-1.9,1.8s-1.9-0.8-1.9-1.8S796.1,941.9,797.2,941.9"/>
	<path class="st1" d="M809.1,926c5.2,0,9.5,3.9,9.5,8.8c0,4.8-4.2,8.8-9.5,8.8c-5.2,0-9.5-3.9-9.5-8.8
		C799.7,929.9,803.9,926,809.1,926"/>
	<polygon class="st14" points="808,930.4 810.1,930.4 810.1,933.7 814.5,933.7 814.5,935.6 810.1,935.6 810.1,939.4 808,939.4 
		808,935.6 803.8,935.6 803.8,933.7 808,933.7 	"/>
	<path class="st1" d="M687.1,960.6h15.6c0.6,0,1.1,0.5,1.1,1.1c0,0.6-0.5,1.1-1.1,1.1h-15.6c-0.6,0-1.1-0.5-1.1-1.1
		C686,961.1,686.5,960.6,687.1,960.6"/>
	<path class="st1" d="M718.3,961.4L718.3,961.4c0.7,0,1.3,0.6,1.3,1.2v51.5h77.9c0.7,0,1.2,0.5,1.2,1.1v0c0,0.6-0.6,1.1-1.2,1.1
		h-79.4c-0.7,0-1.2-0.5-1.2-1.1v0c0,0,0,0,0-0.1c0,0,0,0,0-0.1v-52.5C716.9,961.9,717.5,961.4,718.3,961.4"/>
	<path class="st1" d="M687.1,964.2H700c0.6,0,1.1,0.5,1.1,1.1c0,0.6-0.5,1.1-1.1,1.1h-12.9c-0.6,0-1.1-0.5-1.1-1.1
		C686,964.7,686.5,964.2,687.1,964.2"/>
	<path class="st1" d="M687.1,974h15.6c0.6,0,1.1,0.5,1.1,1.1s-0.5,1.1-1.1,1.1h-15.6c-0.6,0-1.1-0.5-1.1-1.1S686.5,974,687.1,974"/>
	<path class="st1" d="M687.1,977.6H700c0.6,0,1.1,0.5,1.1,1.1c0,0.6-0.5,1.1-1.1,1.1h-12.9c-0.6,0-1.1-0.5-1.1-1.1
		C686,978.1,686.5,977.6,687.1,977.6"/>
	<path class="st1" d="M687.1,987.9h15.6c0.6,0,1.1,0.5,1.1,1.1c0,0.6-0.5,1.1-1.1,1.1h-15.6c-0.6,0-1.1-0.5-1.1-1.1
		C686,988.3,686.5,987.9,687.1,987.9"/>
	<path class="st1" d="M687.1,991.4H700c0.6,0,1.1,0.5,1.1,1.1c0,0.6-0.5,1.1-1.1,1.1h-12.9c-0.6,0-1.1-0.5-1.1-1.1
		C686,991.9,686.5,991.4,687.1,991.4"/>
	<path class="st1" d="M687.1,1001.7h15.6c0.6,0,1.1,0.5,1.1,1.1c0,0.6-0.5,1.1-1.1,1.1h-15.6c-0.6,0-1.1-0.5-1.1-1.1
		C686,1002.2,686.5,1001.7,687.1,1001.7"/>
	<path class="st1" d="M687.1,1005.3H700c0.6,0,1.1,0.5,1.1,1.1c0,0.6-0.5,1.1-1.1,1.1h-12.9c-0.6,0-1.1-0.5-1.1-1.1
		C686,1005.8,686.5,1005.3,687.1,1005.3"/>
	<path class="st1" d="M727.5,987.5h4c0.7,0,1.3,0.5,1.3,1.2v20.4c0,0.6-0.6,1.2-1.3,1.2h-4c-0.7,0-1.3-0.5-1.3-1.2v-20.4
		C726.2,988,726.8,987.5,727.5,987.5"/>
	<path class="st1" d="M738,994.7h4c0.7,0,1.3,0.5,1.3,1.2v13.1c0,0.6-0.6,1.2-1.3,1.2h-4c-0.7,0-1.3-0.5-1.3-1.2v-13.1
		C736.8,995.3,737.3,994.7,738,994.7"/>
	<path class="st1" d="M748.6,973.1h4c0.7,0,1.3,0.5,1.3,1.2v34.7c0,0.6-0.6,1.2-1.3,1.2h-4c-0.7,0-1.3-0.5-1.3-1.2v-34.7
		C747.3,973.6,747.9,973.1,748.6,973.1"/>
	<path class="st1" d="M759.6,966.7h4c0.7,0,1.3,0.5,1.3,1.2v41.2c0,0.6-0.6,1.2-1.3,1.2h-4c-0.7,0-1.3-0.5-1.3-1.2v-41.2
		C758.3,967.2,758.9,966.7,759.6,966.7"/>
	<path class="st1" d="M770.7,978.1h4c0.7,0,1.3,0.5,1.3,1.2v29.7c0,0.6-0.6,1.2-1.3,1.2h-4c-0.7,0-1.3-0.5-1.3-1.2v-29.7
		C769.4,978.7,770,978.1,770.7,978.1"/>
	<path class="st1" d="M781.6,994.7h4c0.7,0,1.3,0.5,1.3,1.2v13.1c0,0.6-0.6,1.2-1.3,1.2h-4c-0.7,0-1.3-0.5-1.3-1.2v-13.1
		C780.3,995.3,780.9,994.7,781.6,994.7"/>
	<path class="st1" d="M790.5,1077.1c0.9,0.8,0.9,2.1,0.1,2.9c-0.9,0.8-2.3,0.9-3.2,0.2c-0.9-0.8-0.9-2.1-0.1-2.9
		C788.1,1076.4,789.6,1076.4,790.5,1077.1"/>
	<path class="st1" d="M850,1083.2h17.6c0.7,0,1.4,0.6,1.4,1.3v11.1c0,0.7-0.6,1.3-1.4,1.3H850c-0.7,0-1.4-0.6-1.4-1.3v-11.1
		C848.7,1083.7,849.3,1083.2,850,1083.2"/>
	<path class="st1" d="M857.6,1088.5h8.9c0.8,0,1.4,0.6,1.4,1.3v0c0,0.7-0.6,1.3-1.4,1.3h-8.9c-0.8,0-1.4-0.6-1.4-1.3v0
		C856.2,1089.1,856.8,1088.5,857.6,1088.5"/>
	<path class="st1" d="M846.5,952.8c3,0,5.4,2.3,5.4,5c0,2.8-2.4,5-5.4,5c-3,0-5.4-2.3-5.4-5C841.1,955,843.5,952.8,846.5,952.8"/>
	<path class="st1" d="M904.3,1098.8c1.2-0.1,2.3,0.8,2.3,2c0.1,1.2-0.8,2.2-2,2.2c-1.2,0.1-2.3-0.8-2.3-2
		C902.2,1099.9,903.1,1098.9,904.3,1098.8"/>
	<path class="st15" d="M536.9,880.6c14,0,25.4,10.5,25.4,23.5c0,13-11.4,23.5-25.4,23.5c-14,0-25.4-10.5-25.4-23.5
		C511.6,891.2,522.9,880.6,536.9,880.6"/>
	<path class="st16" d="M538,906.1v7.1c1.2-0.2,2.1-0.7,2.7-1.3c0.6-0.7,1-1.4,1-2.3c0-0.9-0.3-1.7-0.9-2.2
		C540.1,906.9,539.2,906.4,538,906.1 M535.8,901.3v-6.2c-1,0.3-1.7,0.6-2.3,1.1c-0.5,0.4-0.8,1.1-0.8,2c0,0.9,0.3,1.5,0.8,1.9
		C533.9,900.5,534.7,900.9,535.8,901.3z M538,890.2v1.8c1.2,0.1,2.3,0.4,3.2,0.7c0.9,0.4,1.7,0.9,2.3,1.6c0.5,0.6,0.9,1.1,1.2,1.7
		c0.3,0.6,0.4,1.1,0.4,1.6c0,0.5-0.2,1-0.6,1.4c-0.4,0.4-0.9,0.6-1.6,0.6c-1.1,0-1.9-0.6-2.2-1.7c-0.4-1.3-1.3-2.2-2.8-2.7v6.7
		c1.4,0.4,2.6,0.7,3.5,1c0.9,0.3,1.6,0.7,2.3,1.3c0.7,0.6,1.3,1.3,1.7,2.1c0.4,0.8,0.6,1.7,0.6,2.7c0,1.2-0.3,2.4-0.9,3.5
		c-0.6,1.1-1.5,2-2.8,2.6c-1.2,0.7-2.7,1.1-4.3,1.2v4c0,0.6-0.1,1.1-0.2,1.4c-0.1,0.3-0.4,0.4-0.9,0.4c-0.4,0-0.7-0.1-0.9-0.4
		c-0.2-0.2-0.3-0.6-0.3-1.1v-4.4c-1.4-0.1-2.6-0.4-3.6-0.9c-1-0.5-1.9-1-2.6-1.7c-0.7-0.7-1.2-1.4-1.5-2.1c-0.3-0.7-0.5-1.4-0.5-2.2
		c0-0.5,0.2-1,0.7-1.4c0.4-0.4,1-0.6,1.6-0.6c0.5,0,1,0.1,1.3,0.3c0.4,0.2,0.6,0.5,0.8,1c0.3,0.9,0.6,1.6,0.8,2
		c0.2,0.5,0.6,0.9,1.1,1.3c0.5,0.4,1.1,0.7,1.9,0.9v-7.5c-1.6-0.4-2.9-0.8-3.9-1.3c-1-0.5-1.9-1.2-2.6-2.1c-0.6-0.9-1-2.1-1-3.5
		c0-1.9,0.6-3.4,1.9-4.6c1.3-1.2,3.1-1.9,5.5-2.1v-1.7c0-0.9,0.4-1.4,1.1-1.4C537.6,888.8,538,889.3,538,890.2z"/>
	<path class="st17" d="M538.9,1109.9h286.4c1.7,0,3,1.3,3,2.8v6.3c0,1.6-1.4,2.8-3,2.8H538.9c-1.7,0-3-1.3-3-2.8v-6.3
		C535.8,1111.2,537.2,1109.9,538.9,1109.9"/>
	<path class="st6" d="M549.9,1109.9h177c1.7,0,3,1.3,3,2.8v6.3c0,1.6-1.4,2.8-3,2.8h-177c-1.7,0-3-1.3-3-2.8v-6.3
		C546.8,1111.2,548.2,1109.9,549.9,1109.9"/>
	<path class="st18" d="M708.5,1105.9h9.6c1.2,0,2.1,0.9,2.1,2c0,1.1-1,2-2.1,2h-9.6c-1.2,0-2.1-0.9-2.1-2
		C706.3,1106.8,707.3,1105.9,708.5,1105.9"/>
	<path class="st18" d="M757.1,1105.9h9.6c1.2,0,2.1,0.9,2.1,2c0,1.1-1,2-2.1,2h-9.6c-1.2,0-2.1-0.9-2.1-2
		C755,1106.8,756,1105.9,757.1,1105.9"/>
	<path class="st18" d="M715.8,1079.7h43.8c4,0,7.3,3,7.3,6.7v0c0,3.7-3.3,6.7-7.3,6.7h-43.8c-4,0-7.3-3-7.3-6.7v0
		C708.5,1082.8,711.8,1079.7,715.8,1079.7"/>
	<path class="st8" d="M567.5,1101.2H626c2.3,0,4.1,1.7,4.1,3.8v1.1c0,2.1-1.8,3.8-4.1,3.8h-58.5c-2.3,0-4.1-1.7-4.1-3.8v-1.1
		C563.4,1102.9,565.3,1101.2,567.5,1101.2"/>
	<path class="st9" d="M590.7,1101.2H626c2.3,0,4.1,1.7,4.1,3.8v1.1c0,2.1-1.8,3.8-4.1,3.8h-35.3c-2.3,0-4.1-1.7-4.1-3.8v-1.1
		C586.6,1102.9,588.5,1101.2,590.7,1101.2"/>
	<path class="st1" d="M612.6,1056.6h78.5c1.5,0,2.5,1.1,2.1,2.5l-10.8,46.1c-0.3,1.4-1.8,2.5-3.3,2.5h-78.5c-1.5,0-2.5-1.1-2.1-2.5
		l10.8-46.1C609.6,1057.7,611.1,1056.6,612.6,1056.6"/>
	<path class="st19" d="M641.1,1109.9h94.5c1.7,0,3,1.3,3,2.8v6.3c0,1.6-1.4,2.8-3,2.8h-94.5c-1.7,0-3-1.3-3-2.8v-6.3
		C638.1,1111.2,639.4,1109.9,641.1,1109.9"/>
	<path class="st20" d="M614.7,1058.8h78.5c1.5,0,2.5,1.1,2.1,2.5l-10.8,46.1c-0.3,1.4-1.8,2.5-3.3,2.5h-78.5c-1.5,0-2.5-1.1-2.1-2.5
		l10.8-46.1C611.7,1059.9,613.2,1058.8,614.7,1058.8"/>
	<path class="st1" d="M650.6,1078.2c3.6,0,6.1,2.7,5.4,6.1c-0.6,3.4-4.1,6.1-7.8,6.1c-3.6,0-6.1-2.7-5.4-6.1
		C643.5,1080.9,646.9,1078.2,650.6,1078.2"/>
	<path class="st8" d="M600.8,1108.9c0.4,0.7,1.1,1,2,1c0,0,26.2,0,78.5,0c1.6-0.1,3-1.1,3.3-2.5c0,0,3.5-15,10.6-45
		C673.2,1090.6,638.3,1107.8,600.8,1108.9"/>
	<path class="st21" d="M702.7,1087.8h69c1.5,0,2.7,1.1,2.7,2.5v13.6c0,1.4-1.2,2.5-2.7,2.5h-69c-1.5,0-2.7-1.1-2.7-2.5v-13.6
		C700,1088.9,701.2,1087.8,702.7,1087.8"/>
	<path class="st22" d="M709.8,1091.8h55.8c1.5,0,2.7,1.1,2.7,2.5v5c0,1.4-1.2,2.5-2.7,2.5h-55.8c-1.5,0-2.7-1.1-2.7-2.5v-5
		C707,1092.9,708.3,1091.8,709.8,1091.8"/>
	<rect x="714.3" y="1095" class="st1" width="7.9" height="3.3"/>
	<rect x="726.1" y="1095" class="st1" width="5.5" height="3.3"/>
	<path class="st1" d="M569.2,1104.8h2.6c0.7,0,1.2,0.5,1.2,1.1v0c0,0.6-0.5,1.1-1.2,1.1h-2.6c-0.7,0-1.2-0.5-1.2-1.1v0
		C568,1105.3,568.6,1104.8,569.2,1104.8"/>
	<path class="st1" d="M575.7,1104.8h2.6c0.7,0,1.2,0.5,1.2,1.1v0c0,0.6-0.5,1.1-1.2,1.1h-2.6c-0.7,0-1.2-0.5-1.2-1.1v0
		C574.5,1105.3,575,1104.8,575.7,1104.8"/>
	<path class="st1" d="M716.9,1098.1c0.9,0,2.5-0.2,2.5-0.2c-1,16.1-15.2,25.1-48.3,24.4l-82.8,0.2c-8.3,0-12.5-5.9-12.9-15.6
		c0.5-0.3,2.4-0.6,3.3,0c0.6,8.4,2.7,12.8,9.8,13.1c0,0,27.6,0,82.7,0.1C700.3,1120.6,715.6,1113.3,716.9,1098.1"/>
	<path class="st15" d="M923.5,973.7c7.5,0,13.7,5.7,13.7,12.7c0,7-6.1,12.7-13.7,12.7c-7.5,0-13.7-5.7-13.7-12.7
		C909.9,979.4,916,973.7,923.5,973.7"/>
	<path class="st16" d="M927.2,982.1l-6.8,10.2c-0.2,0.3-0.4,0.4-0.6,0.4c-0.1,0-0.3,0-0.4-0.1c-0.1-0.1-0.2-0.2-0.2-0.3
		c0-0.1,0.1-0.2,0.2-0.4l6.8-10.2c0.1-0.2,0.2-0.3,0.3-0.4c0.1-0.1,0.2-0.1,0.4-0.1c0.2,0,0.3,0,0.4,0.1c0.1,0.1,0.2,0.2,0.2,0.4
		C927.5,981.6,927.4,981.8,927.2,982.1 M928.6,989.4c0-0.6-0.1-1.1-0.2-1.4c-0.2-0.3-0.4-0.4-0.8-0.4c-0.3,0-0.5,0.1-0.6,0.2
		c-0.2,0.1-0.3,0.3-0.3,0.6c-0.1,0.3-0.1,0.6-0.1,1.1c0,0.7,0.1,1.2,0.2,1.5c0.2,0.3,0.4,0.5,0.8,0.5c0.4,0,0.7-0.2,0.8-0.5
		C928.5,990.5,928.6,990,928.6,989.4z M930.1,989.4c0,1-0.2,1.7-0.7,2.1c-0.5,0.5-1.1,0.7-1.9,0.7c-0.5,0-0.9-0.1-1.3-0.3
		c-0.4-0.2-0.7-0.5-0.9-0.9c-0.2-0.4-0.3-0.9-0.3-1.6c0-1,0.2-1.7,0.6-2.2c0.4-0.5,1-0.7,1.9-0.7c0.4,0,0.8,0.1,1.1,0.2
		c0.3,0.1,0.6,0.3,0.8,0.5c0.2,0.2,0.4,0.5,0.5,0.9C930.1,988.5,930.1,989,930.1,989.4z M920.2,983.9c0-0.7-0.1-1.1-0.2-1.4
		c-0.2-0.3-0.4-0.4-0.8-0.4c-0.3,0-0.5,0.1-0.6,0.2c-0.2,0.1-0.3,0.4-0.3,0.6c-0.1,0.3-0.1,0.6-0.1,1.1c0,0.4,0,0.8,0.1,1.1
		c0.1,0.3,0.2,0.5,0.3,0.6c0.2,0.1,0.4,0.2,0.6,0.2c0.4,0,0.7-0.2,0.8-0.5C920.2,985.1,920.2,984.6,920.2,983.9z M921.8,984
		c0,1-0.2,1.7-0.7,2.1c-0.5,0.5-1.1,0.7-1.9,0.7c-0.5,0-0.9-0.1-1.3-0.3c-0.4-0.2-0.7-0.5-0.9-0.9c-0.2-0.4-0.3-0.9-0.3-1.6
		c0-0.7,0.1-1.2,0.3-1.6c0.2-0.4,0.4-0.8,0.8-1c0.4-0.2,0.9-0.3,1.4-0.3c0.4,0,0.8,0.1,1.1,0.2c0.3,0.1,0.6,0.3,0.8,0.6
		c0.2,0.2,0.4,0.6,0.5,0.9C921.7,983.1,921.8,983.5,921.8,984z"/>
	<path class="st23" d="M948.8,1169.5c-2,3.9-2.8,3.9-2.5,0c3.2-20.6-5.6-41.2-23-54.3c-0.4-0.4-0.4-1,0-1.4c0.4-0.4,1-0.4,1.5-0.1
		C943.5,1126.6,952.8,1148.2,948.8,1169.5"/>
	<path class="st19" d="M964.3,1169.5c-5.2,0-10.4,0-15.6,0c-5.2,0-10.4,0-15.6,0c-3.8,0-6.4,2.3-5.8,5.1c0.8,4.1,1.6,8.1,2.4,12.2
		c0.8,4.1,1.6,8.1,2.4,12.2c0.6,2.8,3.1,5.1,5.8,5.1c3.6,0,7.2,0,10.8,0c3.6,0,7.2,0,10.8,0c2.6,0,5.2-2.3,5.8-5.1
		c0.8-4.1,1.6-8.1,2.4-12.2c0.8-4.1,1.6-8.1,2.4-12.2C970.7,1171.8,968.1,1169.5,964.3,1169.5"/>
	<path class="st24" d="M927.2,1098.1c-1.4,0.2-1.6,4.9-0.5,10.5c1.1,5.6,3.1,9.9,4.5,9.7c1.4-0.2,1.6-4.9,0.5-10.5
		S928.6,1097.8,927.2,1098.1"/>
	<path class="st24" d="M907.9,1114c-0.5,1.2,3.9,3.7,9.6,5.6c5.8,1.9,10.8,2.4,11.3,1.2c0.5-1.2-3.9-3.7-9.6-5.6
		C913.4,1113.3,908.3,1112.8,907.9,1114"/>
	<path class="st24" d="M936.4,1101.1c-1.4,0.1-2.3,5.1-2.1,11.2c0.2,6.1,1.6,11.1,2.9,11c1.4-0.1,2.3-5.1,2.1-11.2
		C939.1,1106,937.7,1101.1,936.4,1101.1"/>
	<path class="st24" d="M909.4,1123.1c-0.2,1.3,5,3,11.6,3.8c6.6,0.8,12,0.4,12.2-0.9c0.2-1.3-5-3-11.6-3.8
		C915.1,1121.5,909.6,1121.8,909.4,1123.1"/>
	<path class="st24" d="M946.8,1104.3c-1.4-0.2-3.6,5.1-4.9,11.8c-1.3,6.8-1.3,12.4,0.1,12.6c1.4,0.2,3.6-5.1,4.9-11.8
		C948.2,1110.2,948.2,1104.5,946.8,1104.3"/>
	<path class="st24" d="M910.4,1131c0,1.3,6,2.4,13.4,2.5c7.4,0.1,13.4-0.9,13.4-2.2c0-1.3-6-2.4-13.4-2.5
		C916.4,1128.8,910.4,1129.7,910.4,1131"/>
	<path class="st24" d="M954.6,1110.9c-1.3-0.5-4.6,4.3-7.3,10.7c-2.7,6.4-3.9,11.9-2.6,12.4c1.3,0.5,4.6-4.3,7.3-10.7
		C954.7,1116.9,955.9,1111.3,954.6,1110.9"/>
	<path class="st24" d="M940.1,1136.9c-0.1-1.3-6.1-2.1-13.5-1.9c-7.4,0.2-13.3,1.5-13.3,2.8c0.1,1.3,6.1,2.1,13.5,1.9
		C934.2,1139.4,940.1,1138.2,940.1,1136.9"/>
	<path class="st24" d="M963,1118.7c-1.1-0.8-5.7,3-10.3,8.4c-4.6,5.4-7.3,10.4-6.2,11.2c1.1,0.8,5.7-3,10.3-8.4
		C961.3,1124.5,964.1,1119.5,963,1118.7"/>
	<path class="st24" d="M941.8,1141.8c-0.2-1.3-6.3-1.8-13.6-1.1c-7.4,0.7-13.2,2.2-13.1,3.5c0.2,1.3,6.3,1.8,13.6,1.1
		C936.1,1144.7,942,1143.1,941.8,1141.8"/>
	<path class="st24" d="M967.5,1125.7c-1-0.9-6,2.4-11.2,7.3c-5.1,4.9-8.5,9.7-7.5,10.5c1,0.9,6-2.4,11.2-7.3
		C965.2,1131.3,968.5,1126.6,967.5,1125.7"/>
	<path class="st24" d="M943.6,1145.7c-0.4-1.2-6.5-0.8-13.6,1c-7.2,1.8-12.6,4.2-12.3,5.5c0.4,1.2,6.5,0.8,13.6-1
		C938.5,1149.4,944,1146.9,943.6,1145.7"/>
	<path class="st6" d="M942.7,1173c-1.6,0-3.1,0-4.7,0c-1.6,0-3.1,0-4.7,0c-1.8,0-2.9,1.7-2.5,3.8c0.6,3.3,1.2,6.6,1.9,9.8
		c0.6,3.3,1.2,6.6,1.9,9.8c0.4,2.1,1.7,3.8,2.9,3.8c1,0,2.1,0,3.1,0c1,0,2.1,0,3.1,0c1.2,0,2.2-1.7,2.2-3.8c0-3.3,0-6.6,0-9.8
		c0-3.3,0-6.6,0-9.8C945.9,1174.7,944.5,1173,942.7,1173"/>
	<path class="st1" d="M513,1001.4c-3.6,9.8-13.4,10.4-29.5,1.6c-1.8,1-2.8,1.5-2.8,1.5c23.9,17.9,35.5,17.2,35-2.3
		C513.9,1001.7,513,1001.4,513,1001.4"/>
	<path class="st1" d="M507.7,961.2c0.6-0.1,1.2,0.3,1.2,0.9c0.1,0.6-0.4,1.1-1,1.1c-0.6,0.1-1.2-0.3-1.2-0.9
		C506.6,961.7,507,961.2,507.7,961.2"/>
	<path class="st1" d="M556.6,1030.5c0.3-1.2,1.5-1.9,2.7-1.6c1.2,0.2,2,1.4,1.8,2.5c-0.3,1.2-1.5,1.9-2.7,1.6
		C557.2,1032.8,556.4,1031.7,556.6,1030.5"/>
	<path class="st1" d="M455.3,1077.8c1.3,0,2.3,1,2.3,2.1c0,1.2-1,2.1-2.3,2.1c-1.3,0-2.3-1-2.3-2.1
		C453,1078.7,454,1077.8,455.3,1077.8"/>
	<path class="st1" d="M496.8,1066.9c0.9,0,1.6,0.7,1.6,1.5c0,0.8-0.7,1.5-1.6,1.5c-0.9,0-1.6-0.7-1.6-1.5
		C495.3,1067.5,496,1066.9,496.8,1066.9"/>
	<path class="st23" d="M416.3,1167.3c2,3.9,2.8,3.9,2.5,0c-3.2-20.6,5.6-41.2,23-54.3c0.4-0.4,0.4-1,0-1.4c-0.4-0.4-1-0.4-1.5-0.1
		C421.6,1124.4,412.3,1146,416.3,1167.3"/>
	<path class="st19" d="M400.7,1167.3c5.2,0,10.4,0,15.6,0c5.2,0,10.4,0,15.6,0c3.8,0,6.4,2.3,5.8,5.1c-0.8,4.1-1.6,8.1-2.4,12.2
		c-0.8,4.1-1.6,8.1-2.4,12.2c-0.6,2.8-3.2,5.1-5.8,5.1c-3.6,0-7.2,0-10.8,0c-3.6,0-7.2,0-10.8,0c-2.6,0-5.2-2.3-5.8-5.1
		c-0.8-4.1-1.6-8.1-2.4-12.2c-0.8-4.1-1.6-8.1-2.4-12.2C394.3,1169.6,396.9,1167.3,400.7,1167.3"/>
	<path class="st24" d="M437.9,1095.9c1.4,0.2,1.6,4.9,0.5,10.5c-1.1,5.6-3.1,9.9-4.5,9.7c-1.4-0.2-1.6-4.9-0.5-10.5
		C434.5,1100,436.5,1095.6,437.9,1095.9"/>
	<path class="st24" d="M457.2,1111.8c0.5,1.2-3.9,3.7-9.6,5.6c-5.8,1.9-10.8,2.4-11.3,1.2c-0.5-1.2,3.9-3.7,9.6-5.6
		C451.7,1111.1,456.7,1110.6,457.2,1111.8"/>
	<path class="st24" d="M428.7,1098.9c1.4,0.1,2.3,5.1,2.1,11.2c-0.2,6.1-1.6,11.1-2.9,11c-1.4-0.1-2.3-5.1-2.1-11.2
		C426,1103.8,427.3,1098.8,428.7,1098.9"/>
	<path class="st24" d="M455.7,1120.9c0.2,1.3-5,3-11.6,3.8c-6.6,0.8-12,0.4-12.2-0.9c-0.2-1.3,5-3,11.6-3.8
		C450,1119.2,455.5,1119.6,455.7,1120.9"/>
	<path class="st24" d="M418.3,1102.1c1.4-0.2,3.6,5.1,4.9,11.8c1.3,6.8,1.3,12.4-0.1,12.6c-1.4,0.2-3.6-5.1-4.9-11.8
		C416.9,1107.9,416.9,1102.3,418.3,1102.1"/>
	<path class="st24" d="M454.7,1128.8c0,1.3-6,2.4-13.4,2.5c-7.4,0.1-13.4-0.9-13.4-2.2c0-1.3,6-2.4,13.4-2.5
		C448.7,1126.6,454.7,1127.5,454.7,1128.8"/>
	<path class="st24" d="M410.5,1108.7c1.3-0.5,4.6,4.3,7.3,10.7c2.7,6.4,3.9,11.9,2.6,12.4c-1.3,0.5-4.6-4.3-7.3-10.7
		C410.3,1114.7,409.2,1109.1,410.5,1108.7"/>
	<path class="st24" d="M425,1134.7c0.1-1.3,6.1-2.1,13.5-1.9c7.4,0.2,13.3,1.5,13.3,2.8c-0.1,1.3-6.1,2.1-13.5,1.9
		C430.9,1137.2,424.9,1136,425,1134.7"/>
	<path class="st24" d="M402.1,1116.5c1.1-0.8,5.7,3,10.3,8.4c4.6,5.4,7.3,10.4,6.2,11.2c-1.1,0.8-5.7-3-10.3-8.4
		C403.7,1122.3,400.9,1117.2,402.1,1116.5"/>
	<path class="st24" d="M423.2,1139.6c0.2-1.3,6.3-1.8,13.6-1.1c7.4,0.7,13.2,2.2,13.1,3.5c-0.2,1.3-6.3,1.8-13.6,1.1
		C428.9,1142.5,423.1,1140.9,423.2,1139.6"/>
	<path class="st24" d="M397.6,1123.5c1-0.9,6,2.4,11.2,7.3c5.1,4.9,8.5,9.7,7.5,10.5c-1,0.9-6-2.4-11.2-7.3
		C399.9,1129.1,396.5,1124.4,397.6,1123.5"/>
	<path class="st24" d="M421.5,1143.4c0.4-1.2,6.5-0.8,13.6,1c7.2,1.8,12.6,4.2,12.3,5.5c-0.4,1.2-6.5,0.8-13.6-1
		C426.6,1147.1,421.1,1144.7,421.5,1143.4"/>
	<path class="st6" d="M422.4,1170.8c1.6,0,3.1,0,4.7,0c1.6,0,3.1,0,4.7,0c1.8,0,2.9,1.7,2.5,3.8c-0.6,3.3-1.2,6.6-1.9,9.8
		c-0.6,3.3-1.2,6.6-1.9,9.8c-0.4,2.1-1.7,3.8-2.9,3.8c-1,0-2.1,0-3.1,0c-1,0-2.1,0-3.1,0c-1.2,0-2.2-1.7-2.2-3.8c0-3.3,0-6.6,0-9.8
		c0-3.3,0-6.6,0-9.8C419.1,1172.5,420.6,1170.8,422.4,1170.8"/>
	<path class="st1" d="M611.8,1181c4.2,0,7.6,3.2,7.6,7c0,3.9-3.4,7-7.6,7c-4.2,0-7.6-3.2-7.6-7C604.2,1184.2,607.6,1181,611.8,1181"
		/>
	<path class="st1" d="M646.9,1171c2.5,0,4.5,1.9,4.5,4.2s-2,4.2-4.5,4.2c-2.5,0-4.5-1.9-4.5-4.2S644.4,1171,646.9,1171"/>
	<path class="st1" d="M624.2,1160.5c1.9,0,3.5,1.4,3.5,3.2c0,1.8-1.6,3.2-3.5,3.2c-1.9,0-3.5-1.4-3.5-3.2
		C620.7,1161.9,622.2,1160.5,624.2,1160.5"/>
	<path class="st1" d="M601.2,1156.7c1.2,0,2.2,0.9,2.2,2c0,1.1-1,2-2.2,2c-1.2,0-2.2-0.9-2.2-2C599,1157.6,600,1156.7,601.2,1156.7"
		/>
	<path class="st1" d="M579.8,1182.9c1.9,0,3.5,1.4,3.5,3.2s-1.6,3.2-3.5,3.2c-1.9,0-3.5-1.4-3.5-3.2S577.8,1182.9,579.8,1182.9"/>
	<path class="st1" d="M691.1,1195c1.9,0,3.5,1.4,3.5,3.2s-1.6,3.2-3.5,3.2c-1.9,0-3.5-1.4-3.5-3.2S689.1,1195,691.1,1195"/>
	<path class="st1" d="M639.2,1207.1c1.6,0,2.9,1.2,2.9,2.7c0,1.5-1.3,2.7-2.9,2.7c-1.6,0-2.9-1.2-2.9-2.7
		C636.3,1208.3,637.6,1207.1,639.2,1207.1"/>
	<path class="st1" d="M686.3,1170.8c1.9,0,3.5,1.5,3.5,3.2c0,1.8-1.6,3.2-3.5,3.2s-3.5-1.5-3.5-3.2
		C682.8,1172.3,684.4,1170.8,686.3,1170.8"/>
	<path class="st1" d="M723.1,1176.5c1.4,0,2.5,1,2.5,2.3c0,1.3-1.1,2.3-2.5,2.3c-1.4,0-2.5-1-2.5-2.3
		C720.6,1177.5,721.7,1176.5,723.1,1176.5"/>
	<path class="st1" d="M711.1,1162.4c1.1,0,2.1,0.9,2.1,1.9c0,1.1-0.9,1.9-2.1,1.9c-1.1,0-2.1-0.9-2.1-1.9
		C709,1163.3,709.9,1162.4,711.1,1162.4"/>
	<path class="st1" d="M760.4,1193.9c1.1,0,2.1,0.9,2.1,1.9s-0.9,1.9-2.1,1.9c-1.1,0-2.1-0.9-2.1-1.9S759.2,1193.9,760.4,1193.9"/>
	<path class="st1" d="M775.5,1189.7c1,0,1.7,0.7,1.7,1.6s-0.8,1.6-1.7,1.6c-1,0-1.7-0.7-1.7-1.6S774.5,1189.7,775.5,1189.7"/>
	<path class="st1" d="M790.6,1187.3c0.7,0,1.3,0.6,1.3,1.2c0,0.7-0.6,1.2-1.3,1.2c-0.7,0-1.3-0.6-1.3-1.2
		C789.2,1187.9,789.8,1187.3,790.6,1187.3"/>
	<path class="st1" d="M854.3,884.2c7.6,0,13.7,5.7,13.7,12.7c0,7-6.1,12.7-13.7,12.7c-7.6,0-13.7-5.7-13.7-12.7
		C840.6,889.9,846.7,884.2,854.3,884.2"/>
	<path class="st25" d="M854.3,891.2c3.4,0,6.1,2.5,6.1,5.7s-2.7,5.7-6.1,5.7c-3.4,0-6.1-2.5-6.1-5.7S850.9,891.2,854.3,891.2"/>
	<rect x="850.2" y="878.6" class="st1" width="8" height="8.6"/>
	<rect x="850.2" y="906.8" class="st1" width="8" height="8.6"/>
	<polygon class="st1" points="859.6,907.4 866,902.9 871.7,909.7 865.3,914.2 	"/>
	<polygon class="st1" points="848.7,907.4 842.3,902.9 836.7,909.7 843,914.2 	"/>
	<polygon class="st1" points="859.6,886.1 866,890.7 871.7,883.8 865.3,879.3 	"/>
	<polygon class="st1" points="848.7,886.1 842.3,890.7 836.7,883.8 843,879.3 	"/>
	<rect x="833.1" y="892.5" class="st1" width="10" height="7"/>
	<rect x="866.5" y="892.5" class="st1" width="10" height="7"/>
	<path class="st1" d="M883.3,873c3.8,0,6.8,2.8,6.8,6.3c0,3.5-3.1,6.3-6.8,6.3c-3.8,0-6.8-2.8-6.8-6.3
		C876.5,875.8,879.5,873,883.3,873"/>
	<path class="st25" d="M883.3,876.5c1.7,0,3,1.3,3,2.8c0,1.6-1.4,2.8-3,2.8c-1.7,0-3-1.3-3-2.8C880.2,877.7,881.6,876.5,883.3,876.5
		"/>
	<rect x="881.2" y="870.2" class="st1" width="4" height="4.3"/>
	<rect x="881.2" y="884.2" class="st1" width="4" height="4.3"/>
	<polygon class="st1" points="885.9,884.5 889.1,882.3 891.9,885.7 888.7,887.9 	"/>
	<polygon class="st1" points="880.5,884.5 877.3,882.3 874.5,885.7 877.7,887.9 	"/>
	<polygon class="st1" points="885.9,873.9 889.1,876.2 891.9,872.8 888.7,870.6 	"/>
	<polygon class="st1" points="880.5,873.9 877.3,876.2 874.5,872.8 877.7,870.6 	"/>
	<rect x="872.7" y="877.1" class="st1" width="5" height="3.5"/>
	<rect x="889.4" y="877.1" class="st1" width="5" height="3.5"/>
	<rect x="373.1" y="1004.8" class="st1" width="51.1" height="42.7"/>
	<rect x="378.7" y="1009.5" class="st25" width="39.9" height="33.3"/>
	<rect x="386.2" y="1015.6" class="st1" width="24.7" height="3.5"/>
	<rect x="386.2" y="1022.8" class="st1" width="24.7" height="3.5"/>
	<rect x="386.2" y="1030.6" class="st1" width="24.7" height="3.5"/>
	<rect x="351.1" y="1057.3" class="st1" width="30.7" height="25.6"/>
	<rect x="354.4" y="1060.1" class="st25" width="24" height="20"/>
	<rect x="359" y="1063.8" class="st1" width="14.8" height="2.1"/>
	<rect x="359" y="1068.1" class="st1" width="14.8" height="2.1"/>
	<rect x="359" y="1072.8" class="st1" width="14.8" height="2.1"/>
	<path class="st12" d="M915.5,915.1h57.7c1.5,0,2.7,1.1,2.7,2.5v23.1c0,1.4-1.2,2.5-2.7,2.5h-53c0,0-5.6,3.4-16.7,10.3
		c0,0,3.1-5,9.3-15.1v-20.8C912.8,916.3,914,915.1,915.5,915.1"/>
	<path class="st1" d="M931,925.1c2.2,0,3.9,1.6,3.9,3.6c0,2-1.8,3.6-3.9,3.6s-3.9-1.6-3.9-3.6C927.1,926.8,928.8,925.1,931,925.1"/>
	<path class="st1" d="M944.5,925.1c2.2,0,3.9,1.6,3.9,3.6c0,2-1.8,3.6-3.9,3.6c-2.2,0-3.9-1.6-3.9-3.6
		C940.6,926.8,942.4,925.1,944.5,925.1"/>
	<path class="st1" d="M957.3,925.1c2.2,0,3.9,1.6,3.9,3.6c0,2-1.8,3.6-3.9,3.6s-3.9-1.6-3.9-3.6
		C953.4,926.8,955.1,925.1,957.3,925.1"/>
	<path class="st9" d="M439.5,938h-57.7c-1.5,0-2.7,1.1-2.7,2.5v23.1c0,1.4,1.2,2.5,2.7,2.5h53c0,0,5.6,3.4,16.7,10.3
		c0,0-3.1-5-9.3-15.1v-20.8C442.3,939.1,441,938,439.5,938"/>
	<path class="st1" d="M424.1,948c-2.2,0-3.9,1.6-3.9,3.6c0,2,1.8,3.6,3.9,3.6c2.2,0,3.9-1.6,3.9-3.6C428,949.6,426.2,948,424.1,948"
		/>
	<path class="st1" d="M410.6,948c-2.2,0-3.9,1.6-3.9,3.6c0,2,1.8,3.6,3.9,3.6c2.2,0,3.9-1.6,3.9-3.6
		C414.5,949.6,412.7,948,410.6,948"/>
	<path class="st1" d="M397.8,948c-2.2,0-3.9,1.6-3.9,3.6c0,2,1.8,3.6,3.9,3.6c2.2,0,3.9-1.6,3.9-3.6
		C401.7,949.6,399.9,948,397.8,948"/>
</g>
</svg>
